<?xml version="1.0" encoding="utf-8"?>
<!-- Generator: Adobe Illustrator 27.1.0, SVG Export Plug-In . SVG Version: 6.00 Build 0)  -->
<svg version="1.1" id="Capa_1" xmlns="http://www.w3.org/2000/svg" xmlns:xlink="http://www.w3.org/1999/xlink" x="0px" y="0px"
	 viewBox="0 0 336.91 255.32" style="enable-background:new 0 0 336.91 255.32;" xml:space="preserve">
<style type="text/css">
	.st0{fill:#C49A16;}
	.st1{clip-path:url(#SVGID_00000036227606773752596900000004417490745754778797_);}
	.st2{fill:none;stroke:#8E2913;stroke-width:2;stroke-miterlimit:10;}
	.st3{fill:#8E2913;stroke:#8E2913;stroke-width:2;stroke-miterlimit:10;}
	.st4{fill:#8E2913;}
</style>
<path class="st0" d="M277.73,11.36c-0.83-1.42-2.45-2.19-4.07-1.92L11.87,52.25c-1.23,0.2-2.29,0.97-2.87,2.07
	c-0.58,1.1-0.61,2.41-0.08,3.54l84,177.85c0.58,1.24,1.76,2.08,3.12,2.25c0.16,0.02,0.31,0.03,0.47,0.03c1.19,0,2.33-0.54,3.09-1.48
	L277.39,15.85C278.42,14.57,278.56,12.78,277.73,11.36z"/>
<g>
	<defs>
		<path id="SVGID_1_" d="M277.84,11.42c-0.83-1.42-2.45-2.19-4.07-1.92L11.98,52.3c-1.23,0.2-2.29,0.97-2.87,2.07
			c-0.58,1.1-0.61,2.41-0.08,3.54l84,177.85c0.58,1.24,1.76,2.08,3.12,2.25c0.16,0.02,0.31,0.03,0.47,0.03
			c1.19,0,2.33-0.54,3.09-1.48L277.5,15.9C278.53,14.62,278.67,12.84,277.84,11.42z"/>
	</defs>
	<clipPath id="SVGID_00000011710123030633728020000005855805791633254827_">
		<use xlink:href="#SVGID_1_"  style="overflow:visible;"/>
	</clipPath>
	<g style="clip-path:url(#SVGID_00000011710123030633728020000005855805791633254827_);">
		<path class="st2" d="M187.45,83.94c2.87-2.26,6.98-2.5,10.42-1.26c3.43,1.24,6.26,3.79,8.54,6.64c3.7,4.62,6.23,10.39,6.07,16.31
			c-0.16,5.92-3.35,11.91-8.67,14.51c-4.31,2.12-10.09,1.59-13.24-2.04c-2.33-2.68-2.9-6.56-2.31-10.06
			c0.58-3.51,2.18-6.76,3.75-9.95c0.63-1.28,1.28-2.59,2.31-3.59c1.02-1,2.5-1.65,3.89-1.31c2.05,0.5,3.04,2.79,3.6,4.81
			c0.52,1.86,0.93,3.82,0.59,5.72c-0.35,1.9-1.61,3.75-3.48,4.26c-1.86,0.51-4.17-0.8-4.25-2.73"/>
		<g>
			<path class="st3" d="M120.28,90.03c-3.9,4.65-7.8,9.3-11.7,13.95c-3.92,4.67-7.84,9.35-11.76,14.02c-3.9,4.65-7.8,9.3-11.7,13.95
				c-3.9,4.65-7.8,9.3-11.7,13.95c-3.92,4.67-7.84,9.35-11.76,14.02c-0.49,0.58-0.97,1.16-1.46,1.74c-0.71,0.85-0.85,2.02-0.36,3
				c0.49,0.98,1.5,1.54,2.59,1.5c6.48-0.28,12.9-1.16,19.23-2.53c6.11-1.33,12.12-3.17,17.92-5.5c5.99-2.41,11.8-5.32,17.31-8.7
				c5.44-3.33,10.66-7.12,15.35-11.43c4.64-4.26,8.68-9.72,9.48-16.13c0.4-3.23,0.14-6.66-1.29-9.62c-0.75-1.55-1.64-2.89-2.85-4.13
				c-0.96-0.98-2.11-1.78-3.3-2.44c-4.83-2.64-11.34-2.56-15.83,0.77c-4.43,3.29-6.74,9.26-5.72,14.69
				c0.57,3.06,1.95,5.89,4.34,7.96c2.55,2.21,6.42,3.46,9.63,1.93c1.69-0.8,3.1-2.01,3.98-3.69c0.81-1.55,1.05-3.56,0.39-5.21
				c-1.14-2.89-4.4-4.5-7.4-3.89c-1.63,0.33-2.94,1.3-3.73,2.77c-0.68,1.25-0.08,3.07,1.23,3.65c1.39,0.62,2.92,0.11,3.65-1.23
				c0.28-0.52-0.4,0.49-0.13,0.18c0.07-0.08,0.14-0.16,0.21-0.24c0.12-0.15-0.66,0.47-0.21,0.21c0.1-0.06,0.2-0.13,0.3-0.18
				c-0.21,0.11-0.42,0.21-0.63,0.32c0.24-0.12,0.5-0.2,0.76-0.26c-0.24,0.05-0.48,0.1-0.71,0.15c0.31-0.06,0.61-0.08,0.92-0.06
				c-0.24-0.02-0.49-0.03-0.73-0.05c0.38,0.03,0.76,0.1,1.12,0.22c-0.22-0.08-0.44-0.15-0.67-0.23c0.21,0.07,0.42,0.16,0.62,0.27
				c0.11,0.06,0.5,0.31,0.04,0c-0.46-0.31-0.07-0.05,0.02,0.03c0.07,0.06,0.15,0.12,0.21,0.19c0.43,0.4-0.39-0.51-0.14-0.17
				c0.13,0.18,0.25,0.36,0.35,0.55c-0.11-0.21-0.21-0.42-0.32-0.63c0.12,0.24,0.19,0.49,0.25,0.75c-0.05-0.24-0.1-0.48-0.15-0.71
				c0.05,0.29,0.07,0.57,0.06,0.87c0.02-0.24,0.03-0.49,0.05-0.73c-0.02,0.37-0.1,0.72-0.21,1.08c0.08-0.22,0.15-0.44,0.23-0.67
				c-0.11,0.31-0.26,0.6-0.42,0.89c-0.23,0.42,0.41-0.53,0.1-0.16c-0.11,0.13-0.21,0.26-0.32,0.39c-0.17,0.19-0.63,0.49,0.06-0.02
				c-0.1,0.08-0.2,0.16-0.3,0.24c-0.27,0.21-0.57,0.38-0.87,0.54c0.21-0.11,0.42-0.21,0.63-0.32c-0.43,0.21-0.86,0.36-1.33,0.45
				c0.24-0.05,0.48-0.1,0.71-0.15c-0.43,0.08-0.87,0.1-1.31,0.07c0.24,0.02,0.49,0.03,0.73,0.05c-0.58-0.04-1.14-0.16-1.69-0.34
				c0.22,0.08,0.44,0.15,0.67,0.23c-0.56-0.2-1.07-0.46-1.57-0.76c-0.45-0.26,0.54,0.39,0.13,0.08c-0.11-0.08-0.22-0.16-0.33-0.25
				c-0.23-0.18-0.46-0.38-0.67-0.59c-0.1-0.1-0.2-0.19-0.29-0.29c-0.43-0.45,0.36,0.45,0.05,0.06c-0.17-0.21-0.35-0.42-0.51-0.65
				c-0.31-0.43-0.58-0.89-0.83-1.36c0.11,0.21,0.21,0.42,0.32,0.63c-0.46-0.92-0.79-1.89-1-2.89c0.05,0.24,0.1,0.48,0.15,0.71
				c-0.21-1.09-0.28-2.19-0.21-3.3c-0.02,0.24-0.03,0.49-0.05,0.73c0.08-1.15,0.31-2.28,0.68-3.37c-0.08,0.22-0.15,0.44-0.23,0.67
				c0.23-0.67,0.51-1.33,0.85-1.95c0.17-0.31,0.36-0.61,0.55-0.91c-0.5,0.81-0.12,0.19,0.02,0c0.11-0.14,0.22-0.28,0.33-0.42
				c0.22-0.27,0.46-0.54,0.71-0.79c0.06-0.06,0.31-0.38,0.38-0.37c0,0-0.54,0.46-0.25,0.23c0.08-0.06,0.15-0.13,0.23-0.19
				c0.57-0.46,1.19-0.85,1.84-1.19c-0.21,0.11-0.42,0.21-0.63,0.32c0.88-0.44,1.81-0.76,2.78-0.97c-0.24,0.05-0.48,0.1-0.71,0.15
				c1.13-0.23,2.27-0.3,3.42-0.23c-0.24-0.02-0.49-0.03-0.73-0.05c1.15,0.08,2.28,0.31,3.37,0.67c-0.22-0.08-0.44-0.15-0.67-0.23
				c0.67,0.23,1.33,0.51,1.95,0.85c0.16,0.08,0.31,0.17,0.46,0.26c0.1,0.06,0.41,0.19,0.45,0.28c0-0.01-0.58-0.41-0.29-0.19
				c0.08,0.06,0.16,0.11,0.24,0.17c0.14,0.11,0.28,0.21,0.42,0.33c0.26,0.21,0.51,0.43,0.75,0.67c0.13,0.12,0.25,0.25,0.37,0.38
				c0.32,0.33-0.36-0.43-0.19-0.21c0.05,0.06,0.1,0.12,0.15,0.18c0.53,0.64,0.97,1.34,1.35,2.08c-0.11-0.21-0.21-0.42-0.32-0.63
				c0.51,1.03,0.88,2.12,1.12,3.24c-0.05-0.24-0.1-0.48-0.15-0.71c0.28,1.38,0.35,2.78,0.26,4.18c0.02-0.24,0.03-0.49,0.05-0.73
				c-0.11,1.57-0.43,3.11-0.93,4.6c0.08-0.22,0.15-0.44,0.23-0.67c-0.42,1.22-0.96,2.38-1.59,3.5c-0.16,0.28-0.33,0.56-0.5,0.84
				c-0.08,0.13-0.16,0.25-0.24,0.38c-0.04,0.06-0.08,0.13-0.12,0.19c0.05-0.07,0.35-0.5,0.13-0.21c-0.39,0.55-0.79,1.1-1.21,1.63
				c-0.82,1.02-1.7,1.99-2.62,2.92c-0.46,0.47-0.94,0.92-1.42,1.37c-0.11,0.1-0.22,0.21-0.34,0.31c-0.08,0.07-0.48,0.43-0.14,0.12
				c0.36-0.32-0.11,0.1-0.2,0.17c-0.13,0.12-0.27,0.23-0.4,0.35c-4.11,3.53-8.55,6.69-13.17,9.53c-2.62,1.61-5.31,3.11-8.05,4.5
				c0.21-0.11,0.42-0.21,0.63-0.32c-6.84,3.45-14.04,6.21-21.44,8.19c-2.12,0.57-4.25,1.07-6.39,1.51c0.24-0.05,0.48-0.1,0.71-0.15
				c-5.72,1.17-11.53,1.9-17.37,2.14c0.75,1.5,1.49,3,2.24,4.5c3.9-4.65,7.8-9.3,11.7-13.95c3.92-4.67,7.84-9.35,11.76-14.02
				c3.9-4.65,7.8-9.3,11.7-13.95c3.9-4.65,7.8-9.3,11.7-13.95c3.92-4.67,7.84-9.35,11.76-14.02c0.49-0.58,0.97-1.16,1.46-1.74
				c0.91-1.09,0.9-2.91-0.26-3.84C122.98,88.86,121.26,88.87,120.28,90.03L120.28,90.03z"/>
		</g>
		<g>
			<path class="st3" d="M74.4,110.22c5.65,0.91,11.29,1.82,16.94,2.74c-0.33-1.64-0.66-3.28-0.99-4.91
				c-5.77,3.65-11.54,7.29-17.3,10.94c-1.65,1.04-3.3,2.09-4.95,3.13c-1.2,0.76-1.58,2.63-0.72,3.78c0.91,1.21,2.49,1.53,3.78,0.72
				c5.77-3.65,11.54-7.29,17.3-10.94c1.65-1.04,3.3-2.09,4.95-3.13c1.94-1.23,1.3-4.54-0.99-4.91c-5.65-0.91-11.29-1.82-16.94-2.74
				c-1.4-0.23-2.97,0.63-3.21,2.13C72.05,108.43,72.9,109.98,74.4,110.22L74.4,110.22z"/>
		</g>
		<path class="st3" d="M154.13,81.83c-5.04,0.35-8.95,5.37-9.73,11.88l8.19,4.01l-7.2,5.13c1.95,5.52,6.17,9.24,10.8,8.92
			c5.99-0.41,10.39-7.45,9.82-15.72C165.45,87.78,160.13,81.42,154.13,81.83z"/>
		<g>
			<path class="st3" d="M89.18,177.51c8.48-3.55,16.96-7.11,25.27-11.06c8.43-4.01,16.7-8.39,24.5-13.53
				c7.17-4.73,13.91-10.11,19.91-16.25c5.68-5.81,10.68-12.32,14.67-19.41c3.92-6.97,6.82-14.6,8.22-22.48
				c0.17-0.96,0.32-1.92,0.45-2.89c0.18-1.41-0.61-2.97-2.13-3.21c-1.37-0.21-3.01,0.62-3.21,2.13c-0.51,3.88-1.38,7.7-2.58,11.42
				c-0.07,0.21-0.14,0.42-0.21,0.64c-0.04,0.12-0.08,0.24-0.12,0.35c-0.12,0.35,0.24-0.68,0.06-0.17c-0.17,0.47-0.33,0.94-0.51,1.4
				c-0.34,0.91-0.7,1.81-1.07,2.7c-0.75,1.79-1.58,3.54-2.47,5.27c-0.91,1.75-1.88,3.47-2.91,5.15c-0.5,0.81-1.01,1.61-1.54,2.41
				c-0.3,0.45,0.3-0.44,0.09-0.14c-0.07,0.1-0.14,0.21-0.21,0.31c-0.13,0.19-0.25,0.37-0.38,0.56c-0.3,0.43-0.6,0.87-0.91,1.29
				c-2.29,3.2-4.8,6.24-7.47,9.13c-1.34,1.45-2.72,2.85-4.14,4.22c-0.71,0.68-1.43,1.36-2.16,2.02c-0.17,0.15-0.34,0.31-0.51,0.46
				c-0.09,0.08-0.19,0.17-0.28,0.25c-0.27,0.25,0.53-0.47,0.12-0.11c-0.38,0.33-0.76,0.67-1.14,0.99
				c-3.21,2.76-6.58,5.32-10.06,7.72c-3.71,2.57-7.55,4.95-11.47,7.19c-1.96,1.12-3.95,2.2-5.95,3.26c-1.02,0.54-2.12,0.99-3.09,1.6
				c0.68-0.42-0.04,0.02-0.23,0.11c-0.23,0.12-0.47,0.23-0.7,0.35c-0.55,0.27-1.09,0.54-1.64,0.81c-8.18,4-16.57,7.58-24.96,11.11
				c-1.02,0.43-2.04,0.85-3.05,1.28c-1.31,0.55-2.23,2.05-1.67,3.47C86.24,177.14,87.78,178.1,89.18,177.51L89.18,177.51z"/>
		</g>
		<g>
			<path class="st3" d="M188.98,86.19c0.45-0.35,0.92-0.65,1.42-0.91c-0.21,0.11-0.42,0.21-0.63,0.32c0.8-0.4,1.64-0.69,2.52-0.87
				c-0.24,0.05-0.48,0.1-0.71,0.15c0.98-0.19,1.98-0.25,2.98-0.2c-0.24-0.02-0.49-0.03-0.73-0.05c1.15,0.08,2.27,0.3,3.36,0.68
				c-0.22-0.08-0.44-0.15-0.67-0.23c0.66,0.24,1.31,0.51,1.93,0.84c0.32,0.17,0.64,0.35,0.95,0.54c0.12,0.08,0.25,0.15,0.37,0.23
				c0.23,0.15,0.16,0.11-0.21-0.14c0.08,0.05,0.16,0.11,0.24,0.17c1.12,0.79,2.14,1.7,3.09,2.68c0.12,0.12,0.24,0.25,0.35,0.37
				c0.13,0.14,0.52,0.62-0.02-0.03c0.22,0.26,0.45,0.52,0.67,0.78c0.46,0.56,0.9,1.13,1.32,1.72c0.89,1.24,1.68,2.55,2.38,3.91
				c-0.11-0.21-0.21-0.42-0.32-0.63c0.99,1.97,1.75,4.04,2.2,6.2c-0.05-0.24-0.1-0.48-0.15-0.71c0.37,1.8,0.52,3.64,0.41,5.48
				c0.02-0.24,0.03-0.49,0.05-0.73c-0.11,1.6-0.43,3.17-0.94,4.69c0.08-0.22,0.15-0.44,0.23-0.67c-0.33,0.94-0.72,1.86-1.2,2.74
				c-0.12,0.21-0.24,0.42-0.36,0.63c-0.13,0.21-0.66,0.96-0.11,0.2c-0.29,0.39-0.56,0.79-0.86,1.16c-0.3,0.37-0.63,0.73-0.96,1.08
				c-0.17,0.17-0.34,0.34-0.52,0.5c-0.42,0.39,0.35-0.3,0.13-0.11c-0.08,0.07-0.17,0.14-0.25,0.21c-0.78,0.64-1.63,1.19-2.53,1.65
				c0.21-0.11,0.42-0.21,0.63-0.32c-0.95,0.47-1.94,0.81-2.97,1.03c0.24-0.05,0.48-0.1,0.71-0.15c-1.12,0.23-2.25,0.31-3.39,0.24
				c0.24,0.02,0.49,0.03,0.73,0.05c-1-0.07-1.98-0.26-2.93-0.57c0.22,0.08,0.44,0.15,0.67,0.23c-0.54-0.19-1.07-0.41-1.58-0.69
				c-0.22-0.12-0.42-0.25-0.63-0.38c0.78,0.45,0.26,0.17,0.08,0.04c-0.1-0.07-0.2-0.15-0.29-0.23c-0.21-0.17-0.41-0.35-0.6-0.54
				c-0.1-0.1-0.2-0.21-0.3-0.31c0.61,0.57,0.26,0.29,0.11,0.11c-0.42-0.52-0.78-1.08-1.09-1.67c0.11,0.21,0.21,0.42,0.32,0.63
				c-0.45-0.9-0.77-1.85-0.98-2.83c0.05,0.24,0.1,0.48,0.15,0.71c-0.25-1.24-0.32-2.5-0.24-3.76c-0.02,0.24-0.03,0.49-0.05,0.73
				c0.12-1.73,0.53-3.42,1.08-5.06c-0.08,0.22-0.15,0.44-0.23,0.67c0.72-2.07,1.66-4.06,2.63-6.02c0.23-0.47,0.46-0.94,0.7-1.4
				c0.12-0.23,0.24-0.45,0.37-0.68c0.05-0.09,0.1-0.18,0.16-0.26c0.04-0.06,0.32-0.49,0.05-0.1c-0.26,0.38,0.01,0,0.07-0.09
				c0.07-0.1,0.15-0.2,0.23-0.3c0.16-0.2,0.33-0.39,0.51-0.57c0.32-0.32-0.06-0.01-0.15,0.12c0.06-0.09,0.2-0.16,0.29-0.22
				c0.22-0.16,0.44-0.29,0.68-0.42c-0.21,0.11-0.42,0.21-0.63,0.32c0.35-0.17,0.7-0.3,1.07-0.39c-0.24,0.05-0.48,0.1-0.71,0.15
				c0.33-0.06,0.65-0.09,0.98-0.08c-0.24-0.02-0.49-0.03-0.73-0.05c0.31,0.03,0.61,0.09,0.9,0.19c-0.22-0.08-0.44-0.15-0.67-0.23
				c0.15,0.06,0.29,0.12,0.43,0.19c0.23,0.12,0.38,0.37-0.19-0.14c0.18,0.17,0.38,0.33,0.57,0.5c0.15,0.13-0.48-0.59-0.11-0.12
				c0.07,0.1,0.14,0.19,0.21,0.29c0.16,0.24,0.3,0.49,0.44,0.74c-0.11-0.21-0.21-0.42-0.32-0.63c0.66,1.3,1.03,2.75,1.33,4.17
				c-0.05-0.24-0.1-0.48-0.15-0.71c0.2,1.01,0.31,2.02,0.24,3.05c0.02-0.24,0.03-0.49,0.05-0.73c-0.05,0.59-0.15,1.16-0.33,1.72
				c0.08-0.22,0.15-0.44,0.23-0.67c-0.11,0.33-0.25,0.65-0.41,0.96c-0.06,0.11-0.13,0.22-0.2,0.34c0.4-0.75,0.17-0.25,0.01-0.05
				c-0.11,0.13-0.22,0.26-0.34,0.39c-0.18,0.19-0.48,0.28,0.15-0.12c-0.29,0.18-0.54,0.4-0.84,0.55c0.21-0.11,0.42-0.21,0.63-0.32
				c-0.3,0.15-0.61,0.26-0.94,0.33c0.24-0.05,0.48-0.1,0.71-0.15c-0.28,0.05-0.55,0.06-0.82,0.05c0.24,0.02,0.49,0.03,0.73,0.05
				c-0.32-0.02-0.63-0.08-0.93-0.18c0.22,0.08,0.44,0.15,0.67,0.23c-0.19-0.06-0.37-0.14-0.55-0.23c-0.02-0.01-0.31-0.16-0.31-0.18
				c0.01-0.04,0.61,0.49,0.25,0.15c-0.07-0.07-0.15-0.13-0.22-0.19c-0.31-0.27,0.36,0.48,0.19,0.22c-0.12-0.18-0.24-0.34-0.33-0.53
				c0.11,0.21,0.21,0.42,0.32,0.63c-0.1-0.21-0.17-0.42-0.21-0.65c0.05,0.24,0.1,0.48,0.15,0.71c-0.02-0.12-0.03-0.23-0.04-0.35
				c-0.09-1.42-1.44-2.69-2.9-2.53c-1.47,0.17-2.63,1.38-2.53,2.9c0.21,3.18,3.08,5.26,6.09,5.36c2.75,0.09,5.22-1.99,6.31-4.38
				c1.27-2.78,0.93-5.78,0.19-8.65c-0.56-2.18-1.45-4.6-3.31-6.02c-1.25-0.95-2.76-1.51-4.35-1.34c-1.57,0.16-2.99,0.84-4.16,1.88
				c-1.98,1.76-3.05,4.31-4.17,6.67c-1.15,2.42-2.21,4.95-2.78,7.58c-0.56,2.57-0.58,5.18-0.03,7.75c0.53,2.47,1.79,4.77,3.63,6.5
				c1.63,1.54,3.78,2.55,5.97,3.01c4.39,0.93,9.17-0.27,12.64-3.11c3.57-2.93,5.96-7.08,6.84-11.61c0.94-4.88,0.06-10.04-2.01-14.51
				c-1.1-2.37-2.43-4.61-4.06-6.65c-1.48-1.86-3.12-3.64-5.03-5.06c-2.09-1.55-4.41-2.77-6.96-3.31c-2.5-0.53-5.21-0.43-7.62,0.42
				c-1.14,0.4-2.26,0.99-3.22,1.73c-1.12,0.87-1.63,2.55-0.72,3.78C186.04,86.6,187.78,87.12,188.98,86.19L188.98,86.19z"/>
		</g>
		<g>
			<path class="st3" d="M33.97,144.18c2.63-10.03,5.28-20.06,8.35-29.97c3.01-9.75,6.36-19.19,10.65-28.66
				c2.1-4.63,4.39-9.18,6.91-13.6c2.59-4.53,5.12-8.45,8.15-12.55c3.03-4.08,6.31-7.98,9.86-11.62c3.62-3.72,7.03-6.74,11.13-9.91
				c4-3.09,8.22-5.91,12.6-8.44c4.42-2.55,8.55-4.57,13.39-6.54c4.68-1.91,9.49-3.5,14.39-4.75c1.24-0.32,2.48-0.61,3.72-0.89
				c0.29-0.06,0.58-0.12,0.86-0.19c-0.01,0,0.46-0.1,0.22-0.05c-0.24,0.05,0.23-0.05,0.22-0.04c0.67-0.13,1.35-0.26,2.03-0.39
				c2.66-0.48,5.34-0.86,8.02-1.14c5.49-0.56,11.23-0.69,16.51-0.18c2.83,0.27,5.64,0.7,8.41,1.3c1.39,0.3,2.76,0.65,4.13,1.04
				c0.63,0.18,1.26,0.37,1.88,0.57c0.71,0.23,0.85,0.28,1.6,0.55c2.22,0.82,4.39,1.77,6.49,2.86c1.07,0.56,2.12,1.15,3.16,1.77
				c0.52,0.31,1.03,0.63,1.53,0.96c0.12,0.08,0.23,0.15,0.35,0.23c-0.05-0.03-0.26-0.17,0,0c0.27,0.18,0.53,0.37,0.8,0.55
				c1.96,1.39,3.82,2.91,5.57,4.56c0.87,0.82,1.7,1.68,2.51,2.57c0.31,0.34-0.02-0.04,0.27,0.31c0.18,0.21,0.36,0.42,0.53,0.63
				c0.38,0.46,0.75,0.93,1.12,1.4c1.46,1.9,2.76,3.92,3.87,6.04c0.07,0.13,0.13,0.25,0.2,0.38c-0.03-0.06-0.14-0.28,0,0.01
				c0.14,0.3,0.29,0.6,0.42,0.9c0.26,0.56,0.5,1.13,0.73,1.7c0.46,1.14,0.86,2.31,1.21,3.49c0.16,0.55,0.31,1.1,0.45,1.65
				c0.08,0.32,0.15,0.65,0.23,0.97c0,0,0.1,0.46,0.05,0.2c-0.05-0.22,0.06,0.29,0.07,0.34c0.23,1.21,0.4,2.43,0.51,3.66
				c0.11,1.22,0.17,2.45,0.16,3.68c0,0.57-0.02,1.13-0.05,1.7c-0.01,0.14-0.01,0.28-0.02,0.42c0-0.06,0.03-0.35,0-0.02
				c-0.03,0.33-0.06,0.66-0.09,0.98c-0.26,2.43-0.77,4.83-1.53,7.14c0.11-0.34-0.11,0.3-0.14,0.39c-0.11,0.31-0.23,0.61-0.35,0.92
				c-0.23,0.57-0.47,1.12-0.73,1.68c-0.45,0.95-0.97,1.84-1.47,2.76c-1.14,2.09-2.18,4.24-3.27,6.36c-0.36,0.69-0.71,1.38-1.07,2.07
				c-0.67,1.31-0.07,3,1.23,3.65c1.34,0.66,2.97,0.08,3.65-1.23c1.08-2.1,2.16-4.2,3.25-6.31c1.6-3.11,3.27-6.12,4.34-9.47
				c3.2-9.98,1.79-21.19-2.92-30.45c-4.58-9.01-12.31-16.15-21.13-20.95c-9.96-5.42-21.34-7.63-32.6-7.72
				c-11.03-0.09-22.14,1.85-32.64,5.17c-10.04,3.18-19.67,7.78-28.49,13.55c-8.81,5.76-16.87,12.76-23.76,20.72
				C62.48,57,56.68,65.97,51.83,75.38c-4.89,9.5-8.8,19.46-12.21,29.58c-3.4,10.08-6.27,20.33-9,30.61
				c-0.67,2.51-1.33,5.02-1.98,7.53c-0.36,1.38,0.73,2.99,2.13,3.21C32.29,146.54,33.59,145.65,33.97,144.18L33.97,144.18z"/>
		</g>
		<g>
			<path class="st3" d="M33.36,145.42c7-8.04,13.74-16.3,20.63-24.43c1.88-2.22,3.76-4.43,5.67-6.62c0.94-1.07,0.88-2.92-0.26-3.84
				c-1.15-0.92-2.84-0.88-3.84,0.26c-7,8.04-13.74,16.3-20.63,24.43c-1.88,2.22-3.76,4.43-5.67,6.62c-0.94,1.07-0.88,2.92,0.26,3.84
				C30.67,146.61,32.36,146.57,33.36,145.42L33.36,145.42z"/>
		</g>
	</g>
</g>
<g>
	<path class="st4" d="M207.71,182.02c0-6.58-2.68-11.22-8.04-13.92c3.95-1.42,7.11-3.8,9.47-7.14c2.36-3.33,3.54-7.09,3.54-11.28
		c0-4.85-1.57-8.59-4.7-11.21c-3.13-2.62-7.59-3.93-13.36-3.93h-17.84h-1.19c-1.93,0-3.57,0.63-4.92,1.89
		c-1.35,1.26-2.02,2.8-2.02,4.62c0,2.91,1.64,4.37,4.92,4.37h1.19h4.96l-20.74,52.75h-15.33c-5.48,0-9.81,0.95-13,2.87
		c-2.46,1.48-4.41,3.57-5.84,6.25c-1.43,2.68-2.15,5.59-2.15,8.71c0,4.88,1.68,8.9,5.03,12.05c3.35,3.15,7.59,4.73,12.72,4.73
		c6.27,0,11.85-2.32,16.74-6.96c1.85-1.76,3.35-3.61,4.53-5.55c1.17-1.94,2.78-5.26,4.83-9.96l0.53-1.27h6.46
		c9.87,0,17.25-1.64,22.14-4.91c3.63-2.43,6.55-5.66,8.77-9.71C206.61,190.37,207.71,186.24,207.71,182.02z M148.71,218.2
		c-2.4,2.2-4.94,3.3-7.6,3.3c-1.79,0-3.3-0.59-4.55-1.77c-1.25-1.18-1.87-2.62-1.87-4.32c0-4.24,2.87-6.37,8.61-6.37h11.42
		C153.12,212.95,151.11,216,148.71,218.2z M194.25,188.93c-1.3,2.49-2.99,4.44-5.07,5.87c-3.25,2.24-8.01,3.37-14.28,3.37h-3.56
		l9.71-24.83h3.65c4.25,0,7.23,0.61,8.94,1.82c1.71,1.21,2.57,3.31,2.57,6.28C196.2,183.95,195.55,186.45,194.25,188.93z
		 M197.26,159.46c-2.11,1.97-5.21,2.96-9.31,2.96l-2.64,0.05l6.72-17.05h0.66c2.66,0,4.42,0.17,5.27,0.5c2.14,0.82,3.21,2.49,3.21,5
		c0,1.39-0.37,2.91-1.12,4.55C199.3,157.1,198.37,158.43,197.26,159.46z"/>
	<path class="st4" d="M211.82,178.08c1.56,1.52,3.83,2.29,6.81,2.29h14.41c0.22,0,0.41-0.02,0.61-0.04
		c0.19,0.01,0.37,0.04,0.57,0.04h17.21c0.28,0,0.53-0.02,0.79-0.05c0.24,0.02,0.47,0.05,0.73,0.05h20.45h3.16h4.86
		c1.51,0,2.69-0.33,3.53-1c0.84-0.66,1.26-1.59,1.26-2.79c0-1.74-1.19-2.61-3.57-2.61h-4.89h-3.52c-2.13,0-3.2-0.73-3.2-2.2h5.66
		c2.28,0,4-0.36,5.16-1.08c2.08-1.27,3.12-3.23,3.12-5.86c0-2.19-0.75-3.95-2.25-5.29c-1.5-1.34-3.49-2.01-5.96-2.01
		c-3.4,0-6.33,1.37-8.79,4.1c-2.46,2.74-3.7,5.99-3.7,9.76c0,0.93,0.09,1.79,0.25,2.58h-8.46l3.8-9.65h2.07c1.49,0,2.66-0.33,3.51-1
		c0.85-0.66,1.27-1.59,1.27-2.79c0-1.74-1.2-2.61-3.6-2.61h-0.88l1.05-2.32c0.49-1.13,0.74-2.07,0.74-2.81
		c0-0.76-0.28-1.41-0.84-1.95c-0.56-0.54-1.22-0.81-2-0.81c-1.91,0-3.3,1.08-4.19,3.25l-0.31,0.79l-1.5,3.84h-1.3
		c-1.51,0-2.69,0.34-3.53,1.01c-0.84,0.67-1.26,1.62-1.26,2.83c0,1.7,1.06,2.55,3.17,2.55h0.43l-3.34,8.53l-0.47,1.11H237.3
		l3.8-9.65h2.07c1.49,0,2.66-0.33,3.51-1c0.85-0.66,1.27-1.59,1.27-2.79c0-1.74-1.2-2.61-3.6-2.61h-0.88l1.05-2.32
		c0.49-1.13,0.74-2.07,0.74-2.81c0-0.76-0.28-1.41-0.84-1.95c-0.56-0.54-1.22-0.81-2-0.81c-1.91,0-3.3,1.08-4.19,3.25l-0.31,0.79
		l-1.5,3.84h-1.3c-1.51,0-2.69,0.34-3.53,1.01c-0.84,0.67-1.26,1.62-1.26,2.83c0,1.7,1.06,2.55,3.17,2.55h0.43l-3.34,8.53
		l-0.47,1.11h-10.67c-2.13,0-3.2-0.73-3.2-2.2h5.66c2.28,0,4-0.36,5.16-1.08c2.08-1.27,3.12-3.23,3.12-5.86
		c0-2.19-0.75-3.95-2.25-5.29c-1.5-1.34-3.49-2.01-5.96-2.01c-3.4,0-6.33,1.37-8.79,4.1c-2.46,2.74-3.7,5.99-3.7,9.76
		C209.48,174.33,210.26,176.56,211.82,178.08z M276.48,163.51c1.25,0,1.9,0.52,1.95,1.55c0.06,0.92-0.93,1.38-2.95,1.38h-3.12
		C273.37,164.49,274.74,163.51,276.48,163.51z M221.72,163.51c1.25,0,1.9,0.52,1.95,1.55c0.06,0.92-0.93,1.38-2.95,1.38h-3.12
		C218.61,164.49,219.98,163.51,221.72,163.51z"/>
	<path class="st4" d="M325,183.63h-0.88l1.05-2.32c0.49-1.13,0.74-2.07,0.74-2.81c0-0.76-0.28-1.41-0.84-1.95
		c-0.56-0.54-1.22-0.81-2-0.81c-1.91,0-3.3,1.08-4.19,3.25l-0.31,0.79l-1.5,3.84h-1.3c-1.51,0-2.69,0.34-3.53,1.01
		c-0.84,0.67-1.26,1.62-1.26,2.83c0,1.7,1.06,2.55,3.17,2.55h0.43l-3.34,8.53l-0.47,1.11h-6.01l4.08-10.44l0.31-0.79
		c0.3-0.76,0.45-1.42,0.45-1.96c0-0.8-0.28-1.48-0.84-2.02c-0.56-0.55-1.25-0.82-2.08-0.82c-1.53,0-2.77,0.73-3.71,2.2
		c-1.11-1.74-2.88-2.61-5.3-2.61c-3.15,0-5.98,1.48-8.48,4.44c-2.5,2.96-3.75,6.32-3.75,10.07c0,0.68,0.05,1.32,0.15,1.94h-13.24
		c-2.13,0-3.2-0.73-3.2-2.2h5.66c2.28,0,4-0.36,5.16-1.08c2.08-1.27,3.12-3.23,3.12-5.86c0-2.19-0.75-3.95-2.25-5.29
		c-1.5-1.34-3.49-2.01-5.96-2.01c-3.4,0-6.33,1.37-8.79,4.1c-2.46,2.74-3.7,5.99-3.7,9.76c0,2.93,0.78,5.16,2.34,6.68
		c1.56,1.52,3.83,2.29,6.81,2.29h14.41c1.34,0,2.4-0.28,3.21-0.8c0.94,0.53,2.02,0.8,3.23,0.8h3.23c1.32,0,2.69-0.65,4.11-1.96
		c0.59,1.31,1.69,1.96,3.31,1.96h10.66c0.21,0,0.4-0.02,0.6-0.04c0.19,0.01,0.37,0.04,0.57,0.04h5.07c1.51,0,2.69-0.33,3.53-1
		c0.84-0.66,1.26-1.59,1.26-2.79c0-1.74-1.2-2.61-3.6-2.61h-3.17l3.8-9.65h2.07c1.49,0,2.66-0.33,3.51-1
		c0.85-0.66,1.27-1.59,1.27-2.79C328.6,184.5,327.4,183.63,325,183.63z M274.61,189.2c1.25,0,1.9,0.52,1.95,1.55
		c0.06,0.92-0.93,1.38-2.95,1.38h-3.12C271.51,190.18,272.88,189.2,274.61,189.2z M300.25,192.78l-1.98,5.07
		c-0.51,1.31-1.54,1.96-3.09,1.96h-0.71c-1.57,0-2.35-1.01-2.35-3.02c0-1.78,0.65-3.5,1.95-5.16c1.3-1.66,2.64-2.49,4.02-2.49
		c0.7,0,1.3,0.2,1.8,0.59c0.5,0.39,0.75,0.85,0.75,1.38C300.64,191.56,300.51,192.12,300.25,192.78z"/>
	<path class="st4" d="M222.74,211.27c-1.22-1.55-2.82-2.33-4.8-2.33c-1.91,0-3.52,0.72-4.84,2.17c-0.7-1.17-1.64-1.76-2.83-1.76
		c-1.72,0-2.93,0.88-3.63,2.64l-13.65,34.83c-0.47,1.23-0.71,2.15-0.71,2.76c0,0.72,0.27,1.34,0.81,1.86
		c0.54,0.52,1.19,0.78,1.94,0.78c1.96,0,3.46-1.3,4.48-3.9l7.39-18.82c0.77,0.98,1.52,1.6,2.25,1.88c0.73,0.27,2.05,0.41,3.98,0.41
		c1.79,0,3.19-0.19,4.19-0.56c1-0.37,1.97-1.06,2.92-2.05c2.89-3.03,4.33-6.95,4.33-11.76
		C224.57,214.87,223.96,212.82,222.74,211.27z M215.73,224.01c-0.76,1.04-1.8,1.55-3.14,1.55c-0.93,0-1.6-0.13-2.03-0.38
		c-0.43-0.25-0.87-0.81-1.35-1.67l1.87-4.72c0.06-0.18,0.13-0.39,0.23-0.65c0.83-2.29,2.2-3.43,4.11-3.43
		c1.74,0,2.61,0.95,2.61,2.84C218.02,219.76,217.26,221.91,215.73,224.01z"/>
	<path class="st4" d="M303.12,225.38h-3.12l4.08-10.44l0.31-0.79c0.3-0.76,0.45-1.42,0.45-1.96c0-0.8-0.28-1.48-0.84-2.02
		c-0.56-0.55-1.25-0.82-2.08-0.82c-1.53,0-2.77,0.73-3.71,2.2c-1.11-1.74-2.88-2.61-5.3-2.61c-3.15,0-5.98,1.48-8.48,4.44
		c-2.5,2.96-3.75,6.32-3.75,10.07c0,0.68,0.05,1.32,0.15,1.94h-11.61l8.98-8.97c1.19-1.21,1.78-2.41,1.78-3.61
		c0-2.31-1.31-3.46-3.94-3.46h-8.81h-0.71c-1.17,0-2.16,0.38-2.97,1.13c-0.81,0.75-1.22,1.68-1.22,2.77c0,1.76,1.03,2.64,3.09,2.64
		h0.71l3.14-0.12l-9.26,9.24c-0.13,0.13-0.25,0.26-0.36,0.38h-9.87l8.98-8.97c1.19-1.21,1.78-2.41,1.78-3.61
		c0-2.31-1.31-3.46-3.94-3.46h-8.81h-0.71c-1.17,0-2.16,0.38-2.97,1.13c-0.81,0.75-1.22,1.68-1.22,2.77c0,1.76,1.03,2.64,3.09,2.64
		h0.71l3.14-0.12l-9.26,9.24c-0.13,0.13-0.25,0.26-0.36,0.38h-8.85l4.05-10.38c0.51-1.29,0.76-2.25,0.76-2.87
		c0-0.76-0.29-1.42-0.86-1.96c-0.58-0.55-1.26-0.82-2.05-0.82c-1.93,0-3.32,1.1-4.19,3.31l-0.31,0.82l-4.67,11.9
		c-0.4,1-0.59,1.82-0.59,2.46c0,1.21,0.48,2.17,1.43,2.87c0.95,0.7,2.26,1.06,3.92,1.06h13.65h0.44h19h0.15h20.08
		c1.09,0,2.01-0.18,2.75-0.53c0.81,0.35,1.7,0.53,2.7,0.53h3.23c1.32,0,2.69-0.65,4.11-1.96c0.59,1.31,1.69,1.96,3.31,1.96h3.63
		c1.49,0,2.66-0.34,3.51-1.01c0.85-0.67,1.27-1.61,1.27-2.8C306.69,226.24,305.5,225.38,303.12,225.38z M295.5,218.49l-1.98,5.07
		c-0.51,1.31-1.54,1.96-3.09,1.96h-0.71c-1.57,0-2.35-1.01-2.35-3.02c0-1.78,0.65-3.5,1.95-5.16c1.3-1.66,2.64-2.49,4.02-2.49
		c0.7,0,1.3,0.2,1.8,0.59c0.5,0.39,0.75,0.85,0.75,1.38C295.9,217.27,295.77,217.83,295.5,218.49z"/>
	<path class="st4" d="M232.33,201.18c-0.76,0.79-1.15,1.75-1.15,2.89c0,1.13,0.38,2.1,1.15,2.89c0.77,0.79,1.7,1.19,2.79,1.19
		c1.09,0,2.03-0.4,2.79-1.19c0.77-0.79,1.15-1.75,1.15-2.89c0-1.13-0.38-2.1-1.15-2.89c-0.76-0.79-1.7-1.19-2.79-1.19
		C234.03,199.99,233.1,200.39,232.33,201.18z"/>
	<path class="st4" d="M222.74,211.27c-1.22-1.55-2.82-2.33-4.8-2.33c-1.91,0-3.52,0.72-4.84,2.17c-0.7-1.17-1.64-1.76-2.83-1.76
		c-1.72,0-2.93,0.88-3.63,2.64l-13.65,34.83c-0.47,1.23-0.71,2.15-0.71,2.76c0,0.72,0.27,1.34,0.81,1.86
		c0.54,0.52,1.19,0.78,1.94,0.78c1.96,0,3.46-1.3,4.48-3.9l7.39-18.82c0.77,0.98,1.52,1.6,2.25,1.88c0.73,0.27,2.05,0.41,3.98,0.41
		c1.79,0,3.19-0.19,4.19-0.56c1-0.37,1.97-1.06,2.92-2.05c2.89-3.03,4.33-6.95,4.33-11.76
		C224.57,214.87,223.96,212.82,222.74,211.27z M215.73,224.01c-0.76,1.04-1.8,1.55-3.14,1.55c-0.93,0-1.6-0.13-2.03-0.38
		c-0.43-0.25-0.87-0.81-1.35-1.67l1.87-4.72c0.06-0.18,0.13-0.39,0.23-0.65c0.83-2.29,2.2-3.43,4.11-3.43
		c1.74,0,2.61,0.95,2.61,2.84C218.02,219.76,217.26,221.91,215.73,224.01z"/>
	<path class="st4" d="M288.71,170.11c1.4,0,2.53-1.09,3.4-3.28l0.96-2.46h2.95c-1.62,1.88-2.76,3.46-3.4,4.75
		c-0.64,1.29-0.96,2.62-0.96,3.99c0,2.15,0.6,3.9,1.8,5.25c1.2,1.35,2.74,2.02,4.63,2.02h5.55c1.51,0,2.69-0.33,3.53-1
		c0.84-0.66,1.26-1.6,1.26-2.81c0-1.72-1.2-2.58-3.6-2.58h-3.57c-1.74,0-2.61-0.81-2.61-2.43c0-1.62,1.5-3.92,4.5-6.89l0.31-0.29
		c3.13,0,4.7-1.24,4.7-3.72c0-1.8-1.24-2.7-3.71-2.7h-6.63c-0.89,0-1.44-0.06-1.67-0.18c-0.23-0.12-0.4-0.41-0.51-0.88l-0.23-0.91
		c-0.32-1.37-1.18-2.05-2.58-2.05c-1.42,0-2.51,0.99-3.29,2.96l-3.2,8.18c-0.42,1.08-0.62,1.84-0.62,2.29
		c0,0.78,0.28,1.44,0.85,1.96C287.15,169.84,287.86,170.11,288.71,170.11z"/>
</g>
</svg>
