<?xml version="1.0" encoding="UTF-8"?>
<svg id="Capa_1" data-name="Capa 1" xmlns="http://www.w3.org/2000/svg" viewBox="0 0 273.33 110.85">
  <defs>
    <style>
      .cls-1, .cls-2 {
        stroke-width: 0px;
      }

      .cls-2 {
        fill: #fff;
      }
    </style>
  </defs>
  <g>
    <g>
      <path class="cls-1" d="m88.76,24.61c4.71,2.04,8.74,3.78,8.74,8.61,0,.37,0,.81-.06,1.18-2.79,6.38-6.13,12.7-11.22,18.09-.31.06-.56.06-.81.06-4.34,0-8.3-3.53-12.02-3.53-1.86,0-3.22,1.18-3.84,1.98l-.68.93-.93-.68,3.53-4.77c.93-1.24,2.54-4.09,5.39-4.09,3.66,0,7.56,3.59,11.46,3.59,2.04,0,2.6-1.36,3.28-2.73,0-5.95-7.93-5.82-12.33-6.63-1.98,1.98-6.32,4.83-9.36,4.83-.62,0-1.3-.5-1.3-1.3,0-.62.56-1.3,1.24-1.3.81,0,.93.74,1.55.74,2.42,0,4.77-1.49,6.51-3.16-2.48-.43-7.19-.56-8.43-3.47.25-2.91,1.49-5.51,3.22-7.93-1.3-.99-1.92-2.29-1.92-4.21,2.42-5.02,6.01-9.54,10.66-13.51,3.53.74,9.85,4.09,12.33,4.09,1.49,0,2.48-.99,2.85-1.43l.37-.56,1.05.62-9.29,14.56Zm-16.11,2.66c0,2.91,4.96,3.1,9.48,4.65l1.55-1.86c-3.66-1.18-7.06-2.66-10.16-4.28-.5.31-.87.93-.87,1.49Zm19.71-10.41c-.87.19-1.67.31-2.54.31-4.28,0-8.3-2.42-12.33-4.52-1.24,1.24-2.04,2.6-2.04,3.97,0,2.91,3.47,4.28,6.01,5.33l6.07,2.29,4.83-7.37Zm1.18,22.37c-.37-4.59-4.34-7.31-8.68-8.8l-1.55,1.8c6.75,2.17,9.11,5.45,9.11,8.86v.62c.43-.74.87-1.55,1.12-2.48Z"/>
      <path class="cls-1" d="m102.51,16.8c0-2.66-.93-4.83-2.66-5.58l.87-.81c1.8.62,3.1,1.55,4.28,3.28.87-2.29,3.22-4.71,5.76-5.27l.43.62c-2.17,1.8-2.73,3.97-2.73,7.75v10.66l7.62-6.63c2.54,2.11,4.34,4.65,5.7,7.44l-6.75,4.9c5.51,2.85,4.28,11.53,6.51,14.93l2.23-1.3.37.93-6.01,4.09c-5.27-2.29-2.48-14.13-7.5-15.18l-2.17,1.92v7.68c.56.25.99.43,2.04,1.24l1.43-.99.5.93-5.64,4.4c-3.22-1.92-4.4-2.97-6.32-3.41v-1.05c1.43-.43,2.04-2.35,2.04-3.66v-26.89Zm5.95,11.77v8.74l7.75-6.26c-.68-2.11-1.92-3.97-4.09-5.39l-3.66,2.91Z"/>
      <path class="cls-1" d="m125.81,25.48l4.83-4.65,5.39,4.59-2.11,2.48v17.72c.62.43,1.67,1.12,2.35,1.86l1.43-.99.5.93-5.64,4.4c-3.22-1.92-4.71-2.97-6.63-3.41v-1.05c1.42-.43,2.04-2.35,2.04-3.66v-16.05l-2.17-2.17Z"/>
      <path class="cls-1" d="m159.83,42.89c0,3.35.68,4.83,2.97,4.03l.19.93-6.2,4.03c-2.79-2.29-2.91-5.27-2.91-8.61v-15.31l-2.11-1.61-3.66,3.53v16.05l2.17,1.86-4.71,4.34-5.33-4.09,1.92-2.04v-16.92c0-1.92-1.12-3.78-3.1-2.85l-.37-.81,4.71-4.65c3.35.87,4.71,4.34,4.71,7.56l7.44-7.5c1.92,2.35,3.9,3.78,5.83,3.35l.31.81c-.93.37-1.86,1.55-1.86,2.85v15.06Z"/>
      <path class="cls-1" d="m185.79,42.89c0,3.35.68,4.83,2.97,4.03l.19.93-6.2,4.03c-2.79-2.29-2.91-5.27-2.91-8.61v-15.31l-2.11-1.61-3.66,3.53v16.05l2.17,1.86-4.71,4.34-5.33-4.09,1.92-2.04v-16.92c0-1.92-1.12-3.78-3.1-2.85l-.37-.81,4.71-4.65c3.35.87,4.71,4.34,4.71,7.56l7.44-7.5c1.92,2.35,3.9,3.78,5.83,3.35l.31.81c-.93.37-1.86,1.55-1.86,2.85v15.06Z"/>
      <path class="cls-1" d="m195.46,20.83c2.73.81,4.21,2.85,4.21,5.89,2.73-1.61,5.45-3.72,8.06-6.32,3.28,3.1,4.58,6.26,4.58,10.16,0,10.66-6.44,15.68-12.33,18.9-4.96,2.73-9.6,3.97-9.6,7.62,0,1.55,1.3,3.47,4.4,3.47,3.35,0,5.89-2.35,6.38-5.89,1.61-.12,2.66.87,2.97,2.04-1.05,2.73-5.08,5.02-9.54,5.02-3.28,0-5.45-2.35-5.39-5.02.06-3.84,4.52-5.58,4.52-15.37v-12.08c0-3.22-1.8-4.03-3.78-2.35l-.37-.74,5.89-5.33Zm4.21,18.22c0,4.65-.93,8.37-2.91,11.03,5.64-2.85,9.6-7.99,9.6-16.54,0-3.9-.74-6.63-2.48-8.3-1.18.93-3.04,2.11-4.21,2.73v11.09Z"/>
    </g>
    <rect class="cls-1" x="128.65" y="13.63" width="5.65" height="5.56" transform="translate(42.9 -82.13) rotate(40.94)"/>
  </g>
  <g>
    <path class="cls-1" d="m228.71,54.59c-1.92.92-3.84,1.84-5.84,2.8.66-1.37,1.53-2.55,2.57-3.6,1.03-1.04,2.13-2.02,3.26-3.09-1.5.73-2.95,1.38-4.79,1.08.37-.36.62-.67.93-.91,1.91-1.47,3.48-3.25,4.77-5.27.34-.53.53-1.16.8-1.77-.91,1.1-1.73,2.21-2.68,3.18-.96.98-2.02,1.88-3.27,2.43.33-.91.76-1.78.96-2.7.2-.92.16-1.89.1-2.91-.38.6-.76,1.2-1.2,1.88-.18-1.79-.62-3.5,0-5.25.5-1.4.97-2.82,1.37-4.25.16-.56.09-1.18,0-1.81-.12.19-.23.38-.4.67-.09-.66-.12-1.24-.25-1.81-.31-1.37-.82-2.65-1.42-3.93-2.7-5.77-2.05-11.33,1.48-16.55,2.46-3.64,6-5.93,10-7.57,3.79-1.56,7.77-2.35,11.79-2.99,2.15-.34,4.32-.63,6.24-1.8-.93,1.97-2.52,3.23-4.42,4.33.75.09,1.4.12,2.04.24,2.19.41,4,1.51,5.44,3.18.82.95,1.56,1.96,2.32,2.96,1.31,1.72,2.72,3.32,4.8,4.14.03.01.05.07.19.27h-3.82c.34.56.65,1.04.92,1.53,2.39,4.33,2.67,8.93,1.65,13.67-.59,2.75-1.25,5.5-1.87,8.21-.73-1.1-1.07-2.47-1.37-3.85-.57,2.56-1.1,5.11-.4,7.73-.07.04-.14.09-.22.13-.88-.83-1.75-1.66-2.62-2.48.02-.05-.03.02-.02.08.27,2.98-.49,5.79-1.45,8.57-.76,2.2-1.57,4.41-2.12,6.67-.31,1.29-.15,2.7-.2,4.05,0,.09.01.17,0,.26,0,.03-.05.06-.16.19-.93-1.33-1.5-2.78-2.01-4.42-.2,1.31-.34,2.48-.57,3.62-.41,2.03-1.26,3.9-2.25,5.71-.86,1.58-1.72,3.15-2.53,4.75-.78,1.54-1.28,3.17-1.43,4.9-1.2-.97-1.9-4.67-1.56-8.56-1.31,2.41-2.44,4.73-3.05,7.22-.61,2.48-.91,5.03-1.34,7.52-1.23-1.99-1.44-4.3-1.61-6.76-.21,1.46-.38,2.79-.59,4.11-.26,1.59-.77,3.1-1.54,4.52-.72,1.33-1.33,2.69-1.05,4.29-.86-.49-1.35-2.53-1.77-7.13-.11.32-.16.52-.24.71-.74,1.58-1.34,3.25-2.26,4.72-1.14,1.81-2.11,3.67-2.65,5.74-.06.21-.14.42-.22.63-.06-.01-.12-.02-.19-.04.11-2.44.21-4.89.33-7.44-1.12,2.52-3.19,4.42-3.83,7.11-.16.67-.3,1.34-.48,2.13-.38-1.09-.59-2.1-.6-3.16-.03-4.31,1.12-8.34,2.86-12.23.63-1.4,1.36-2.75,2.04-4.13.08-.17.16-.33.19-.53-1.98,2.42-4.78,4.15-5.92,7.26-.07-.03-.15-.07-.22-.1.15-.79.23-1.61.45-2.38,1.08-3.76,2.94-7.1,5.48-10.07.75-.88,1.46-1.79,2.12-2.74-2.06,1.75-4.12,3.5-6.05,5.14.85-4.4,3.04-8.23,6.76-11.18-2.67,1.69-5.99,2.28-8.13,5,.06-.41.06-.84.18-1.22.56-1.7,1.68-3.02,3.01-4.15,1.67-1.41,3.4-2.74,5.11-4.11.16-.13.31-.26.47-.39-.02-.03-.04-.06-.05-.09ZM252.13,1.38c-.94.32-1.76.68-2.61.87-3.06.68-6.14,1.24-9.19,1.97-4.01.96-7.81,2.47-11.04,5.1-4.97,4.06-7.42,9.24-6.72,15.74.12,1.12.37,2.23.95,3.23.03-.18.02-.35,0-.52-.34-1.95-.22-3.88.24-5.8,1.04-4.38,3.67-7.62,7.31-10.12,2.77-1.9,5.84-3.17,8.97-4.34,2.57-.96,5.15-1.91,7.68-2.97,1.66-.7,3.15-1.71,4.43-3.16Zm-9.51,47.49c-1.75,1.05-4.1,2.47-6.45,3.89-.2.12-.38.29-.54.46-2.14,2.4-3.79,5.09-4.91,8.11-1.2,3.25-.85,6.59-.71,9.95.71-1.1,1.31-2.27,2.13-3.26,1.26-1.53,2.19-3.21,2.86-5.06,1.53-4.18,3.8-7.88,6.93-11.09,2.16-2.22,4.19-4.56,6.26-6.85.3-.33.54-.71.81-1.07-3.26,3.03-6.49,6.09-9.56,9.28-3.58,3.72-6.46,7.91-7.8,13-.04.15-.16.29-.24.43-.06-.02-.11-.04-.17-.06.02-.21,0-.42.06-.61.51-1.54.91-3.12,1.57-4.59,1.66-3.65,4.19-6.7,6.96-9.55,1.11-1.15,2.19-2.33,2.79-2.98Zm-10.23,5.34c1.43-.82,2.86-1.66,4.31-2.48,5.05-2.85,9.66-6.24,13.5-10.64.72-.83,1.08-1.55.4-2.52-.02-.03-.05-.06-.11-.15-.04.07-.07.12-.1.18-1.43,2.42-3.31,4.46-5.54,6.14-3.01,2.26-6.12,4.39-9.19,6.57-.09.07-.21.09-.31.14.14-.28.34-.47.56-.64,2.21-1.67,4.44-3.32,6.64-5,2.8-2.14,5.39-4.5,7.31-7.49.19-.3.39-.65.43-1,.11-.86.14-1.72.2-2.61-.12.19-.23.37-.36.54-1.55,2.12-3.16,4.17-5.24,5.81-1.86,1.46-3.68,2.96-5.48,4.47-2.91,2.44-5.44,5.2-7.02,8.67Zm15.05-23.63c-1.38,1.91-3.11,3.43-4.91,4.89-1.61,1.31-3.22,2.62-4.81,3.95-1.7,1.41-2.51,3.43-3.6,5.17,1.75-.71,3.5-1.45,5.27-2.14,6.68-2.6,11.56-6.85,12.96-13.96-2.78,5.68-7.79,9.31-13.46,12.21,3.5-2.43,7.03-4.83,9.83-8.01-.45-.75-.85-1.41-1.27-2.11Zm-10.46,34.62c1.24-2.88,2.95-5.37,4.98-7.64,1.07-1.19,2.17-2.36,3.25-3.54,1.73-1.89,3.38-3.83,4.53-6.15.2-.4.34-.82.46-1.14-3.39,3.55-6.81,7.14-10.23,10.73.02-.19.09-.36.2-.5.69-.89,1.34-1.81,2.1-2.64,2.03-2.25,4.1-4.47,6.16-6.69,1.92-2.08,2.98-4.56,3.42-7.39-.14.23-.28.4-.35.6-.9,2.4-2.5,4.34-4.19,6.21-2.28,2.52-4.63,4.98-6.91,7.5-2.7,3-4.21,6.42-3.42,10.65Zm8.95-9.1c-3.88,4.76-7.38,9.75-8.87,15.87-.09-.17-.08-.3-.06-.42.63-3.24,1.77-6.3,3.53-9.08,1.61-2.54,3.43-4.94,5.16-7.4.34-.49.66-.99.99-1.49-1.86,1.79-3.6,3.65-5.31,5.55-1.98,2.21-3.28,4.82-4.34,7.56-1.3,3.34-1.05,6.81-.73,10.26.09.96.39,1.91.59,2.86.05-.01.11-.03.16-.04-.04-3.42.55-6.32,2.08-9.61,1.21-2.61,2.49-5.18,3.74-7.76,1.02-2.1,2.04-4.2,3.05-6.3Zm-3.29,14.12s-.1-.02-.15-.03c.02-.26,0-.53.08-.78.38-1.28.67-2.61,1.2-3.82,1.05-2.4,2.28-4.71,3.35-7.1,1.26-2.83,2.29-5.73,2.38-8.9-.48.7-.97,1.39-1.43,2.09-.09.14-.12.32-.17.49-.45,1.35-.81,2.74-1.38,4.05-1.1,2.52-2.35,4.96-3.47,7.47-1.48,3.33-1.67,6.72-.3,10.19.36-2.42,1.38-4.55,2.45-6.67,1.03-2.02,2.05-4.05,2.92-6.14.74-1.79,1.2-5.22,1.12-6.01-.9,2.03-1.85,4.37-2.96,6.64-1.33,2.72-2.76,5.39-3.53,8.35-.02.07-.09.13-.13.19Zm8.82-15.8c-.06,0-.12,0-.18,0,0-.71-.12-1.44.02-2.11.51-2.41,1.07-4.8,1.68-7.19.76-2.95,1.17-5.95,1.14-9.01-.44.89-.94,1.76-1.21,2.7-.81,2.85-1.51,5.72-2.26,8.59-.95,3.61-1.04,7.18.51,10.67.08.18.16.35.25.52.09-3.06.93-5.89,1.97-8.68,1.15-3.1,2.11-6.24,1.94-9.59-.03-.64-.24-1.27-.36-1.9-.07,0-.14.02-.22.02-.11,3.08-.91,6.01-1.77,8.94-.55,1.84-.93,3.73-1.36,5.6-.11.46-.1.96-.15,1.43Zm-22.21,14.52c-.08-.02-.15-.04-.23-.06-.43.72-.87,1.44-1.3,2.16-2.25,3.78-4.33,7.64-5.59,11.89-.82,2.74-1.27,5.53-1.19,8.41.51-1.96,1.73-3.51,2.77-5.17.81-1.29,1.55-2.69,1.98-4.14.89-3,2.07-5.87,3.36-8.71.43-.95.57-1.78.47-2.53-.87,1.8-1.78,3.87-2.86,5.86-1.68,3.1-3.41,6.17-4.59,9.52-.06.17-.16.33-.24.5-.08-.23-.06-.43-.02-.62.56-2.31,1.62-4.42,2.67-6.53,1.4-2.81,2.81-5.6,4.16-8.43.32-.66.41-1.43.6-2.15Zm27.12-51.86c.07.16.14.31.2.47,1.64,4.39,1.78,8.73-.48,12.98-2,3.75-1.28,7.93,1.21,10.91.14.17.32.31.48.47-.16-1.69-.08-3.3.3-4.89.43-1.83.89-3.63.8-5.55-.06-1.29.1-2.6.17-3.9-.67,1.82-1.28,3.64-1.75,5.5-.48,1.89-.4,3.83-.27,5.77-.23-.65-.41-1.31-.46-1.98-.15-2.21.21-4.34.85-6.46.55-1.84,1.1-3.7,1.39-5.58.44-2.92-.28-5.58-2.42-7.74Zm-24.66,68.3c.38-.9.78-1.78,1.11-2.69.53-1.48,1.13-2.95,1.49-4.47.36-1.51.45-3.08.67-4.62.34-2.35.59-4.72,1.48-6.96.11-.27.06-.6.09-.9-1.02,2.62-2.01,5.23-2.74,7.91-.74,2.69-1.22,5.45-1.84,8.32-.03-.3-.08-.5-.07-.69.04-.67.09-1.34.16-2.01.44-3.9,1.6-7.61,2.96-11.27.78-2.09,1.53-4.18,1.15-6.42.01-.02-.04.02-.07.08-2.08,5.35-4,10.74-4.78,16.46-.33,2.44-.29,4.87.39,7.25Zm23.3-72.44c-.2.84-.29,1.6.59,2.29.78.62,1.4,1.47,2.03,2.26,1.1,1.36,1.83,2.92,1.92,4.67.12,2.29.14,4.58.08,6.87-.05,2.31-.36,4.62.09,6.92.12.6.3,1.19.5,1.96.17-1.11.29-2.01.44-2.9.46-2.68,1.09-5.34,1.36-8.04.38-3.81-.63-7.38-2.53-10.69-.21-.36-.54-.66-.81-.99,1.12,1.87,1.81,3.85,2.2,5.96.56,3,.33,5.99-.17,8.97-.15.9-.2,1.82-.3,2.73-.16-.17-.23-.37-.22-.56.05-.78.07-1.56.18-2.33.42-2.96.47-5.91-.08-8.85-.65-3.47-2.13-6.42-5.3-8.28Zm-2.43,1.18c-.07.02-.14.04-.21.06,0,.6.06,1.2-.01,1.79-.23,2.03-1.27,3.74-2.23,5.49-.77,1.4-1.56,2.81-2.12,4.29-.79,2.05-.48,4.07.59,5.83.61-1.19,1.21-2.43,1.88-3.63.43-.77.97-1.48,1.47-2.22,1.95-2.9,2.47-6.07,1.87-9.45-.09.64-.15,1.3-.28,1.94-.35,1.76-1.27,3.24-2.35,4.65-.99,1.29-1.96,2.6-2.22,4.27,0,.04-.08.08-.2.19.03-.35.03-.6.07-.85.19-1.23.76-2.28,1.45-3.3.62-.91,1.25-1.82,1.77-2.79.81-1.49,1.23-3.1.99-4.81-.07-.5-.3-.97-.46-1.46Zm.33,17.73c.06-.19.12-.39.19-.57.39-1.01.78-2.02,1.17-3.02.96-2.45,1.5-4.97,1.1-7.61-.14-.92-.38-1.83-.58-2.74-.06.01-.12.02-.17.03,0,.11.02.21.01.32-.03,2.35.3,4.74-.41,7.03-.62,2.02-1.39,4-2.13,5.98-.8,2.15-1.44,4.33-1.21,6.52.53-.96,1.08-2.03,1.7-3.06.74-1.24,1.55-2.45,2.32-3.67,2.06-3.27,2.49-6.81,1.76-10.54-.33-1.68-.91-3.27-1.89-4.71.77,2.7,1.61,5.36,1.23,8.23-.38,2.85-1.58,5.36-3.09,7.83Zm-11.88,11.57c-3.44,1.97-6.39,4.61-9.53,7,1.34-1.42,2.72-2.81,4.21-4.06,1.51-1.25,3.13-2.36,4.67-3.51-2.17.59-4.09,1.59-5.73,3.27-1.82,1.87-3.9,3.48-5.83,5.24-1.47,1.34-2.87,2.74-4.3,4.13-.19.18-.31.43-.54.75.78-.37,1.43-.64,2.05-.97,1.79-.95,3.61-1.87,5.35-2.91.95-.57,1.95-1.23,2.62-2.09,1.72-2.23,3.76-4.12,5.9-5.92.37-.31.74-.62,1.12-.93Zm10.16-30.68c-.04.53-.02,1-.12,1.43-.32,1.36-.56,2.76-1.09,4.04-.44,1.05-1.18,2-1.91,2.89-.99,1.2-2.11,2.29-3.17,3.43-.11.11-.21.23-.31.35-.05-.03-.1-.07-.15-.1.27-.45.49-.94.82-1.34.68-.81,1.42-1.57,2.12-2.37.95-1.07,1.86-2.18,2.2-3.62.2-.87.22-1.73-.21-2.55.11,1.49-.52,2.7-1.41,3.8-.37.45-.75.89-1.13,1.34-1.2,1.4-2.36,2.82-2.99,4.59-.53,1.48-.61,2.98-.33,4.69.41-1.25,1.03-2.17,1.89-2.88,2.4-1.98,3.91-4.59,5.33-7.27.76-1.43,1.21-2.96,1.14-4.6-.03-.65-.1-1.29-.67-1.83Zm-24.34,71.94s-.09-.02-.14-.03c.21-.84.33-1.72.65-2.52,1.8-4.56,3.64-9.11,5.46-13.66.06-.16.12-.32.23-.62-3.68,3.89-8.18,16.61-7.46,20.65.62-1.02,1.23-2.2,1.99-3.27,2.55-3.61,3.15-7.85,3.88-12.06-1.54,3.84-3.07,7.67-4.61,11.51ZM249.4,5.41c2.41.51,4.21,1.98,5.8,3.73,1.26,1.4,2.42,2.9,3.62,4.36-.57-.37-1.12-.8-1.59-1.31-.94-1.02-1.81-2.1-2.74-3.12-1.53-1.67-3.32-2.9-5.61-3.25-.87-.14-1.73-.21-2.73.25,2.98.04,5.21,1.21,6.94,3.39.35.44.71.87,1.04,1.32,1.23,1.64,2.76,2.92,4.61,3.81,1.17.56,2.39.79,3.87.68-2.28-.96-3.63-2.7-4.98-4.45-.69-.89-1.39-1.78-2.15-2.59-1.64-1.74-3.7-2.61-6.07-2.83Zm-11.21,32.58c-.23.12-.46.23-.68.35-2.57,1.4-4.51,3.46-6.21,5.79-1.16,1.59-2.31,3.19-3.58,4.69-.77.91-1.75,1.65-2.78,2.59,4.3-.93,7.44-3.37,10.13-6.53-.71.4-1.35.94-2.1,1.21-.58.21-.92.57-1.32.96-.63.62-1.28,1.23-1.97,1.78-.37.3-.84.47-1.27.7-.03-.18,0-.26.06-.29,1.67-1.08,2.82-2.65,4.08-4.14,1.96-2.3,3.2-5.18,5.64-7.1Zm9.3-25.19c-.23.6-.36,1.32-.74,1.86-.76,1.1-1.65,2.1-2.48,3.15-.86,1.08-1.79,2.12-2.54,3.27-.68,1.04-.84,2.47-.58,3.34.64-1.33,1.66-2.29,2.8-3.13.66-.49,1.35-.94,2-1.44,1.06-.82,1.89-1.85,2.47-3.05.42-.88.5-1.8.04-2.72-.02,1.37-.51,2.56-1.51,3.46-1.31,1.17-2.69,2.26-4.04,3.39.41-.67.9-1.29,1.46-1.83.74-.72,1.6-1.33,2.31-2.08,1.24-1.29,1.49-2.9.81-4.21Zm-16.07,42.55c-2.34,1.55-4.7,3.12-7.07,4.69-.03-.04-.07-.09-.1-.13.28-.26.55-.55.86-.78,1.01-.75,2.06-1.44,3.04-2.22,1.3-1.03,2.56-2.11,3.81-3.21.3-.27.47-.68.76-1.11-.18.03-.23.03-.26.05-2.98,2.33-6.01,4.61-8.93,7.01-1,.82-1.73,1.97-2.57,2.98-.09.11-.11.27-.12.29,1.16-.69,2.36-1.41,3.57-2.12,2.22-1.3,4.49-2.52,6.64-3.92,1.04-.68,1.86-1.72,2.78-2.6-.06-.06-.12-.12-.17-.19-.75.57-1.49,1.15-2.31,1.78.04-.25.07-.43.09-.53Zm-.75,4.8l-.18-.13c-.71.76-1.41,1.52-2.13,2.27-.74.76-1.49,1.51-2.24,2.26-.72.71-1.45,1.41-2.18,2.12-.04-.04-.08-.08-.11-.11,2.41-3.16,5.55-5.72,7.71-9.1-1.48,1.23-3,2.44-4.34,3.81-1.2,1.23-2.35,2.56-3.28,3.99-.79,1.21-1.23,2.64-1.82,3.98.77-.48,1.38-1.04,2.03-1.53,1.99-1.49,3.75-3.21,5.18-5.24.51-.73.91-1.54,1.36-2.31Zm-10.44,18.34c.76-.85,1.45-1.74,2.26-2.5,2.58-2.41,4.5-5.3,6.29-8.3.31-.52.41-1.17.61-1.76-.06-.02-.11-.04-.17-.06-2.33,3.86-5.84,8.57-6.83,9.08.21-.32.36-.58.53-.82,1.51-2.16,3.07-4.29,4.53-6.49.74-1.12,1.29-2.36,1.93-3.55-.05-.02-.1-.05-.15-.07-.85,1.17-1.69,2.35-2.56,3.5-1.03,1.36-2.12,2.68-3.14,4.06-1.55,2.09-2.55,4.44-3.32,6.9Zm26.95-49.37c-1.76,2.76-4.06,4.83-6.81,6.43.04-.21.16-.33.29-.44,1.16-1.04,2.33-2.06,3.46-3.12,1.95-1.81,3.23-3.97,3.19-6.6-.05.12-.17.38-.25.64-.94,2.91-2.6,5.32-5.09,7.1-1.65,1.19-3.39,2.25-5.05,3.41-.79.55-1.52,1.21-2.27,1.82.41.04.75,0,1.08-.1.56-.15,1.14-.29,1.67-.51,3.94-1.6,6.99-4.33,9.57-7.62.19-.24.14-.67.21-1.02Zm-20.5,3.86c-.13.01-.26.02-.39.03-.04.56-.1,1.13-.13,1.69-.03.67.09,1.37-.08,1.99-.37,1.35-.86,2.67-1.35,3.98-.47,1.27-.37,2.56-.24,3.92.53-.72.96-1.39,1.48-1.99,2.74-3.17,2.97-6.73,1.6-10.69.06,1.24.14,2.32.16,3.39.02,1.12-.23,2.19-.74,3.19-.47.93-.94,1.86-1.4,2.8-.07-.03-.14-.07-.2-.1.24-.55.45-1.11.72-1.64.77-1.55,1.18-3.16.94-4.89-.08-.57-.25-1.12-.39-1.69Zm2.42,9.75c-.09-.6-.15-1.03-.22-1.48-.37,1.11-.68,2.21-1.1,3.26-.41,1.04-.87,2.08-1.71,2.89.21-.61.49-1.17.75-1.75.25-.57.5-1.15.71-1.74.21-.61.41-1.23.55-1.86.13-.61.18-1.23.25-1.76-.56.79-1.18,1.59-1.71,2.45-.26.43-.48.94-.51,1.44-.1,1.39,0,2.8-.61,4.12,2.13-1.62,3.98-3.46,4.92-6,.3-.81.3-1.72.44-2.59l-.24-.07c-.48.99-.97,1.98-1.52,3.1Zm19.77-35.57c2.53,1.83,4.51,4.31,4.52,5.74-.95-1.65-1.87-3.22-3.36-4.34-1.5-1.12-3.15-1.79-5.04-1.8.07.09.17.11.26.14,2.03.62,4.04,1.39,5.15,3.33,1.06,1.84,2.32,3.49,3.79,4.92.06-.63.18-1.34.17-2.05,0-.45-.08-.99-.32-1.34-.63-.9-1.35-1.75-2.08-2.57-.81-.92-1.8-1.58-3.09-2.02Zm-12.79,18.07c-.09,0-.17,0-.26,0,.06,1.56-.47,2.97-1.07,4.37-.09.21-.15.45-.22.67-.38,1.22-.75,2.43-1.13,3.65l-.29-.06c.59-1.99,1.31-3.97.66-5.97-.37.92-.8,1.88-1.15,2.86-.14.4-.22.86-.18,1.28.07.7.25,1.39.39,2.08.12.6.27,1.19.4,1.78.07,0,.13-.01.2-.02.26-1.55,1.07-2.84,1.85-4.16.61-1.02.98-2.11.83-3.33-.05-.38.06-.78.06-1.16-.01-.67-.06-1.33-.09-2Zm-6.73,16.08c.76-1.45,1.61-2.79,2.19-4.24.42-1.04.57-2.21.67-3.33.08-.89-.15-1.79-.8-2.45-.93,2.36-.45,5.02-1.59,7.35.12-1.23.25-2.46.37-3.69-.07,0-.15-.02-.22-.02-.07.55-.14,1.1-.22,1.77-.3-.4-.52-.7-.76-1.02-.06.97-.21,1.89-.15,2.8.06.93.32,1.86.5,2.85Zm20.87-25.77c1.03-3.95-.24-6.25-3.57-7.5,1.45,1.01,2.49,2.22,2.74,3.99-1.18-2.4-2.93-4.06-5.67-4.41,1.9.64,3.09,1.95,3.82,3.79.26.66.68,1.32,1.2,1.79.73.66,1.44,1.25,1.48,2.35Zm-10.47,5.33c.39-.33.72-.74,1.14-.96,1.62-.84,2.68-2.23,3.68-3.67.2-.29.37-.65.41-1,.14-1.39-.33-2.62-1.04-3.78.02.23.11.44.17.65.49,1.55.5,3.1-.57,4.37-.86,1.02-1.96,1.85-2.95,2.77.19-.15.32-.39.49-.59.55-.67,1.12-1.32,1.68-1.98.88-1.05,1.24-2.25,1.03-3.75-.13,1.16-.32,2.17-.98,3.2-.15-.47-.25-.78-.31-.98-.58.82-1.16,1.69-1.81,2.52-.74.95-1.07,1.99-.95,3.2Zm-7.13,14.87c-.43,1.27-.97,2.45-1.23,3.7-.26,1.24-.24,2.54-.36,3.96.9-1.37,1.13-2.84,1.48-4.26l.23.05c-.08.77-.17,1.54-.25,2.31.04.03.09.06.13.09.46-.79.92-1.57,1.38-2.36-.66-.19-1.16-.33-1.67-.47l.04-.19c.23-.03.46-.06.69-.1.87-.15,1.29-.5,1.35-1.3.06-.95.01-1.91.01-2.86-.06-.01-.13-.02-.19-.04-.21.83-.42,1.67-.66,2.62-.31-.37-.61-.72-.96-1.14Zm3.42-1.32c1.49.13,2.93-.1,4.19-.85,2.58-1.52,4.54-3.65,5.78-6.4.1-.22.19-.44.29-.67-1.42,1.02-2.37,2.34-2.66,4.1-.07-.02-.13-.04-.2-.07-.15-.49-.31-.99-.48-1.53-1.61,2.77-3.96,4.48-6.93,5.41Zm4.71-26.12c3.31,1.1,4.62,3.6,4.82,6.91,1.14-1.58,1.8-3.19.74-4.98-.85-1.43-2.69-2.35-4.19-2.19,2,.59,3.47,1.66,3.74,3.87-.86-2.4-2.74-3.36-5.11-3.61Zm-10.42,20.52c-.32,1.27-.64,2.52-.95,3.77-.06,0-.12-.02-.17-.03-.04-1.42.65-2.82.29-4.23-1.59,2.3-1.79,4.64-.14,7.01.3-.65.59-1.27.87-1.9.48-1.08.75-2.21.6-3.4-.06-.47-.04-1.01-.49-1.23Zm-3.65,3.93c.1,0,.21.02.31.03.06-1.41.84-2.52,1.46-3.7.49-.94.73-1.94.68-3-.04-1.13-1.14-1.91-2.27-1.6,1.52,1.01,1.78,3.99.39,5.54.45-1.41.65-2.72.11-4.07-.29.42-.76.92-.68,1.3.24,1.06.06,2.06-.03,3.09-.07.8,0,1.61.02,2.41Zm13.51-3.44c1.97-1.45,2.28-2.02,2.91-4.19.35-1.22.96-2.36,1.42-3.46-.81.63-1.59,1.47-2.02,2.55-.43,1.07-.78,2.16-1.16,3.25-.07-.02-.14-.04-.21-.05.24-1.08.47-2.15.71-3.23-.03-.01-.05-.03-.08-.04-.23.42-.46.84-.74,1.35-.13-.38-.23-.68-.36-1.05-.76,1.61-.13,3.22-.48,4.88Zm-.34-.82c-1.19,1.38-2.2,2.72-2,4.64,2.22-1.26,4.06-2.81,4.9-5.31-.99.82-1.98,1.64-3.11,2.57.08-.75.14-1.29.21-1.91Zm-3.12,2.84c1.45-1.61,3.25-2.83,3.02-5.25-.82.61-1.62,1.15-1.74,2.31-.06.56-.47,1.08-.72,1.62-.07-.03-.13-.06-.2-.09.16-.58.34-1.15.46-1.73.12-.57.22-1.15.27-1.73.04-.58,0-1.17,0-1.75-.51,1.03-1.07,2.04-1.23,3.11-.17,1.09.06,2.23.13,3.51Zm-11.24-12.34c2.01-1.46,3.59-1.88,4.43-1.19-2.33.35-3.16.68-3.83,1.49.47-.07,1.05-.26,1.61-.2.92.09,1.75.02,2.52-.56.26-.19.63-.22.97-.33-.13-.74-.3-1.42-1.2-1.63-1.65-.39-3.89.8-4.5,2.41Zm4.02.68c.51.47.9.99,1.41,1.27.92.51,1.46,1.26,1.43,2.52-.3-.58-.47-1.05-.76-1.43-.19-.25-.56-.48-.85-.49-.34-.01-.69.23-1,.34.35.42.8.76.99,1.21.41.94,1.13,1.35,2.12,1.47,0-.37-.03-.73,0-1.09.1-1.18-.33-2.21-.95-3.17-.44-.69-1.36-.94-2.4-.64Zm2.33,11.39c1.46-2.52,1.99-4.82.8-5.82-.23,1.23-.46,2.49-.69,3.74-.06,0-.12-.02-.18-.02.01-.21.02-.41.03-.62.07-.97.14-1.94.22-2.91.03-.43-.13-.66-.57-.62-.08.58-.06,1.19-.25,1.73-.55,1.6,0,3.01.64,4.53Zm4.78-10.14c.51-2.88-.16-4.53-2.17-5.07.97,1.09,1.89,2.11,1.77,3.65-.39-.74-.71-1.47-1.13-2.13-.45-.7-1.05-.78-1.67-.39.28.47.71.91.82,1.42.3,1.34,1.11,2.13,2.37,2.51Zm-5.08-3.84c.05.61.47.84.89,1.07.89.49,1.44,1.24,1.66,2.22-1.9-2.31-1.99-1.98-3.62-1.42,1,.18,1.76.64,2.1,1.55.38,1.01,1.14,1.45,2.15,1.63,0-.11.02-.21.02-.32.02-1.39-.66-2.58-1.24-3.77-.34-.7-1.14-.92-1.96-.96Zm-3.28-1.14c.82.08,1.77,0,2.58.29,1.15.41,2.2.45,3.26-.09-.2-1.25-1.05-1.76-2.23-1.89-1.07-.12-2.09.01-3,.67,1.26-.46,2.46-.48,3.58.39-1.55-.45-2.97-.22-4.19.63Zm7.62-2.81c-1.77-.24-3.5-.24-5.14.42.73.13,1.48.29,2.25.38.57.07,1.17.14,1.73.05.94-.15,1.85-.34,2.72.39-.39-2.57-4.46-2.91-6.33-1.49,1.65-.31,3.24-.44,4.77.25Zm-11.31,9.91c.51-.39.99-.91,1.59-1.15.71-.28,1.51-.33,2.27-.44.61-.08,1.22-.1,1.83-.15-.7-1.16-1.59-1.85-2.9-1.75-1.31.1-2.11.92-2.8,2.14,1.87-1.52,2.43-1.75,3.44-1.42-1.83.19-2.8,1.3-3.43,2.75Zm8.94-11.87c2.54-.52,5.1-.07,6.27,3.1.27-.62.55-1.1.69-1.62.24-.88-.03-1.43-.82-1.9-1.1-.66-2.28-.94-3.67-.78,2.46.24,3.99,1.29,3.74,2.5-1.11-2.17-4.36-2.43-6.21-1.3Zm5.53,13.65c-.09-.02-.18-.05-.27-.07.19-.83.45-1.65.55-2.5.1-.83.02-1.68.02-2.52-1.4,2.14-.78,4.48-.84,6.73,1.83-1.4,2.07-3.46,2.25-5.59-1.02,1.14-1.28,2.58-1.71,3.95Zm2.14-12.25c-.25.5-.46,1.02-.75,1.48-.46.75-1,1.46-1.46,2.22-.41.67-.63,1.42-.53,2.29.92-.68,1.84-1.36,2.6-2.18.8-.86,1.21-1.91.81-3.12-.08,1.78-1.17,2.86-2.58,3.73,1.25-1.22,2.27-2.54,1.91-4.42Zm-7.63,10.02c-.86,2.39.65,4.21.95,6.42.83-2.03,1.25-3.92.35-5.86-.15-.32-.49-.56-.74-.84l-.17.13c.74,1.32.82,2.74.66,4.19-.2-.65-.27-1.33-.43-1.99-.16-.66-.39-1.3-.63-2.05Zm3.12,3.61c1.05-2.36,1.2-4.87.52-5.83-.39,1.3.29,2.66-.33,3.92-.07-.55-.06-1.09-.08-1.64-.04-1.02-.53-1.56-1.52-1.74-.51,1.99,1.04,3.42,1.41,5.29Zm1.2-16.87c2.89.75,4.43,2.73,5.08,5.54.31-1.68.62-3.35-.76-4.75-1.1-1.11-2.17-1.52-3.14-1.23,2.46.77,4,2.4,3.71,4.13-.74-2.56-2.46-3.63-4.89-3.7Zm-7.67,18.99c.06-.02.12-.03.19-.05.05-.32.1-.64.14-.96.1-.77.28-1.54.27-2.31-.01-1.69-1.26-2.95-2.86-2.9.57.44,1.09.84,1.61,1.26.81.64,1.08,1.75.6,2.67-.08-.51-.11-.99-.24-1.43-.27-.92-.62-1.02-1.42-.44.95.59,1.32,1.48,1.38,2.57.03.54.21,1.06.32,1.59Zm-4.44,3.78c-.07,0-.14.02-.2.02-.19-1.29-.37-2.59-.55-3.88-.38.33-.62.82-.49,1.37.34,1.39.74,2.76,1.14,4.23.71-2.07.51-4.14.64-6.18l-.36-.03c-.92,1.41,0,2.99-.17,4.46Zm23.36.02c1.72-2.04,3.03-4.3,3.89-6.83-1.38,2.23-3.49,4.04-3.89,6.83Zm-23.43-6.48c.03.06.07.13.1.19-.87.49-1.42,1.17-1.41,2.16,1.28-.48,2.16-1.42,2.84-2.64-.48-.38-1.05-.58-1.65-.41-.71.2-1.01.79-1.18,1.42.43-.24.86-.48,1.29-.72Zm28.64,7.96c-1.83,2-3.09,4.58-2.86,5.83,1.35-1.78,2.29-3.71,2.86-5.83Zm-19.31.44c1.8-.04,2.55-.89,2.36-2.62-.37.3-.72.58-1.2.96.04-.59.07-1,.09-1.42-.28,1.07-1.42,1.78-1.26,3.07Zm-10.23-10.04c.86-.61,1.68-1.17,2.75-.88-.9.24-1.8.48-2.42,1.18.61-.15,1.23-.32,1.85-.45.62-.12,1.24-.19,1.99-.31-1.78-1.69-3.33-1.49-4.17.45Zm9.93-8.94c1,1.02,2.59.78,3.35,2.03-.13-.62-.43-1.16-.56-1.74-.12-.54-.45-.81-.9-.89-.48-.08-.99-.02-1.56-.02.79.35,1.48.65,2.18.96-.03.06-.06.12-.08.18-.77-.17-1.55-.33-2.42-.52Zm4.35,3.66s-.05-.05-.08-.08c-.31.25-.63.5-1.05.83-.04-.42-.06-.75-.11-1.08-.06-.34-.1-.69-.24-1-.13-.27-.39-.48-.59-.72l-.09.1c.35,1.42.69,2.84,1.07,4.39.42-.93.76-1.69,1.1-2.45Zm-2.12-6.39c.71.68.93,1.51.95,2.47,0,.44.29.88.48,1.41,1.07-1.59,1.1-1.88.41-2.72.03.51.06,1.07.08,1.64-.07,0-.14.02-.21.02-.09-1.23-.48-2.28-1.71-2.82Zm-1.91,24.85c.07.04.13.07.2.11.43-.7.86-1.41,1.34-2.19-.64-.12-1.08-.2-1.54-.28v2.36Zm3.04-2.2c-.55.1-1.39-.2-1.28.86.44-.29.86-.58,1.28-.86Zm-3.73,4.79c.35-.27.68-.53,1.09-.85-.64.03-1.15.06-1.09.85Z"/>
    <path class="cls-2" d="m252.13,1.38c-1.28,1.45-2.77,2.47-4.43,3.16-2.53,1.06-5.11,2.01-7.68,2.97-3.13,1.17-6.2,2.43-8.97,4.34-3.64,2.5-6.27,5.74-7.31,10.12-.45,1.91-.58,3.85-.24,5.8.03.17.04.34,0,.52-.58-1-.83-2.11-.95-3.23-.7-6.49,1.75-11.68,6.72-15.74,3.23-2.64,7.03-4.14,11.04-5.1,3.05-.73,6.13-1.29,9.19-1.97.85-.19,1.67-.55,2.61-.87Z"/>
    <path class="cls-2" d="m242.62,48.87c-.61.65-1.68,1.83-2.79,2.98-2.77,2.86-5.31,5.9-6.96,9.55-.67,1.47-1.07,3.05-1.57,4.59-.06.19-.04.41-.06.61.06.02.11.04.17.06.08-.14.2-.28.24-.43,1.34-5.09,4.21-9.28,7.8-13,3.08-3.2,6.3-6.25,9.56-9.28-.27.36-.51.74-.81,1.07-2.08,2.29-4.11,4.64-6.26,6.85-3.12,3.2-5.4,6.9-6.93,11.09-.67,1.84-1.6,3.53-2.86,5.06-.81.99-1.42,2.15-2.13,3.26-.14-3.36-.49-6.7.71-9.95,1.12-3.02,2.76-5.72,4.91-8.11.16-.18.34-.34.54-.46,2.35-1.42,4.7-2.84,6.45-3.89Z"/>
    <path class="cls-2" d="m232.39,54.22c1.57-3.47,4.11-6.22,7.02-8.67,1.81-1.52,3.63-3.02,5.48-4.47,2.09-1.64,3.7-3.69,5.24-5.81.13-.17.24-.36.36-.54-.06.88-.09,1.75-.2,2.61-.05.35-.24.69-.43,1-1.93,2.99-4.51,5.35-7.31,7.49-2.2,1.68-4.43,3.33-6.64,5-.22.16-.42.36-.56.64.1-.05.22-.08.31-.14,3.07-2.18,6.18-4.3,9.19-6.57,2.22-1.67,4.1-3.72,5.54-6.14.03-.05.06-.11.1-.18.06.09.09.12.11.15.68.97.32,1.69-.4,2.52-3.84,4.4-8.45,7.79-13.5,10.64-1.45.82-2.88,1.66-4.31,2.48Z"/>
    <path class="cls-2" d="m247.43,30.58c.42.71.82,1.37,1.27,2.11-2.8,3.18-6.33,5.58-9.83,8.01,5.67-2.9,10.67-6.53,13.46-12.21-1.4,7.11-6.27,11.36-12.96,13.96-1.77.69-3.52,1.43-5.27,2.14,1.09-1.75,1.91-3.76,3.6-5.17,1.6-1.33,3.2-2.65,4.81-3.95,1.8-1.46,3.53-2.98,4.91-4.89Z"/>
    <path class="cls-2" d="m236.97,65.21c-.79-4.22.71-7.64,3.42-10.65,2.27-2.53,4.62-4.98,6.91-7.5,1.69-1.86,3.28-3.8,4.19-6.21.07-.2.21-.37.35-.6-.45,2.83-1.5,5.31-3.42,7.39-2.06,2.22-4.13,4.44-6.16,6.69-.75.83-1.4,1.76-2.1,2.64-.11.14-.18.3-.2.5,3.42-3.59,6.85-7.18,10.23-10.73-.13.31-.26.74-.46,1.14-1.15,2.32-2.8,4.26-4.53,6.15-1.08,1.18-2.18,2.35-3.25,3.54-2.04,2.27-3.75,4.75-4.98,7.64Z"/>
    <path class="cls-2" d="m245.92,56.1c-1.02,2.1-2.04,4.2-3.05,6.3-1.25,2.59-2.53,5.16-3.74,7.76-1.53,3.29-2.13,6.19-2.08,9.61-.05.01-.11.03-.16.04-.2-.95-.5-1.9-.59-2.86-.32-3.45-.57-6.92.73-10.26,1.07-2.74,2.37-5.35,4.34-7.56,1.7-1.9,3.45-3.76,5.31-5.55-.33.5-.65,1-.99,1.49-1.72,2.46-3.55,4.86-5.16,7.4-1.76,2.78-2.91,5.84-3.53,9.08-.02.12-.02.25.06.42,1.49-6.12,4.99-11.12,8.87-15.87Z"/>
    <path class="cls-2" d="m242.64,70.22c.04-.06.11-.12.13-.19.77-2.96,2.2-5.63,3.53-8.35,1.1-2.27,2.06-4.61,2.96-6.64.08.79-.38,4.22-1.12,6.01-.86,2.09-1.89,4.12-2.92,6.14-1.08,2.12-2.1,4.25-2.45,6.67-1.38-3.47-1.19-6.86.3-10.19,1.12-2.51,2.37-4.96,3.47-7.47.57-1.3.92-2.69,1.38-4.05.05-.16.08-.35.17-.49.46-.7.94-1.39,1.43-2.09-.09,3.17-1.11,6.08-2.38,8.9-1.07,2.39-2.3,4.7-3.35,7.1-.53,1.22-.82,2.54-1.2,3.82-.07.25-.06.52-.08.78.05,0,.1.02.15.03Z"/>
    <path class="cls-2" d="m251.46,54.42c.05-.48.04-.97.15-1.43.43-1.87.81-3.76,1.36-5.6.87-2.93,1.66-5.86,1.77-8.94.07,0,.14-.02.22-.02.12.63.33,1.26.36,1.9.17,3.36-.79,6.5-1.94,9.59-1.03,2.79-1.88,5.62-1.97,8.68-.08-.17-.17-.35-.25-.52-1.55-3.49-1.45-7.06-.51-10.67.75-2.86,1.46-5.74,2.26-8.59.27-.94.77-1.81,1.21-2.7.03,3.06-.38,6.05-1.14,9.01-.61,2.38-1.17,4.78-1.68,7.19-.14.68-.02,1.41-.02,2.11.06,0,.12,0,.18,0Z"/>
    <path class="cls-2" d="m229.25,68.94c-.2.72-.29,1.49-.6,2.15-1.35,2.83-2.76,5.63-4.16,8.43-1.05,2.11-2.11,4.22-2.67,6.53-.05.19-.07.39.02.62.08-.17.18-.33.24-.5,1.18-3.34,2.91-6.41,4.59-9.52,1.08-1.99,1.99-4.07,2.86-5.86.1.75-.04,1.58-.47,2.53-1.28,2.84-2.47,5.71-3.36,8.71-.43,1.45-1.17,2.85-1.98,4.14-1.04,1.67-2.26,3.22-2.77,5.17-.09-2.88.37-5.67,1.19-8.41,1.27-4.25,3.34-8.11,5.59-11.89.43-.72.87-1.44,1.3-2.16.08.02.15.04.23.06Z"/>
    <path class="cls-2" d="m256.37,17.09c2.15,2.16,2.87,4.82,2.42,7.74-.29,1.89-.84,3.75-1.39,5.58-.63,2.12-1,4.25-.85,6.46.05.67.23,1.33.46,1.98-.13-1.95-.21-3.89.27-5.77.48-1.86,1.09-3.68,1.75-5.5-.06,1.3-.23,2.61-.17,3.9.09,1.91-.37,3.72-.8,5.55-.38,1.59-.45,3.2-.3,4.89-.16-.16-.34-.3-.48-.47-2.5-2.98-3.22-7.16-1.21-10.91,2.27-4.25,2.13-8.59.48-12.98-.06-.16-.13-.31-.2-.47Z"/>
    <path class="cls-2" d="m231.72,85.39c-.67-2.37-.72-4.81-.39-7.25.78-5.72,2.7-11.12,4.78-16.46.02-.05.08-.09.07-.08.37,2.24-.38,4.33-1.15,6.42-1.36,3.66-2.52,7.37-2.96,11.27-.08.67-.12,1.34-.16,2.01-.01.19.04.39.07.69.62-2.87,1.1-5.63,1.84-8.32.73-2.68,1.73-5.29,2.74-7.91-.03.3.02.63-.09.9-.89,2.24-1.14,4.61-1.48,6.96-.23,1.54-.32,3.11-.67,4.62-.36,1.52-.95,2.99-1.49,4.47-.33.91-.74,1.79-1.11,2.69Z"/>
    <path class="cls-2" d="m255.01,12.94c3.17,1.86,4.65,4.81,5.3,8.28.55,2.94.49,5.89.08,8.85-.11.77-.13,1.55-.18,2.33-.01.19.05.38.22.56.1-.91.15-1.83.3-2.73.5-2.98.74-5.97.17-8.97-.39-2.1-1.08-4.09-2.2-5.96.27.33.6.63.81.99,1.9,3.31,2.91,6.88,2.53,10.69-.27,2.7-.9,5.36-1.36,8.04-.15.89-.27,1.79-.44,2.9-.2-.77-.38-1.36-.5-1.96-.45-2.3-.15-4.61-.09-6.92.05-2.29.04-4.58-.08-6.87-.09-1.75-.83-3.31-1.92-4.67-.64-.79-1.25-1.64-2.03-2.26-.87-.69-.79-1.45-.59-2.29Z"/>
    <path class="cls-2" d="m252.58,14.13c.16.49.39.96.46,1.46.24,1.71-.18,3.32-.99,4.81-.52.97-1.16,1.88-1.77,2.79-.69,1.01-1.26,2.07-1.45,3.3-.04.25-.04.5-.07.85.12-.11.19-.15.2-.19.26-1.67,1.22-2.98,2.22-4.27,1.08-1.4,2-2.88,2.35-4.65.13-.65.19-1.31.28-1.94.61,3.38.09,6.55-1.87,9.45-.5.74-1.04,1.45-1.47,2.22-.67,1.2-1.27,2.44-1.88,3.63-1.07-1.76-1.38-3.78-.59-5.83.57-1.48,1.35-2.89,2.12-4.29.96-1.75,2-3.46,2.23-5.49.07-.59.01-1.19.01-1.79.07-.02.14-.04.21-.06Z"/>
    <path class="cls-2" d="m252.92,31.85c1.51-2.47,2.72-4.98,3.09-7.83.38-2.87-.46-5.54-1.23-8.23.98,1.45,1.56,3.04,1.89,4.71.73,3.73.3,7.27-1.76,10.54-.77,1.23-1.58,2.43-2.32,3.67-.62,1.03-1.17,2.1-1.7,3.06-.23-2.19.41-4.37,1.21-6.52.74-1.98,1.5-3.96,2.13-5.98.71-2.29.38-4.68.41-7.03,0-.11,0-.21-.01-.32.06-.01.12-.02.17-.03.2.91.44,1.82.58,2.74.4,2.64-.13,5.16-1.1,7.61-.39,1.01-.78,2.01-1.17,3.02-.07.19-.13.38-.19.57Z"/>
    <path class="cls-2" d="m241.03,43.42c-.37.31-.75.62-1.12.93-2.14,1.8-4.17,3.69-5.9,5.92-.67.86-1.66,1.52-2.62,2.09-1.74,1.04-3.56,1.96-5.35,2.91-.63.33-1.28.61-2.05.97.23-.32.35-.57.54-.75,1.42-1.39,2.83-2.79,4.3-4.13,1.93-1.77,4.01-3.38,5.83-5.24,1.64-1.68,3.56-2.68,5.73-3.27-1.54,1.15-3.17,2.26-4.67,3.51-1.5,1.24-2.87,2.63-4.21,4.06,3.14-2.39,6.08-5.02,9.53-7Z"/>
    <path class="cls-2" d="m251.19,12.74c.57.53.64,1.18.67,1.83.08,1.64-.37,3.17-1.14,4.6-1.42,2.68-2.93,5.29-5.33,7.27-.86.71-1.48,1.63-1.89,2.88-.29-1.71-.2-3.22.33-4.69.63-1.77,1.79-3.19,2.99-4.59.38-.44.77-.88,1.13-1.34.89-1.11,1.52-2.32,1.41-3.8.43.82.42,1.68.21,2.55-.34,1.44-1.25,2.55-2.2,3.62-.7.79-1.45,1.55-2.12,2.37-.33.4-.55.89-.82,1.34.05.03.1.07.15.1.1-.12.21-.23.31-.35,1.06-1.14,2.18-2.23,3.17-3.43.74-.89,1.47-1.84,1.91-2.89.53-1.28.77-2.68,1.09-4.04.1-.44.08-.9.12-1.43Z"/>
    <path class="cls-2" d="m226.85,84.68c1.54-3.84,3.07-7.67,4.61-11.51-.72,4.21-1.33,8.45-3.88,12.06-.76,1.07-1.37,2.24-1.99,3.27-.71-4.04,3.79-16.76,7.46-20.65-.12.31-.17.47-.23.62-1.83,4.55-3.67,9.1-5.46,13.66-.31.8-.44,1.68-.65,2.52.05.01.09.02.14.03Z"/>
    <path class="cls-2" d="m249.4,5.41c2.36.22,4.43,1.09,6.07,2.83.77.82,1.47,1.7,2.15,2.59,1.35,1.75,2.7,3.49,4.98,4.45-1.48.11-2.7-.12-3.87-.68-1.85-.89-3.38-2.16-4.61-3.81-.34-.45-.7-.88-1.04-1.32-1.72-2.19-3.96-3.35-6.94-3.39.99-.46,1.86-.38,2.73-.25,2.29.36,4.09,1.59,5.61,3.25.93,1.02,1.81,2.1,2.74,3.12.47.51,1.02.93,1.59,1.31-1.2-1.46-2.35-2.96-3.62-4.36-1.58-1.76-3.39-3.23-5.8-3.73Z"/>
    <path class="cls-2" d="m238.19,37.99c-2.44,1.93-3.68,4.81-5.64,7.1-1.27,1.48-2.41,3.06-4.08,4.14-.06.04-.09.11-.06.29.43-.23.9-.4,1.27-.7.69-.55,1.34-1.16,1.97-1.78.4-.39.74-.75,1.32-.96.75-.27,1.4-.81,2.1-1.21-2.69,3.16-5.83,5.6-10.13,6.53,1.02-.94,2.01-1.67,2.78-2.59,1.27-1.5,2.42-3.1,3.58-4.69,1.7-2.33,3.64-4.4,6.21-5.79.22-.12.46-.23.68-.35Z"/>
    <path class="cls-2" d="m247.49,12.8c.68,1.3.43,2.92-.81,4.21-.72.75-1.57,1.36-2.31,2.08-.56.54-1.05,1.16-1.46,1.83,1.35-1.13,2.73-2.22,4.04-3.39,1.01-.9,1.49-2.08,1.51-3.46.46.92.39,1.84-.04,2.72-.58,1.2-1.41,2.23-2.47,3.05-.65.5-1.34.95-2,1.44-1.14.84-2.16,1.8-2.8,3.13-.25-.86-.1-2.3.58-3.34.75-1.15,1.68-2.19,2.54-3.27.83-1.05,1.72-2.05,2.48-3.15.38-.55.51-1.26.74-1.86Z"/>
    <path class="cls-2" d="m231.42,55.35c-.02.09-.05.27-.09.53.81-.63,1.56-1.2,2.31-1.78.06.06.12.12.17.19-.92.88-1.73,1.91-2.78,2.6-2.15,1.41-4.42,2.62-6.64,3.92-1.21.71-2.41,1.43-3.57,2.12,0-.02.03-.18.12-.29.84-1.01,1.58-2.15,2.57-2.98,2.92-2.41,5.94-4.69,8.93-7.01.03-.02.08-.02.26-.05-.29.43-.46.84-.76,1.11-1.25,1.1-2.51,2.18-3.81,3.21-.98.78-2.03,1.47-3.04,2.22-.31.23-.57.52-.86.78.03.04.07.09.1.13,2.37-1.57,4.74-3.14,7.07-4.69Z"/>
    <path class="cls-2" d="m230.67,60.15c-.45.77-.85,1.58-1.36,2.31-1.43,2.04-3.2,3.75-5.18,5.24-.65.49-1.26,1.05-2.03,1.53.59-1.33,1.04-2.77,1.82-3.98.93-1.44,2.08-2.77,3.28-3.99,1.34-1.37,2.85-2.57,4.34-3.81-2.16,3.38-5.29,5.93-7.71,9.1.04.04.08.08.11.11.73-.71,1.46-1.41,2.18-2.12.75-.75,1.51-1.49,2.24-2.26.72-.75,1.42-1.51,2.13-2.27l.18.13Z"/>
    <path class="cls-2" d="m220.23,78.49c.77-2.47,1.77-4.82,3.32-6.9,1.02-1.37,2.11-2.69,3.14-4.06.87-1.15,1.71-2.33,2.56-3.5.05.02.1.05.15.07-.64,1.19-1.19,2.43-1.93,3.55-1.45,2.2-3.01,4.33-4.53,6.49-.17.25-.33.5-.53.82.99-.52,4.5-5.22,6.83-9.08.06.02.11.04.17.06-.2.59-.3,1.24-.61,1.76-1.79,2.99-3.71,5.89-6.29,8.3-.81.76-1.51,1.65-2.26,2.5Z"/>
    <path class="cls-2" d="m247.18,29.11c-.06.34-.01.78-.21,1.02-2.59,3.29-5.64,6.02-9.57,7.62-.54.22-1.11.35-1.67.51-.33.09-.67.14-1.08.1.75-.61,1.48-1.27,2.27-1.82,1.67-1.16,3.4-2.22,5.05-3.41,2.48-1.79,4.14-4.2,5.09-7.1.09-.26.2-.52.25-.64.04,2.63-1.24,4.78-3.19,6.6-1.14,1.06-2.31,2.08-3.46,3.12-.13.11-.25.23-.29.44,2.75-1.6,5.05-3.67,6.81-6.43Z"/>
    <path class="cls-2" d="m226.68,32.97c.13.56.31,1.12.39,1.69.24,1.73-.18,3.34-.94,4.89-.27.54-.48,1.1-.72,1.64.07.03.14.07.2.1.47-.93.93-1.87,1.4-2.8.51-1,.76-2.07.74-3.19-.02-1.08-.1-2.15-.16-3.39,1.37,3.97,1.14,7.52-1.6,10.69-.52.6-.95,1.27-1.48,1.99-.13-1.37-.23-2.65.24-3.92.48-1.32.98-2.63,1.35-3.98.17-.62.05-1.33.08-1.99.03-.57.08-1.13.13-1.69.13-.01.26-.02.39-.03Z"/>
    <path class="cls-2" d="m229.1,42.72c.55-1.12,1.03-2.11,1.52-3.1l.24.07c-.14.87-.15,1.78-.44,2.59-.93,2.54-2.79,4.37-4.92,6,.62-1.33.5-2.74.61-4.12.04-.49.25-1.01.51-1.44.53-.86,1.15-1.66,1.71-2.45-.07.53-.12,1.16-.25,1.76-.14.63-.33,1.25-.55,1.86-.21.59-.45,1.17-.71,1.74-.26.58-.54,1.15-.75,1.75.84-.81,1.29-1.85,1.71-2.89.42-1.05.73-2.15,1.1-3.26.07.45.13.89.22,1.48Z"/>
    <path class="cls-2" d="m248.87,7.15c1.29.44,2.28,1.11,3.09,2.02.73.83,1.45,1.67,2.08,2.57.25.36.32.89.32,1.34,0,.71-.11,1.42-.17,2.05-1.48-1.44-2.74-3.08-3.79-4.92-1.11-1.94-3.12-2.71-5.15-3.33-.09-.03-.19-.05-.26-.14,1.89.01,3.54.68,5.04,1.8,1.49,1.12,2.41,2.68,3.36,4.34-.01-1.43-1.99-3.91-4.52-5.74Z"/>
    <path class="cls-2" d="m236.08,25.22c.03.67.08,1.33.09,2,0,.39-.1.78-.06,1.16.15,1.23-.22,2.31-.83,3.33-.78,1.31-1.59,2.61-1.85,4.16-.07,0-.13.01-.2.02-.13-.59-.27-1.19-.4-1.78-.14-.69-.32-1.38-.39-2.08-.04-.42.04-.88.18-1.28.35-.98.78-1.94,1.15-2.86.64,2-.07,3.98-.66,5.97l.29.06c.38-1.22.75-2.43,1.13-3.65.07-.22.12-.46.22-.67.6-1.4,1.14-2.81,1.07-4.37.09,0,.17,0,.26,0Z"/>
    <path class="cls-2" d="m229.35,41.31c-.18-.99-.44-1.92-.5-2.85-.06-.91.09-1.83.15-2.8.23.32.46.62.76,1.02.08-.67.15-1.22.22-1.77.07,0,.15.02.22.02-.12,1.23-.25,2.46-.37,3.69,1.14-2.33.66-4.99,1.59-7.35.64.66.88,1.56.8,2.45-.1,1.13-.26,2.29-.67,3.33-.58,1.45-1.42,2.79-2.19,4.24Z"/>
    <path class="cls-2" d="m250.22,15.53c-.04-1.09-.76-1.69-1.48-2.35-.52-.47-.94-1.13-1.2-1.79-.73-1.84-1.92-3.16-3.82-3.79,2.74.36,4.49,2.01,5.67,4.41-.25-1.77-1.3-2.97-2.74-3.99,3.33,1.26,4.6,3.55,3.57,7.5Z"/>
    <path class="cls-2" d="m239.75,20.86c-.12-1.21.22-2.25.95-3.2.64-.83,1.22-1.7,1.81-2.52.06.2.16.51.31.98.66-1.03.84-2.04.98-3.2.21,1.49-.15,2.7-1.03,3.75-.56.66-1.13,1.32-1.68,1.98-.17.21-.3.44-.49.59.99-.91,2.09-1.74,2.95-2.77,1.07-1.28,1.06-2.83.57-4.37-.07-.22-.15-.43-.17-.65.71,1.16,1.18,2.4,1.04,3.78-.04.35-.21.71-.41,1-1.01,1.44-2.06,2.83-3.68,3.67-.42.22-.75.62-1.14.96Z"/>
    <path class="cls-2" d="m232.62,35.73c.35.42.65.77.96,1.14.24-.95.45-1.78.66-2.62.06.01.13.02.19.04,0,.95.05,1.91-.01,2.86-.05.81-.48,1.16-1.35,1.3-.23.04-.46.06-.69.1l-.04.19c.5.14,1.01.29,1.67.47-.46.79-.92,1.57-1.38,2.36-.04-.03-.09-.06-.13-.09.08-.77.17-1.54.25-2.31l-.23-.05c-.36,1.42-.58,2.88-1.48,4.26.12-1.42.1-2.72.36-3.96.26-1.25.79-2.43,1.23-3.7Z"/>
    <path class="cls-2" d="m236.04,34.42c2.97-.93,5.32-2.65,6.93-5.41.17.54.32,1.04.48,1.53.07.02.13.04.2.07.29-1.76,1.23-3.08,2.66-4.1-.1.22-.19.44-.29.67-1.25,2.75-3.2,4.88-5.78,6.4-1.27.75-2.71.98-4.19.85Z"/>
    <path class="cls-2" d="m240.75,8.29c2.37.25,4.25,1.21,5.11,3.61-.27-2.22-1.74-3.28-3.74-3.87,1.5-.16,3.34.76,4.19,2.19,1.06,1.79.4,3.4-.74,4.98-.2-3.31-1.51-5.82-4.82-6.91Z"/>
    <path class="cls-2" d="m230.33,28.81c.44.22.43.76.49,1.23.15,1.19-.12,2.32-.6,3.4-.28.63-.57,1.25-.87,1.9-1.65-2.37-1.45-4.71.14-7.01.37,1.41-.32,2.8-.29,4.23.06,0,.12.02.17.03.32-1.25.63-2.5.95-3.77Z"/>
    <path class="cls-2" d="m226.68,32.74c-.01-.8-.09-1.61-.02-2.41.09-1.03.27-2.03.03-3.09-.09-.38.38-.88.68-1.3.54,1.35.33,2.66-.11,4.07,1.39-1.55,1.13-4.53-.39-5.54,1.13-.31,2.23.47,2.27,1.6.04,1.06-.19,2.06-.68,3-.62,1.18-1.41,2.29-1.46,3.7-.1,0-.21-.02-.31-.03Z"/>
    <path class="cls-2" d="m240.19,29.3c.34-1.66-.28-3.27.48-4.88.13.38.23.67.36,1.05.28-.51.51-.93.74-1.35.03.01.05.03.08.04-.24,1.08-.47,2.15-.71,3.23.07.02.14.04.21.05.38-1.08.74-2.18,1.16-3.25.43-1.08,1.21-1.92,2.02-2.55-.46,1.09-1.07,2.24-1.42,3.46-.62,2.17-.93,2.74-2.91,4.19Z"/>
    <path class="cls-2" d="m239.86,28.48c-.07.62-.13,1.16-.21,1.91,1.13-.94,2.12-1.75,3.11-2.57-.83,2.5-2.68,4.04-4.9,5.31-.2-1.93.81-3.27,2-4.64Z"/>
    <path class="cls-2" d="m236.73,31.31c-.06-1.28-.29-2.43-.13-3.51.16-1.07.73-2.09,1.23-3.11,0,.58.04,1.17,0,1.75-.04.58-.14,1.16-.27,1.73-.13.58-.31,1.15-.46,1.73.07.03.13.06.2.09.25-.54.67-1.06.72-1.62.12-1.16.92-1.7,1.74-2.31.22,2.42-1.57,3.65-3.02,5.25Z"/>
    <path class="cls-2" d="m225.49,18.97c.61-1.61,2.85-2.79,4.5-2.41.9.21,1.07.89,1.2,1.63-.34.11-.71.14-.97.33-.77.57-1.59.65-2.52.56-.55-.06-1.13.13-1.61.2.67-.81,1.5-1.15,3.83-1.49-.84-.69-2.42-.27-4.43,1.19Z"/>
    <path class="cls-2" d="m229.52,19.66c1.04-.3,1.96-.04,2.4.64.61.96,1.05,1.98.95,3.17-.03.36,0,.73,0,1.09-1-.13-1.71-.53-2.12-1.47-.2-.45-.64-.79-.99-1.21.3-.11.65-.35,1-.34.3,0,.66.24.85.49.29.38.47.85.76,1.43.03-1.27-.51-2.01-1.43-2.52-.51-.28-.9-.8-1.41-1.27Z"/>
    <path class="cls-2" d="m231.84,31.05c-.63-1.51-1.19-2.92-.64-4.53.19-.54.17-1.15.25-1.73.44-.04.61.18.57.62-.08.97-.15,1.94-.22,2.91-.01.21-.02.41-.03.62.06,0,.12.02.18.02.23-1.25.46-2.51.69-3.74,1.19,1.01.66,3.3-.8,5.82Z"/>
    <path class="cls-2" d="m236.62,20.91c-1.27-.38-2.07-1.17-2.37-2.51-.11-.51-.54-.95-.82-1.42.62-.39,1.22-.31,1.67.39.42.66.74,1.38,1.13,2.13.12-1.55-.81-2.57-1.77-3.65,2.02.54,2.69,2.19,2.17,5.07Z"/>
    <path class="cls-2" d="m231.55,17.07c.83.04,1.62.25,1.96.96.58,1.19,1.25,2.37,1.24,3.77,0,.11-.01.21-.02.32-1.01-.19-1.77-.62-2.15-1.63-.34-.91-1.1-1.38-2.1-1.55,1.63-.56,1.71-.88,3.62,1.42-.22-.98-.77-1.72-1.66-2.22-.41-.23-.83-.46-.89-1.07Z"/>
    <path class="cls-2" d="m228.27,15.93c1.21-.85,2.64-1.08,4.19-.63-1.11-.87-2.32-.84-3.58-.39.91-.66,1.92-.79,3-.67,1.18.13,2.04.65,2.23,1.89-1.06.54-2.1.5-3.26.09-.82-.29-1.76-.21-2.58-.29Z"/>
    <path class="cls-2" d="m235.88,13.12c-1.53-.69-3.11-.56-4.77-.25,1.87-1.42,5.93-1.08,6.33,1.49-.86-.73-1.78-.54-2.72-.39-.56.09-1.16.02-1.73-.05-.76-.09-1.51-.25-2.25-.38,1.63-.66,3.37-.66,5.14-.42Z"/>
    <path class="cls-2" d="m224.58,23.03c.63-1.45,1.6-2.56,3.43-2.75-1.01-.34-1.57-.1-3.44,1.42.69-1.22,1.49-2.04,2.8-2.14,1.31-.1,2.2.59,2.9,1.75-.61.05-1.23.06-1.83.15-.77.11-1.57.16-2.27.44-.59.24-1.07.76-1.59,1.15Z"/>
    <path class="cls-2" d="m233.51,11.15c1.85-1.13,5.11-.87,6.21,1.3.25-1.21-1.28-2.26-3.74-2.5,1.38-.15,2.57.13,3.67.78.79.47,1.06,1.01.82,1.9-.14.52-.42,1-.69,1.62-1.17-3.17-3.73-3.62-6.27-3.1Z"/>
    <path class="cls-2" d="m239.05,24.8c.44-1.36.69-2.81,1.71-3.95-.18,2.13-.42,4.19-2.25,5.59.06-2.25-.57-4.59.84-6.73,0,.84.07,1.69-.02,2.52-.1.84-.36,1.66-.55,2.5.09.02.18.05.27.07Z"/>
    <path class="cls-2" d="m241.18,12.55c.36,1.88-.66,3.19-1.91,4.42,1.42-.86,2.5-1.94,2.58-3.73.39,1.21-.01,2.26-.81,3.12-.76.82-1.68,1.5-2.6,2.18-.1-.87.11-1.62.53-2.29.46-.75,1-1.46,1.46-2.22.29-.47.5-.98.75-1.48Z"/>
    <path class="cls-2" d="m233.55,22.57c.23.75.47,1.39.63,2.05.16.66.23,1.34.43,1.99.16-1.45.07-2.87-.66-4.19l.17-.13c.25.28.59.52.74.84.9,1.94.47,3.83-.35,5.86-.3-2.21-1.81-4.03-.95-6.42Z"/>
    <path class="cls-2" d="m236.68,26.18c-.36-1.87-1.92-3.3-1.41-5.29.99.18,1.48.72,1.52,1.74.02.55,0,1.09.08,1.64.61-1.26-.07-2.62.33-3.92.68.96.53,3.46-.52,5.83Z"/>
    <path class="cls-2" d="m237.87,9.31c2.42.07,4.14,1.14,4.89,3.7.3-1.73-1.25-3.36-3.71-4.13.96-.29,2.04.12,3.14,1.23,1.38,1.4,1.08,3.07.76,4.75-.65-2.82-2.19-4.79-5.08-5.54Z"/>
    <path class="cls-2" d="m230.21,28.3c-.11-.53-.29-1.06-.32-1.59-.05-1.09-.42-1.97-1.38-2.57.8-.58,1.15-.49,1.42.44.13.44.16.92.24,1.43.48-.92.21-2.02-.6-2.67-.52-.41-1.05-.82-1.61-1.26,1.59-.04,2.84,1.21,2.86,2.9,0,.77-.17,1.54-.27,2.31-.04.32-.1.64-.14.96-.06.02-.12.03-.19.05Z"/>
    <path class="cls-2" d="m225.77,32.08c.18-1.48-.75-3.05.17-4.46l.36.03c-.13,2.04.07,4.11-.64,6.18-.4-1.48-.8-2.85-1.14-4.23-.13-.55.1-1.04.49-1.37.18,1.29.37,2.58.55,3.88.07,0,.14-.02.2-.02Z"/>
    <path class="cls-2" d="m249.12,32.1c.4-2.79,2.51-4.6,3.89-6.83-.86,2.53-2.17,4.79-3.89,6.83Z"/>
    <path class="cls-2" d="m225.69,25.62c-.43.24-.86.48-1.29.72.16-.63.47-1.22,1.18-1.42.6-.17,1.17.03,1.65.41-.68,1.23-1.56,2.16-2.84,2.64-.01-.99.54-1.67,1.41-2.16-.03-.06-.07-.13-.1-.19Z"/>
    <path class="cls-2" d="m254.33,33.57c-.57,2.12-1.51,4.05-2.86,5.83-.23-1.26,1.03-3.83,2.86-5.83Z"/>
    <path class="cls-2" d="m235.03,34.01c-.16-1.29.98-2.01,1.26-3.07-.03.42-.05.83-.09,1.42.47-.38.83-.67,1.2-.96.19,1.73-.56,2.57-2.36,2.62Z"/>
    <path class="cls-2" d="m224.8,23.97c.84-1.94,2.39-2.14,4.17-.45-.75.11-1.38.18-1.99.31-.62.12-1.24.3-1.85.45.62-.7,1.52-.94,2.42-1.18-1.07-.29-1.88.27-2.75.88Z"/>
    <path class="cls-2" d="m234.72,15.03c.87.19,1.65.35,2.42.52.03-.06.06-.12.08-.18-.69-.3-1.38-.61-2.18-.96.57,0,1.08-.06,1.56.02.45.08.78.34.9.89.13.58.43,1.12.56,1.74-.75-1.26-2.35-1.01-3.35-2.03Z"/>
    <path class="cls-2" d="m239.07,18.69c-.34.76-.68,1.52-1.1,2.45-.38-1.55-.72-2.97-1.07-4.39l.09-.1c.2.24.46.44.59.72.14.3.18.66.24,1,.05.33.07.66.11,1.08.42-.33.73-.58,1.05-.83.03.03.05.05.08.08Z"/>
    <path class="cls-2" d="m236.96,12.3c1.23.54,1.62,1.6,1.71,2.82.07,0,.14-.02.21-.02-.03-.57-.06-1.14-.08-1.64.69.84.66,1.13-.41,2.72-.19-.53-.47-.97-.48-1.41-.02-.96-.24-1.79-.95-2.47Z"/>
    <path class="cls-2" d="m235.05,37.16v-2.36c.47.08.9.16,1.54.28-.48.79-.91,1.49-1.34,2.19-.07-.04-.13-.07-.2-.11Z"/>
    <path class="cls-2" d="m238.09,34.96c-.42.28-.84.57-1.28.86-.11-1.06.73-.76,1.28-.86Z"/>
    <path class="cls-2" d="m234.36,39.75c-.06-.79.45-.82,1.09-.85-.41.32-.74.58-1.09.85Z"/>
  </g>
  <g>
    <path class="cls-1" d="m28.62,55.69c-.64,1.42-1.28,2.82-1.92,4.21-.07-.02-.15-.04-.22-.07-.03-.11-.09-.23-.08-.33.37-2.18-.08-4.27-.75-6.32-.75-2.3-1.6-4.57-2.34-6.88-.65-2.04-.86-4.15-.66-6.28-.9.85-1.77,1.69-2.64,2.52-.08-.03-.15-.06-.23-.1.67-2.63.17-5.18-.4-7.75-.35,1.37-.63,2.76-1.42,3.9-.46-2.14-.93-4.28-1.37-6.43-.32-1.52-.7-3.04-.87-4.58-.5-4.41.35-8.53,2.89-12.23.02-.03.02-.08.05-.19h-3.66c0-.06-.02-.11-.03-.17.05-.05.09-.13.16-.16,1.74-.67,3.01-1.93,4.14-3.35.69-.86,1.34-1.75,2-2.64,2.06-2.75,4.71-4.43,8.32-4.44-.87-.66-1.74-1.21-2.47-1.9-.74-.71-1.34-1.56-2.01-2.34.05-.05.1-.11.15-.16.14.07.28.12.41.2,1.77,1.01,3.75,1.28,5.71,1.59,4.39.7,8.73,1.56,12.82,3.4,4.21,1.89,7.79,4.55,10.03,8.68,2.7,4.96,3.01,10.08.47,15.18-.89,1.79-1.37,3.61-1.6,5.61-.15-.24-.28-.45-.48-.76-.09,1.26.05,2.38.44,3.46.34.94.71,1.86,1.03,2.8.42,1.21.37,3.36-.07,5.09-.38-.61-.76-1.2-1.13-1.8-.05,1.95-.15,3.88,1.22,5.54-1.58-.35-3.99-2.64-6.08-5.53.2.52.34,1.09.63,1.55,1.29,2.05,2.86,3.86,4.77,5.36.33.26.63.57,1.06.98-1.85.34-3.28-.33-4.81-1.07,1.14,1.08,2.24,2.05,3.26,3.09,1.03,1.04,1.9,2.22,2.57,3.6-1.93-.92-3.8-1.81-5.67-2.7-.02.04-.05.08-.07.11.15.13.31.26.46.39,1.59,1.27,3.2,2.52,4.76,3.82,1.26,1.04,2.36,2.25,3,3.78.23.55.32,1.17.36,1.81-1.19-1.65-2.92-2.45-4.62-3.29-1.14-.56-2.26-1.17-3.47-1.7,3.7,2.92,5.92,6.73,6.75,11.14-1.92-1.64-3.98-3.38-6.03-5.13-.02.02-.05.03-.07.05.4.49.79.99,1.19,1.48,1.92,2.35,3.87,4.67,5.06,7.51.74,1.77,1.56,3.53,1.74,5.48.02.22.04.45-.03.72-1.23-3.12-4.12-4.85-6.13-7.32.09.18.18.37.28.55,2.09,3.81,3.84,7.76,4.57,12.08.4,2.33.66,4.68-.05,7.01-.04.14-.1.27-.2.41-.28-2.59-1.47-4.76-2.96-6.81-.49-.68-.86-1.44-1.31-2.2.1,2.46.21,4.88.31,7.31-.06,0-.13.02-.19.03-.2-.62-.37-1.26-.6-1.87-.34-.89-.62-1.82-1.12-2.62-1.43-2.27-2.92-4.5-3.6-7.16-.13,2.44-.34,4.84-1.62,7.02-.08-.07-.14-.09-.14-.12.15-1.46-.31-2.77-1.02-4.02-1.42-2.54-1.84-5.34-2.11-8.17-.02-.17-.03-.34-.08-.52-.21,2.31-.41,4.61-1.64,6.62-.43-2.5-.73-5.04-1.33-7.5-.6-2.48-1.73-4.78-3-7.04.53,2.99-.03,5.76-1.47,8.4-.34-1.23-.54-2.47-1.02-3.59-.78-1.8-1.68-3.56-2.65-5.27-1.72-3.03-2.96-6.2-3.15-9.72,0-.08-.04-.16-.06-.22ZM26.33,1.06c.38.35.74.72,1.14,1.05,1.4,1.16,2.98,2.01,4.66,2.66,2.54.98,5.11,1.89,7.66,2.86,3.62,1.38,7.09,3.04,9.96,5.71,3.78,3.51,5.62,7.81,5.26,13-.03.5-.1,1-.16,1.57.09-.09.14-.11.15-.14.07-.16.15-.31.2-.48.84-2.38,1.01-4.83.58-7.3-.92-5.26-3.76-9.27-8.18-12.2-3.58-2.37-7.59-3.6-11.73-4.55-3.17-.73-6.47-.91-9.54-2.18Zm22.07,69.85c.05-1.15.15-2.22.14-3.3,0-1.3.03-2.61-.17-3.88-.68-4.24-2.81-7.77-5.6-10.94-.22-.25-.53-.44-.82-.62-2.09-1.31-4.18-2.61-6.28-3.91-.15-.09-.3-.19-.45-.28.2.34.47.59.73.84,2.6,2.48,5.13,5.04,7.19,8.01,1.85,2.67,3.36,5.5,3.98,8.73.04.21.02.42.03.63-.07.01-.15.03-.22.04-.11-.35-.23-.7-.33-1.05-1.27-4.28-3.57-7.98-6.59-11.21-2.85-3.05-5.89-5.92-8.85-8.87-.59-.59-1.15-1.2-1.72-1.81-.04.04-.08.08-.12.11.18.24.33.49.53.7,2.05,2.29,4.03,4.64,6.18,6.83,3.33,3.39,5.83,7.26,7.46,11.73.45,1.23,1.09,2.4,1.77,3.53.76,1.25,1.66,2.42,2.5,3.63.23.33.42.68.66,1.07Zm-5.28-19.98s-.04.06-.06.1c-.07-.02-.15-.03-.21-.08-3.09-2.19-6.22-4.32-9.24-6.6-2.29-1.73-4.22-3.84-5.71-6.38-.13.32-.19.61-.35.83-.34.47-.19.82.15,1.2.73.8,1.42,1.64,2.16,2.42,4.63,4.89,10.44,8.11,16.18,11.35-1.3-2.74-3.11-5.18-5.43-7.21-2.28-1.99-4.67-3.87-6.95-5.85-1.12-.97-2.16-2.05-3.16-3.14-.93-1.02-1.77-2.13-2.58-3.11.05.57.08,1.26.19,1.94.09.52.19,1.07.46,1.5,1.74,2.74,4.04,4.95,6.59,6.92,2.45,1.89,4.93,3.74,7.4,5.6.2.15.37.33.56.49Zm1.19-6.63c-1.28-2.63-2.79-4.9-5.05-6.58-.56-.41-1.08-.87-1.62-1.3-2.38-1.87-4.78-3.73-6.62-6.18-.02-.02-.08,0-.08,0-.41.68-.81,1.34-1.23,2.03,1.38,1.62,2.98,3.03,4.71,4.3,1.7,1.25,3.43,2.46,5.14,3.68-2.8-1.29-5.38-2.92-7.72-4.92-2.36-2.02-4.31-4.38-5.77-7.14.06.31.15.59.26.87.53,1.39.93,2.85,1.62,4.15,1.56,2.94,3.92,5.22,6.84,6.74,3.05,1.59,6.26,2.89,9.52,4.36Zm-2.86,20.35c.17-1.56.27-3.1-.09-4.64-.56-2.32-1.85-4.23-3.41-5.97-2.18-2.43-4.45-4.79-6.64-7.21-1.76-1.94-3.45-3.95-4.39-6.45-.04-.1-.1-.19-.16-.28-.05-.07-.11-.13-.23-.28.55,2.17.95,4.27,2.36,5.96.98,1.18,1.99,2.33,3,3.49,2.09,2.39,4.19,4.78,6.28,7.17.14.16.24.36.35.54-.03.01-.06.03-.08.04-3.41-3.57-6.82-7.15-10.25-10.74.13.31.24.63.38.94,1.04,2.2,2.54,4.07,4.16,5.84,3.27,3.57,6.76,6.98,8.71,11.57Zm.01,14.63c.08-.22.19-.43.23-.65.21-1.34.49-2.68.58-4.03.14-2.09.24-4.2-.28-6.27-.81-3.21-2.17-6.18-4.26-8.74-1.85-2.26-3.89-4.38-5.84-6.55-.05.04-.1.08-.16.13.32.48.62.97.96,1.43.97,1.33,1.97,2.63,2.94,3.96,2.45,3.37,4.39,7,5.45,11.05.16.63.27,1.27.41,1.9-.08.03-.16.06-.24.09-1.36-6.18-4.87-11.15-8.7-15.95.56,1.31,1.19,2.59,1.81,3.87,1.23,2.55,2.47,5.09,3.68,7.65.65,1.37,1.33,2.73,1.88,4.13,1.01,2.55,1.55,5.2,1.54,7.97Zm-12.27-25.01c.14,3.32.82,6.51,2.38,9.48,1.62,3.09,3.54,6.05,4.09,9.78.74-2.31,1.16-4.44.77-6.69-.43-2.47-1.49-4.69-2.6-6.89-1.23-2.44-2.47-4.88-3.12-7.54-.31-1.27-1.18-2.12-1.82-3.17.17,1.42.36,2.83.72,4.2.83,3.18,2.35,6.08,3.8,9.01,1.04,2.09,2.06,4.2,2.43,6.54.04.25.03.5.04.75-.19-.08-.25-.17-.28-.26-.59-1.58-1.08-3.2-1.77-4.73-1.58-3.48-3.64-6.74-4.64-10.49Zm-5.66-16.28c-.15.46-.43.92-.44,1.39-.07,2.11.06,4.2.69,6.23.51,1.63,1.05,3.25,1.61,4.86.87,2.48,1.51,5,1.49,7.67.1-.05.15-.07.16-.1.06-.11.12-.23.17-.35,1.12-2.63,1.61-5.37,1.02-8.18-.62-2.96-1.41-5.88-2.1-8.83-.41-1.75-.92-3.45-1.91-5.04.03,3.13.45,6.15,1.22,9.13.62,2.4,1.16,4.83,1.68,7.26.13.62.02,1.29.02,1.94-.17-.09-.24-.19-.24-.3-.09-2.14-.65-4.18-1.28-6.21-.97-3.08-1.84-6.18-2.09-9.48Zm33.94,52.91c.08-4.13-.84-8.04-2.4-11.81-1.54-3.74-3.59-7.21-5.81-10.6.13.86.27,1.72.62,2.48,1.14,2.42,2.35,4.82,3.56,7.21,1.24,2.43,2.52,4.84,3.17,7.51.03.14.04.29.05.44-.56-.98-.94-2.01-1.37-3.02-1.87-4.45-4.86-8.36-6.39-13.12-.08,1.21.16,2.2.58,3.21,1.07,2.57,2.1,5.16,3.02,7.79.59,1.68,1.19,3.34,2.21,4.81,1.11,1.6,2.25,3.17,2.76,5.1ZM20.42,41.69c.22-.2.32-.28.41-.37,2.79-2.84,3.48-7.6,1.56-11.08-1.67-3.03-2.12-6.25-1.5-9.61.25-1.37.69-2.7,1.02-3.98-1.39,1.56-2.26,3.43-2.38,5.65-.13,2.41.45,4.68,1.22,6.92.8,2.31,1.28,4.67,1.12,7.13-.05.69-.23,1.37-.36,2.05-.09,0-.18,0-.27-.01.78-3.95-.47-7.56-1.67-10.78,0,1.22-.04,2.8.01,4.37.03.9.13,1.8.33,2.68.52,2.26,1.08,4.51.51,7.03Zm21.79,19.31c-.19,1.87.03,3.56.67,5.19.36.93.68,1.87,1.01,2.81,1.33,3.74,2.36,7.55,2.59,11.54.02.29,0,.59,0,.89-.1.01-.2.02-.29.03-.42-5.66-2.35-10.9-4.3-16.14,0,.33-.03.68.09.97.77,1.95,1.01,4.02,1.34,6.06.36,2.24.52,4.53,1.08,6.71.53,2.03,1.48,3.95,2.27,5.96.04-.13.07-.21.09-.29.75-2.91.58-5.84.07-8.76-.63-3.66-1.82-7.16-2.99-10.67-.47-1.42-1.06-2.81-1.63-4.31Zm-24.05-28.48c-.06,0-.12,0-.18,0-.27-2.34-.66-4.67-.78-7.01-.18-3.6.41-7.07,2.39-10.2.08-.13.15-.26.22-.39-.05-.03-.09-.06-.14-.09-.32.45-.69.88-.96,1.36-2.27,4.07-2.91,8.43-2.09,12.99.48,2.71,1.07,5.41,1.59,8.05,0-.02.06-.13.09-.24.61-1.91.67-3.86.59-5.84-.1-2.66-.19-5.32-.19-7.98,0-2.73.99-5.11,2.87-7.1.58-.61,1.17-1.21,1.75-1.83.11-.12.25-.28.24-.41-.03-.45-.11-.89-.17-1.3-2.42,1.36-3.89,3.46-4.74,6.03-.63,1.92-.99,3.92-.94,5.93.06,2.24.29,4.48.43,6.73.03.43,0,.87,0,1.3Zm6.45-16.8c-.05.27-.11.54-.14.82-.46,3.47.38,6.6,2.43,9.43,1.17,1.63,2.31,3.29,2.78,5.4,1.16-1.92,1.54-3.89.77-5.87-.68-1.76-1.62-3.43-2.54-5.1-1.14-2.09-2.18-4.18-1.95-6.69-.19.24-.35.48-.44.75-.34.97-.26,1.96-.07,2.95.38,1.99,1.5,3.6,2.59,5.25.59.89,1,1.9,1.43,2.89.16.38.13.84.21,1.36-.46-1.02-.8-1.95-1.27-2.8-.43-.77-1-1.46-1.53-2.17-1.39-1.85-2.24-3.88-2.25-6.23Zm.97,15.87c-.05.02-.1.03-.16.05-.28-.53-.56-1.07-.85-1.6-2.27-4.23-3.09-8.6-1.28-13.23.18-.46.26-.96.39-1.45-.21.06-.28.16-.34.27-2.48,4.99-2.79,9.96.1,14.93,1.35,2.31,3.1,4.39,4.11,6.93-.03-1.13,0-2.29-.29-3.35-.53-1.91-1.19-3.79-1.91-5.64-1.1-2.81-1.84-5.67-1.58-8.72.07-.76,0-1.54,0-2.3-.78,1.9-1,3.87-.81,5.89.19,1.96.88,3.78,1.59,5.59.35.88.68,1.76,1.01,2.64Zm12.39,10.83c3.24,2.23,6.41,4.51,8.88,7.62-3.08-2.45-6.02-5.08-9.44-7.09.15.19.33.34.51.49,2.2,1.82,4.36,3.68,6.13,5.96.47.61,1.04,1.17,1.65,1.63,2.63,1.98,5.6,3.38,8.68,4.72-.18-.25-.29-.46-.45-.62-1.08-1.11-2.1-2.31-3.28-3.31-2.48-2.09-5.12-4.01-7.27-6.46-1.46-1.66-3.41-2.34-5.41-2.95Zm-10.71-30.07c-.08-.01-.17-.02-.25-.03-.15.52-.43,1.05-.42,1.57.02.98.02,2.03.35,2.94,1.2,3.23,2.86,6.2,5.44,8.57,1.04.95,2.03,1.94,2.53,3.51.33-1.98.15-3.7-.59-5.36-.75-1.69-1.96-3.05-3.15-4.42-1.17-1.34-2.27-2.72-2.18-4.68-.16.59-.28,1.18-.26,1.77.05,1.56.9,2.77,1.87,3.9.84.99,1.75,1.92,2.58,2.91.33.39.53.88.79,1.33-.69-.58-1.24-1.24-1.83-1.87-.8-.85-1.65-1.65-2.43-2.52-.93-1.04-1.53-2.25-1.61-3.67,0-.13,0-.27-.06-.38-.58-1.11-.81-2.3-.76-3.56Zm19.68,60.39s-.09.03-.13.05c.18.82.39,1.62.53,2.45.49,2.83,1.15,5.6,2.61,8.11.95,1.63,1.97,3.23,2.9,4.75.27-5.13-4.29-17.86-7.48-20.6.49,1.19.97,2.29,1.41,3.41,1.51,3.82,3.01,7.64,4.48,11.48.22.58.27,1.24.4,1.86-.03,0-.07,0-.1.01-1.54-3.84-3.08-7.67-4.62-11.51ZM15.83,14.85c1.65.13,3.02-.21,4.32-.92,1.46-.8,2.74-1.82,3.77-3.13.59-.75,1.18-1.49,1.8-2.22,1.65-1.94,3.78-2.87,6.31-3.03-.52-.14-1.03-.27-1.55-.24-2.08.11-3.92.87-5.45,2.28-.68.63-1.32,1.32-1.94,2-.85.92-1.65,1.89-2.52,2.8-.32.33-.74.56-1.1.82.9-1.11,1.8-2.21,2.7-3.31,1.69-2.06,3.55-3.91,6.19-4.74.01,0,.01-.06.05-.23-.91.29-1.77.51-2.58.84-2.07.84-3.44,2.49-4.75,4.21-1.44,1.89-2.84,3.83-5.27,4.87Zm27.37,29.49c2.86,3.3,6.03,5.77,10.26,6.57-2.76-1.93-4.6-4.65-6.47-7.35-1.31-1.9-2.89-3.56-4.81-4.86-.63-.43-1.3-.78-2.04-1.22.98,1.1,1.92,2.05,2.75,3.1,1.11,1.41,2.11,2.89,3.18,4.33,1.1,1.48,2.29,2.88,3.86,3.9.06.04.1.11.25.29-1.09-.3-1.8-.91-2.5-1.53-.79-.71-1.39-1.62-2.46-2.03-.65-.25-1.23-.71-2.01-1.18Zm-5.89-20.4c.16-1.67-.3-3.18-1.35-4.46-.93-1.14-1.95-2.2-2.94-3.29-1.02-1.13-1.84-2.36-2.04-4-.08.16-.13.23-.15.3-.62,1.69-.1,3.11,1.11,4.31.69.68,1.49,1.25,2.19,1.92.51.49.94,1.07,1.4,1.6-1.22-.85-2.36-1.73-3.47-2.66-1.32-1.11-2.25-2.43-2.04-4.29-.56,1.09-.49,2.17.08,3.21.8,1.47,1.95,2.62,3.36,3.54,1.53,1,2.96,2.11,3.86,3.8Zm7.58,29.81s-.09.09-.14.14c.15.18.29.36.44.53,1.18,1.35,2.55,2.46,4.11,3.34,2.79,1.58,5.59,3.15,8.39,4.72-.14-.11-.22-.36-.38-.54-.88-1-1.67-2.12-2.69-2.96-2.72-2.24-5.55-4.36-8.33-6.52-.14-.11-.29-.2-.43-.31.15.46.35.89.67,1.18.98.91,1.97,1.81,3.02,2.64,1.34,1.05,2.75,2.02,4.13,3.03.18.13.32.33.47.49-.03.03-.07.06-.1.09-2.37-1.57-4.73-3.14-7.05-4.68,0,.08.02.27.04.5-.76-.59-1.45-1.12-2.15-1.66Zm2.86,6.03s.04-.08.06-.12c.28.6.49,1.24.85,1.79,1.98,3.01,4.78,5.19,7.57,7.4-.74-2.35-1.66-4.61-3.42-6.38-1.77-1.78-3.66-3.43-5.5-5.14-.13-.12-.28-.22-.42-.33-.05.05-.11.11-.16.16,1.3,1.5,2.59,3,3.91,4.48,1.32,1.49,2.67,2.96,4,4.43-.02.02-.05.04-.07.05-2.27-2.12-4.55-4.23-6.82-6.35Zm1.47,5.76c-.06,0-.12.02-.18.03.15.5.21,1.06.47,1.5,1.62,2.72,3.31,5.38,5.56,7.65,1.11,1.11,2.15,2.29,3.1,3.31-.7-2.21-1.63-4.55-3.14-6.61-1.29-1.76-2.67-3.46-3.99-5.2-.63-.83-1.21-1.7-1.82-2.56,1.4,4.1,4.52,7.14,6.61,10.83-2.44-2.81-4.85-5.64-6.61-8.95Zm1.52-34.14c-.21.88-.49,1.78-.64,2.7-.42,2.71.12,5.2,1.8,7.41.66.87,1.32,1.75,2,2.64,0-.07.01-.14.03-.22.31-1.89-.13-3.64-.9-5.35-.65-1.44-1-2.94-.78-4.54.07-.49-.12-1.02-.19-1.53-.33.33-.62.63-.66.96-.09.83-.23,1.72-.06,2.52.28,1.27.8,2.49,1.22,3.73.12.36.28.71.43,1.06-.06.03-.13.05-.19.08-.37-.75-.72-1.51-1.13-2.23-.91-1.61-1.16-3.32-.94-5.14.09-.71.01-1.44.01-2.09Zm-19.52-2.66c.07.33.03.74.21.97,2.34,3.04,5.17,5.52,8.63,7.21,1.13.55,2.4.81,3.6,1.21.02-.06.04-.12.06-.18-1.7-1.66-3.71-2.89-5.71-4.13-3.24-2.02-5.6-4.72-6.73-8.42-.05-.18-.15-.34-.23-.51.05.55.26,1.07.27,1.59.03,1.34.66,2.4,1.47,3.38,1.44,1.76,3,3.41,4.86,4.75.17.12.31.27.47.41-1.53-.27-4.53-3.15-6.9-6.28Zm21.08,18.2c-1.4-1.85-2.28-3.94-2.76-6.22-.07.47-.15.95-.24,1.54-.55-1.1-1.03-2.09-1.52-3.08-.52,3.6,2.99,7.25,5.03,8.56-.14-.73-.33-1.57-.44-2.42-.09-.66.1-1.42-.16-1.98-.57-1.24-1.36-2.38-2.13-3.69.15,2.73,1.19,5,2.22,7.29ZM24.24,14.82c.25-.34.43-.73.74-.97,1.2-.95,1.96-2.22,2.67-3.54.63-1.18,1.53-2.1,2.73-2.69.99-.49,2.02-.9,3.09-1.38-4.16.29-6.69,2.73-8.54,6.18.27-.78.6-1.5,1.02-2.16.41-.65.88-1.29,1.41-1.85.53-.55,1.17-.99,1.76-1.48-.36.11-.69.26-1,.44-1.29.74-2.11,1.95-3.08,3.02-.87.95-1.17,1.97-.94,3.21.07.4.1.8.15,1.22Zm20.97,18.61c-1.01-1.81-2.52-6.87-2.74-8.64-.15.57-.28,1.15-.3,1.73-.02.58.04,1.16.12,1.74.11.74.15,1.52.43,2.2.7,1.69,2.01,3.1,2.36,5,.25-.66.37-1.3.5-1.95.13-.63.27-1.26.39-1.89.04-.24.11-.52.03-.74-.44-1.16-.92-2.3-1.36-3.39-.66,2.01.09,3.96.57,5.93Zm3.37,4.74c-1.16-2.29-.64-4.94-1.58-7.27-.81.62-.89,2.34-.79,3.46.24,2.47,1.89,4.3,2.77,6.44.75-1.81.51-3.68.46-5.6-.27.35-.51.65-.78,1.01-.09-.65-.16-1.19-.23-1.73-.08,0-.15.02-.23.03.13,1.22.26,2.44.38,3.66ZM28.17,15.1c.09-.84.41-1.55,1.1-2,.86-.57,1.34-1.37,1.68-2.31.52-1.44,1.45-2.55,2.84-3.23.27-.13.54-.24.82-.36-.02-.05-.04-.11-.07-.16-.78.3-1.6.53-2.33.92-1.5.8-2.46,2.12-3.19,3.63,0-1.09.41-1.71,2.41-3.87-3.17,1.26-4.27,3.63-3.28,7.38Zm10.49,5.24c.05-.95-.11-1.92-.74-2.78-.7-.96-1.39-1.94-2.04-2.86-.07.22-.17.54-.27.86-.08,0-.15.02-.23.03-.28-.9-.56-1.81-.83-2.71-.09,1.17.2,2.25.95,3.18.52.64,1.07,1.25,1.59,1.88.22.27.41.57.61.86-.06.05-.12.1-.18.16-.75-.79-1.51-1.57-2.26-2.36-.75-.8-1.28-1.73-1.24-2.84.04-.99.27-1.98.38-2.76-.56.88-.98,2.05-1.02,3.35,0,.32,0,.69.15.95.79,1.3,1.64,2.54,2.88,3.47.74.55,1.5,1.06,2.25,1.58Zm-6.5,5.67c.72,4,7.12,8.94,10.23,7.92-1.48-.4-2.81-1.06-4-1.97-1.21-.92-2.2-2.03-2.96-3.41-.18.58-.33,1.07-.48,1.55-.08,0-.15.01-.23.02-.24-1.76-1.24-3.02-2.56-4.12Zm12.18,12.75c.5.84.96,1.6,1.42,2.37.04-.03.08-.06.13-.09-.08-.76-.16-1.53-.24-2.29.08-.01.16-.03.23-.04.34,1.44.57,2.92,1.48,4.28-.11-1.32-.29-2.5-.29-3.68,0-1.51-1.09-2.57-1.32-3.96-.35.41-.65.75-.95,1.09-.16-.94-.24-1.8-.86-2.6,0,.98-.03,1.84,0,2.7.05.96.41,1.33,1.37,1.49.24.04.48.07.72.1-.11.19-.21.28-.33.31-.39.1-.79.19-1.37.32Zm-6.67-30.9c-2.37.25-4.25,1.2-5.14,3.6.3-2.22,1.78-3.28,3.86-3.89-1.94-.06-3.79,1.05-4.56,2.64-.59,1.21-.16,3.09,1,4.54.19-3.28,1.5-5.79,4.84-6.89Zm11.35,27c1.35-1.83,1.8-4.04-.11-7.01-.06,0-.12.01-.18.02.15,1.39.3,2.79.45,4.18-.06,0-.11.01-.17.02-.31-1.21-.63-2.42-.94-3.64-.25.35-.42.77-.48,1.2-.27,1.94.7,3.55,1.44,5.22Zm1.99-5.45c-.69-.96-.86-2.05-.74-3.18.09-.9.28-1.79,1.36-2.19-1.29-.3-2.32.48-2.37,1.65-.04,1.07.21,2.06.7,2.99.63,1.19,1.41,2.31,1.45,3.91.48-.99.42-1.82.35-2.66-.08-.9-.24-1.83-.08-2.69.15-.84-.33-1.21-.72-1.87-.43,1.46-.28,2.74.05,4.03Zm-17.44-8.38c1.08,1.54,1.79,3.14,1.98,4.94.03.3.23.62.45.85.67.7,1.38,1.36,2.07,2.03-.23-1.59.38-3.21-.33-4.89-.14.43-.24.71-.36,1.08-.33-.59-.59-1.06-.92-1.67.3,1.3.55,2.42.81,3.54-.08.03-.16.05-.24.08-.74-2.19-1.21-4.55-3.45-5.97Zm4.94,6.91c.08.65.16,1.23.23,1.81-.05.03-.09.06-.14.09-1.01-.84-2.02-1.69-3.05-2.55.26,1.73,3.24,4.84,5,5.29.22-1.89-.93-3.21-2.04-4.65Zm.14-2.36c-.22,2.5,1.57,3.71,2.98,5.25.06-.75.16-1.37.15-2,0-.79.05-1.62-.16-2.37-.21-.77-.69-1.46-1.05-2.18-.21,1.77.21,3.49.62,5.23-.32-.4-.58-.81-.75-1.26-.58-1.48-.57-1.48-1.8-2.68Zm8.6-7.88c.51.24.98.49,1.47.69.35.14.73.28,1.1.3.82.04,1.64.01,2.38.01-.96-.94-2.32-1.22-3.74-1.4.8-.31,1.61-.34,2.37,0,.74.33,1.42.79,2.13,1.2-.82-1.5-2.09-2.3-3.8-2.39-1.32-.07-1.75.34-1.91,1.6Zm-1.15,5.19c-.05-.03-.11-.06-.16-.1.3-.89.36-1.91,1.53-2.29.65-.21.93-.82,1.32-1.37-1.19-.18-1.94.14-2.42.89-.81,1.27-.97,2.64-.78,4.14.62-.3,1.36-.23,1.76-.98.34-.63.83-1.19,1.25-1.78-.12-.04-.34-.1-.56-.18-.82-.29-.98-.23-1.36.54-.19.38-.39.74-.58,1.12Zm-.34,1.87c-1.22,1.1-.55,3.75.78,5.72,1.36-1.94.74-4.04.38-6.12-.42-.01-.57.21-.54.6.08,1.05.15,2.11.23,3.16,0,.14-.02.28-.03.42-.05,0-.09,0-.14,0-.22-1.25-.44-2.49-.67-3.77Zm1.22-7.97c-1.42-.07-2.09.43-2.49,1.6-.14.41-.34.8-.45,1.21-.19.7-.34,1.42-.53,2.24.44-.19.72-.27.95-.42.35-.22.81-.41.99-.75.55-1.02,1.08-1.99,2.46-2.17-1.87-1.04-2.65.31-3.57,1.36.22-1,.8-1.68,1.65-2.2.37-.23.66-.59.99-.89Zm-3-1.41c-2.41.82-2.61,2.46-2.17,5.15.19-.11.36-.26.56-.32.99-.3,1.39-1.04,1.68-1.96.19-.61.6-1.15.91-1.73-.66-.36-1.25-.25-1.71.5-.4.65-.7,1.35-1.09,2.11-.08-1.59.82-2.63,1.83-3.74Zm5.55-.85c.01-.06.02-.12.03-.17-.52-.18-1.03-.46-1.56-.51-1.88-.17-3.34,0-3.74,1.91.23.06.47.09.68.18.69.32,1.36.29,2.06,0,1.04-.43,2.13-.53,3.41-.22-1.47-1.08-2.91-1.28-4.48-.85,1.12-.88,2.33-.82,3.59-.33Zm-8.54-.8c.56-.11,1.17-.44,1.65-.3,1.74.48,3.37-.19,5.11-.27-1.74-.72-3.48-.68-5.24-.45.75-.48,1.59-.52,2.42-.5.83.01,1.66.15,2.42.22-2.46-1.62-6.13-.73-6.35,1.31Zm12.71,7.46c-.51-1.19-1.55-2-2.6-2.07-1.23-.08-2.06.39-2.96,1.74,1.99.33,4.25-.24,5.65,1.83-.61-1.55-1.6-2.64-3.32-2.89,1.38-.22,2.35.47,3.22,1.4Zm-11.32-11.67c-1.35-.15-2.55.17-3.7.82-.77.44-.93,1.14-.76,1.82.14.55.44,1.07.67,1.6.47-1.35,1.28-2.26,2.49-2.8,1.2-.54,2.45-.5,3.8-.2-1.53-1.03-4.89-1.1-6.25,1.28-.07-1.32,1.22-2.2,3.74-2.51Zm-3.2,9.83c-.65,1.72.39,3.35.25,5.04-.29-.68-.46-1.39-.73-2.05-.26-.64-.62-1.24-.93-1.86.07,2.09.28,4.11,2.09,5.51.2-4.19.08-5.43-.68-6.64Zm-2.63-6.52c-.58,1.84.68,3.69,3.52,5.27-.05-1.1-.45-2.05-1.06-2.94-.63-.93-1.23-1.89-1.83-2.81-.27,1.78.75,3.03,1.95,4.22-1.42-.86-2.52-1.94-2.58-3.73Zm5.03,11.05l-.27-.03v-3.92h-.23c-.63,1.98-.19,3.83.62,5.81.45-1.88,1.91-3.32,1.4-5.31-2,.47-1.37,2.14-1.53,3.44Zm2.24,4.53c.35-1.06.62-2.08,1.03-3.05.44-1.04.09-2.06.16-3.24-.91,1.32-.81,2.77-1.26,4.08-.11-1.43-.05-2.83.57-4.21-.31.18-.62.38-.75.67-.94,1.96-.51,3.86.25,5.75Zm-8.29-15.92c.16-1.04.4-2.06,1.23-2.7.77-.59,1.69-.99,2.46-1.43-2.49-.21-5.01,2.45-3.75,6.04.64-2.83,2.19-4.78,5.06-5.51-2.48.05-4.18,1.19-5,3.59Zm12.48,15.34c.06.01.12.03.17.04.11-.56.3-1.11.32-1.67.06-1.07.46-1.91,1.38-2.5-.86-.54-1.16-.45-1.45.47-.06.18-.08.38-.11.57-.04.27-.08.53-.15.96-.42-1.4-.15-2.21.83-2.94.47-.35.91-.72,1.48-1.18-1,.08-1.72.37-2.23,1.05-.67.9-.84,1.92-.64,3.02.13.72.26,1.44.38,2.17Zm5.39.03c-.21,1.32-.4,2.57-.6,3.82l-.22-.03c.02-.3.04-.59.06-.89.06-.82.17-1.64.18-2.45,0-.42-.04-.91-.58-1.09-.38,1.05.04,5.34.52,6.03.33-1.19.66-2.47,1.03-3.73.19-.64.08-1.17-.39-1.65Zm-24.13,3.83c-.43-2.84-2.59-4.66-3.96-6.95.87,2.57,2.2,4.89,3.96,6.95Zm23.44-6.27l.08-.19c.4.24.79.48,1.2.72-.2-.7-.53-1.32-1.29-1.47-.57-.11-1.14.03-1.54.44.67,1.23,1.55,2.15,2.82,2.64-.03-.93-.23-1.27-1.28-2.15Zm-11.79,5.47c.13,2.14.79,2.84,2.46,2.67.1-1.2-.9-1.94-1.26-2.95v1.31c-.46-.39-.82-.7-1.21-1.03Zm-13.97,8.04c-.09-2.45-1.85-4.07-2.97-6.01.57,2.21,1.53,4.23,2.97,6.01Zm22.49-15.88c1.4.3,2.68.57,3.84.81-.53-.67-1.5-.92-2.46-1.19,1.09-.27,1.92.27,2.76.9-.76-1.9-2.27-2.12-4.14-.52Zm-9.24-6.4c.07.03.15.07.22.1.6-1.4,2.31-1.07,3.21-2.13-.86.19-1.67.37-2.48.55-.02-.06-.05-.12-.07-.17.73-.32,1.45-.63,2.16-.94-.74-.18-1.61-.34-2.12.38-.45.63-.62,1.47-.91,2.22Zm1.3-4.73c-.07-.06-.14-.11-.22-.17-.38.42-.84.79-1.11,1.27-.28.5-.37,1.1-.54,1.66-.06,0-.11,0-.17,0,.06-.63.13-1.26.18-1.78-.78,1.04-.74,1.52.39,2.81.17-.49.45-.93.45-1.37,0-.97.23-1.79,1.02-2.43Zm-1.08,7.09c-.42-.31-.74-.56-1.19-.89.41.93.75,1.69,1.17,2.63.38-1.6.72-3.02,1.06-4.45-.07-.03-.14-.07-.2-.1-.22.41-.51.8-.64,1.24-.14.48-.14.99-.2,1.57Zm2.89,17.71v-2.34c-.47.09-.89.17-1.3.26.07.9.52,1.61,1.3,2.09Zm-1.72-1.34q-.16-.85-1.3-.84c.39.27.76.52,1.13.77.05.03.11.04.17.07Zm2.46,3.99q-.17-.83-1.05-.82c.34.27.66.52,1.05.82Z"/>
    <path class="cls-2" d="m26.33,1.06c3.07,1.27,6.37,1.46,9.54,2.18,4.13.95,8.15,2.18,11.73,4.55,4.42,2.93,7.25,6.93,8.18,12.2.43,2.47.26,4.92-.58,7.3-.06.16-.13.32-.2.48-.02.03-.06.06-.15.14.06-.57.13-1.07.16-1.57.36-5.19-1.48-9.49-5.26-13-2.88-2.67-6.34-4.33-9.96-5.71-2.55-.97-5.11-1.88-7.66-2.86-1.68-.65-3.26-1.5-4.66-2.66-.4-.33-.76-.7-1.14-1.05Z"/>
    <path class="cls-2" d="m48.4,70.91c-.24-.39-.43-.74-.66-1.07-.83-1.21-1.74-2.37-2.5-3.63-.68-1.12-1.32-2.3-1.77-3.53-1.62-4.47-4.12-8.34-7.46-11.73-2.15-2.19-4.13-4.55-6.18-6.83-.2-.22-.35-.47-.53-.7.04-.04.08-.08.12-.11.57.6,1.14,1.22,1.72,1.81,2.95,2.95,5.99,5.83,8.85,8.87,3.02,3.22,5.32,6.92,6.59,11.21.1.35.22.7.33,1.05.07-.01.15-.03.22-.04-.01-.21,0-.43-.03-.63-.62-3.23-2.13-6.06-3.98-8.73-2.06-2.97-4.59-5.52-7.19-8.01-.26-.25-.53-.5-.73-.84.15.09.3.19.45.28,2.09,1.3,4.19,2.6,6.28,3.91.29.18.6.37.82.62,2.79,3.17,4.92,6.7,5.6,10.94.2,1.27.17,2.59.17,3.88,0,1.07-.09,2.15-.14,3.3Z"/>
    <path class="cls-2" d="m43.11,50.93c-.18-.16-.36-.34-.56-.49-2.47-1.87-4.95-3.71-7.4-5.6-2.55-1.97-4.86-4.18-6.59-6.92-.27-.43-.38-.99-.46-1.5-.12-.68-.14-1.37-.19-1.94.81.98,1.64,2.09,2.58,3.11,1,1.1,2.04,2.17,3.16,3.14,2.29,1.99,4.67,3.86,6.95,5.85,2.32,2.03,4.13,4.47,5.43,7.21-5.74-3.24-11.55-6.46-16.18-11.35-.74-.79-1.43-1.62-2.16-2.42-.35-.38-.49-.73-.15-1.2.16-.22.22-.51.35-.83,1.49,2.54,3.42,4.65,5.71,6.38,3.02,2.28,6.16,4.41,9.24,6.6.06.04.14.05.21.08.02-.03.04-.06.06-.1Z"/>
    <path class="cls-2" d="m44.3,44.3c-3.25-1.48-6.46-2.77-9.52-4.36-2.92-1.53-5.28-3.8-6.84-6.74-.69-1.3-1.09-2.76-1.62-4.15-.11-.28-.2-.56-.26-.87,1.46,2.76,3.41,5.12,5.77,7.14,2.34,2,4.92,3.63,7.72,4.92-1.72-1.23-3.45-2.43-5.14-3.68-1.72-1.27-3.33-2.69-4.71-4.3.42-.69.82-1.35,1.23-2.03,0,0,.06-.01.08,0,1.84,2.46,4.24,4.31,6.62,6.18.54.43,1.07.88,1.62,1.3,2.27,1.68,3.77,3.95,5.05,6.58Z"/>
    <path class="cls-2" d="m41.44,64.65c-1.95-4.6-5.44-8.01-8.71-11.57-1.63-1.77-3.13-3.65-4.16-5.84-.14-.31-.26-.63-.38-.94,3.43,3.59,6.84,7.16,10.25,10.74.03-.01.06-.03.08-.04-.12-.18-.21-.38-.35-.54-2.09-2.39-4.19-4.78-6.28-7.17-1.01-1.16-2.02-2.31-3-3.49-1.41-1.69-1.82-3.79-2.36-5.96.13.15.19.21.23.28.06.09.12.18.16.28.94,2.51,2.63,4.51,4.39,6.45,2.19,2.42,4.46,4.77,6.64,7.21,1.56,1.73,2.85,3.65,3.41,5.97.37,1.53.26,3.08.09,4.64Z"/>
    <path class="cls-2" d="m41.45,79.29c.02-2.78-.53-5.43-1.54-7.97-.56-1.41-1.23-2.77-1.88-4.13-1.22-2.55-2.45-5.1-3.68-7.65-.62-1.28-1.25-2.56-1.81-3.87,3.82,4.8,7.34,9.78,8.7,15.95.08-.03.16-.06.24-.09-.13-.63-.24-1.28-.41-1.9-1.06-4.06-2.99-7.68-5.45-11.05-.97-1.33-1.97-2.64-2.94-3.96-.34-.46-.64-.95-.96-1.43.05-.04.1-.08.16-.13,1.95,2.18,3.99,4.29,5.84,6.55,2.1,2.56,3.45,5.54,4.26,8.74.52,2.06.42,4.18.28,6.27-.09,1.35-.37,2.69-.58,4.03-.03.22-.15.43-.23.65Z"/>
    <path class="cls-2" d="m29.18,54.28c1.01,3.75,3.06,7.01,4.64,10.49.7,1.53,1.19,3.15,1.77,4.73.03.09.09.18.28.26-.01-.25,0-.5-.04-.75-.37-2.34-1.39-4.45-2.43-6.54-1.46-2.93-2.97-5.83-3.8-9.01-.36-1.37-.55-2.78-.72-4.2.64,1.05,1.51,1.9,1.82,3.17.64,2.66,1.89,5.1,3.12,7.54,1.11,2.2,2.17,4.43,2.6,6.89.39,2.24-.03,4.38-.77,6.69-.55-3.73-2.47-6.7-4.09-9.78-1.56-2.97-2.24-6.16-2.38-9.48Z"/>
    <path class="cls-2" d="m23.52,38c.25,3.3,1.12,6.4,2.09,9.48.64,2.02,1.19,4.07,1.28,6.21,0,.11.07.21.24.3,0-.65.11-1.32-.02-1.94-.51-2.43-1.06-4.85-1.68-7.26-.77-2.98-1.19-6-1.22-9.13.99,1.59,1.49,3.3,1.91,5.04.7,2.94,1.49,5.87,2.1,8.83.59,2.82.1,5.55-1.02,8.18-.05.12-.1.24-.17.35-.02.03-.07.04-.16.1.01-2.68-.63-5.2-1.49-7.67-.56-1.61-1.11-3.23-1.61-4.86-.63-2.03-.76-4.13-.69-6.23.01-.47.29-.93.44-1.39Z"/>
    <path class="cls-2" d="m57.46,90.91c-.51-1.93-1.64-3.5-2.76-5.1-1.02-1.47-1.62-3.13-2.21-4.81-.92-2.63-1.95-5.22-3.02-7.79-.42-1.01-.66-2-.58-3.21,1.53,4.76,4.52,8.66,6.39,13.12.42,1.01.81,2.04,1.37,3.02-.02-.15-.02-.3-.05-.44-.65-2.67-1.93-5.08-3.17-7.51-1.21-2.39-2.42-4.78-3.56-7.21-.36-.76-.5-1.62-.62-2.48,2.23,3.39,4.27,6.86,5.81,10.6,1.56,3.78,2.48,7.69,2.4,11.81Z"/>
    <path class="cls-2" d="m20.42,41.69c.56-2.52,0-4.77-.51-7.03-.2-.87-.3-1.78-.33-2.68-.05-1.58-.01-3.15-.01-4.37,1.2,3.22,2.45,6.82,1.67,10.78.09,0,.18,0,.27.01.12-.68.31-1.36.36-2.05.17-2.46-.32-4.82-1.12-7.13-.77-2.24-1.35-4.51-1.22-6.92.12-2.22.99-4.08,2.38-5.65-.33,1.28-.77,2.61-1.02,3.98-.62,3.36-.17,6.58,1.5,9.61,1.92,3.48,1.24,8.24-1.56,11.08-.09.09-.19.17-.41.37Z"/>
    <path class="cls-2" d="m42.21,61c.57,1.5,1.15,2.89,1.63,4.31,1.17,3.51,2.35,7.01,2.99,10.67.51,2.92.68,5.84-.07,8.76-.02.08-.05.16-.09.29-.79-2.02-1.74-3.93-2.27-5.96-.57-2.18-.73-4.47-1.08-6.71-.33-2.05-.57-4.11-1.34-6.06-.12-.29-.09-.64-.09-.97,1.95,5.25,3.88,10.49,4.3,16.14.1-.01.2-.02.29-.03,0-.3.01-.59,0-.89-.22-3.99-1.26-7.8-2.59-11.54-.33-.94-.65-1.88-1.01-2.81-.64-1.64-.86-3.32-.67-5.19Z"/>
    <path class="cls-2" d="m18.16,32.52c0-.43.02-.87,0-1.3-.14-2.24-.38-4.48-.43-6.73-.05-2.02.3-4.01.94-5.93.85-2.57,2.32-4.67,4.74-6.03.06.41.15.85.17,1.3,0,.13-.13.3-.24.41-.58.62-1.17,1.22-1.75,1.83-1.88,1.99-2.87,4.37-2.87,7.1,0,2.66.1,5.32.19,7.98.07,1.98.02,3.94-.59,5.84-.04.12-.09.23-.09.24-.53-2.64-1.11-5.34-1.59-8.05-.81-4.56-.17-8.92,2.09-12.99.27-.48.64-.91.96-1.36.05.03.09.06.14.09-.07.13-.14.26-.22.39-1.97,3.12-2.56,6.6-2.39,10.2.12,2.34.51,4.68.78,7.01.06,0,.12,0,.18,0Z"/>
    <path class="cls-2" d="m24.61,15.72c0,2.36.86,4.39,2.25,6.23.53.71,1.1,1.4,1.53,2.17.48.85.82,1.78,1.27,2.8-.07-.53-.04-.98-.21-1.36-.42-.99-.84-2-1.43-2.89-1.09-1.65-2.21-3.26-2.59-5.25-.19-.99-.26-1.98.07-2.95.09-.27.25-.51.44-.75-.22,2.51.81,4.6,1.95,6.69.91,1.66,1.85,3.33,2.54,5.1.77,1.98.39,3.95-.77,5.87-.47-2.11-1.61-3.77-2.78-5.4-2.05-2.84-2.88-5.96-2.43-9.43.04-.27.09-.55.14-.82Z"/>
    <path class="cls-2" d="m25.58,31.6c-.34-.88-.67-1.76-1.01-2.64-.72-1.81-1.41-3.63-1.59-5.59-.19-2.02.03-3.99.81-5.89,0,.77.06,1.54,0,2.3-.26,3.06.48,5.91,1.58,8.72.72,1.85,1.39,3.73,1.91,5.64.29,1.06.26,2.22.29,3.35-1.01-2.54-2.76-4.61-4.11-6.93-2.89-4.96-2.59-9.94-.1-14.93.05-.11.13-.21.34-.27-.13.48-.21.98-.39,1.45-1.8,4.63-.99,9,1.28,13.23.28.53.56,1.06.85,1.6.05-.02.1-.03.16-.05Z"/>
    <path class="cls-2" d="m37.97,42.43c2,.61,3.95,1.29,5.41,2.95,2.15,2.45,4.79,4.37,7.27,6.46,1.18,1,2.2,2.19,3.28,3.31.16.16.27.37.45.62-3.08-1.35-6.05-2.74-8.68-4.72-.61-.46-1.18-1.02-1.65-1.63-1.76-2.28-3.92-4.14-6.13-5.96-.18-.15-.36-.3-.51-.49,3.41,2.01,6.35,4.64,9.44,7.09-2.46-3.11-5.64-5.39-8.88-7.62Z"/>
    <path class="cls-2" d="m27.26,12.36c-.05,1.26.18,2.45.76,3.56.06.11.06.25.06.38.08,1.42.68,2.63,1.61,3.67.78.87,1.64,1.67,2.43,2.52.59.63,1.13,1.29,1.83,1.87-.26-.45-.46-.94-.79-1.33-.83-.99-1.74-1.93-2.58-2.91-.96-1.13-1.82-2.34-1.87-3.9-.02-.58.1-1.17.26-1.77-.09,1.96,1,3.34,2.18,4.68,1.2,1.37,2.4,2.73,3.15,4.42.74,1.66.92,3.38.59,5.36-.49-1.57-1.48-2.56-2.53-3.51-2.59-2.36-4.24-5.34-5.44-8.57-.34-.9-.33-1.95-.35-2.94,0-.52.27-1.05.42-1.57.08.01.17.02.25.03Z"/>
    <path class="cls-2" d="m46.94,72.75c1.54,3.84,3.08,7.67,4.62,11.51.03,0,.07,0,.1-.01-.13-.62-.18-1.27-.4-1.86-1.47-3.83-2.98-7.66-4.48-11.48-.44-1.12-.92-2.22-1.41-3.41,3.2,2.74,7.75,15.47,7.48,20.6-.93-1.52-1.95-3.11-2.9-4.75-1.46-2.51-2.12-5.28-2.61-8.11-.14-.82-.35-1.63-.53-2.45.04-.02.09-.03.13-.05Z"/>
    <path class="cls-2" d="m15.83,14.85c2.43-1.04,3.83-2.97,5.27-4.87,1.3-1.72,2.68-3.37,4.75-4.21.81-.33,1.67-.55,2.58-.84-.04.17-.04.22-.05.23-2.64.83-4.5,2.67-6.19,4.74-.9,1.1-1.79,2.2-2.7,3.31.35-.26.78-.49,1.1-.82.86-.91,1.67-1.87,2.52-2.8.63-.68,1.26-1.37,1.94-2,1.54-1.41,3.37-2.17,5.45-2.28.51-.03,1.03.1,1.55.24-2.53.17-4.67,1.1-6.31,3.03-.62.72-1.21,1.47-1.8,2.22-1.04,1.31-2.31,2.33-3.77,3.13-1.3.71-2.67,1.05-4.32.92Z"/>
    <path class="cls-2" d="m43.2,44.34c.78.47,1.36.93,2.01,1.18,1.07.41,1.67,1.32,2.46,2.03.7.63,1.41,1.24,2.5,1.53-.15-.18-.19-.25-.25-.29-1.57-1.02-2.76-2.41-3.86-3.9-1.07-1.44-2.07-2.93-3.18-4.33-.82-1.05-1.77-2-2.75-3.1.74.44,1.42.8,2.04,1.22,1.92,1.3,3.5,2.96,4.81,4.86,1.87,2.71,3.71,5.42,6.47,7.35-4.23-.8-7.4-3.26-10.26-6.57Z"/>
    <path class="cls-2" d="m37.3,23.94c-.89-1.69-2.33-2.8-3.86-3.8-1.41-.92-2.55-2.07-3.36-3.54-.57-1.04-.63-2.12-.08-3.21-.21,1.86.72,3.18,2.04,4.29,1.11.93,2.25,1.81,3.47,2.66-.46-.54-.89-1.11-1.4-1.6-.7-.67-1.5-1.24-2.19-1.92-1.21-1.2-1.73-2.62-1.11-4.31.03-.08.07-.15.15-.3.19,1.64,1.02,2.87,2.04,4,.99,1.09,2.01,2.15,2.94,3.29,1.04,1.28,1.51,2.78,1.35,4.46Z"/>
    <path class="cls-2" d="m44.88,53.76c.7.54,1.39,1.08,2.15,1.66-.02-.23-.03-.42-.04-.5,2.31,1.54,4.68,3.11,7.05,4.68.03-.03.07-.06.1-.09-.16-.17-.29-.36-.47-.49-1.37-1.01-2.78-1.98-4.13-3.03-1.05-.82-2.04-1.73-3.02-2.64-.32-.3-.52-.72-.67-1.18.14.1.29.2.43.31,2.78,2.16,5.61,4.28,8.33,6.52,1.02.84,1.81,1.96,2.69,2.96.16.18.24.43.38.54-2.8-1.57-5.59-3.14-8.39-4.72-1.56-.88-2.93-1.99-4.11-3.34-.15-.17-.29-.36-.44-.53.05-.05.09-.09.14-.14Z"/>
    <path class="cls-2" d="m47.74,59.79c2.27,2.12,4.55,4.23,6.82,6.35.02-.02.05-.04.07-.05-1.34-1.48-2.68-2.94-4-4.43-1.32-1.48-2.61-2.99-3.91-4.48.05-.05.11-.11.16-.16.14.11.29.21.42.33,1.84,1.71,3.73,3.36,5.5,5.14,1.76,1.77,2.69,4.04,3.42,6.38-2.79-2.2-5.59-4.39-7.57-7.4-.36-.55-.57-1.19-.85-1.79-.02.04-.04.08-.06.12Z"/>
    <path class="cls-2" d="m49.22,65.55c1.77,3.3,4.18,6.13,6.61,8.95-2.08-3.69-5.21-6.73-6.61-10.83.6.85,1.18,1.72,1.82,2.56,1.32,1.74,2.7,3.44,3.99,5.2,1.51,2.06,2.44,4.4,3.14,6.61-.95-1.01-1.99-2.19-3.1-3.31-2.25-2.26-3.94-4.93-5.56-7.65-.26-.44-.32-1-.47-1.5.06,0,.12-.02.18-.03Z"/>
    <path class="cls-2" d="m50.74,31.4c0,.65.07,1.38-.01,2.09-.22,1.82.03,3.53.94,5.14.41.73.75,1.49,1.13,2.23.06-.03.13-.05.19-.08-.14-.35-.3-.7-.43-1.06-.43-1.24-.94-2.46-1.22-3.73-.18-.8-.04-1.68.06-2.52.04-.33.33-.63.66-.96.07.51.25,1.04.19,1.53-.21,1.61.14,3.11.78,4.54.77,1.71,1.21,3.46.9,5.35-.01.08-.02.15-.03.22-.67-.89-1.34-1.76-2-2.64-1.67-2.21-2.22-4.7-1.8-7.41.14-.92.43-1.83.64-2.7Z"/>
    <path class="cls-2" d="m31.22,28.75c2.37,3.13,5.37,6.01,6.9,6.28-.16-.14-.3-.29-.47-.41-1.86-1.33-3.42-2.98-4.86-4.75-.8-.98-1.44-2.04-1.47-3.38-.01-.52-.22-1.04-.27-1.59.08.17.17.34.23.51,1.13,3.7,3.49,6.4,6.73,8.42,2,1.24,4.01,2.47,5.71,4.13-.02.06-.04.12-.06.18-1.21-.4-2.47-.66-3.6-1.21-3.46-1.69-6.29-4.17-8.63-7.21-.18-.24-.15-.64-.21-.97Z"/>
    <path class="cls-2" d="m52.3,46.95c-1.03-2.29-2.07-4.56-2.22-7.29.77,1.31,1.56,2.45,2.13,3.69.26.56.07,1.32.16,1.98.12.85.31,1.69.44,2.42-2.05-1.3-5.56-4.96-5.03-8.56.49.99.97,1.97,1.52,3.08.09-.59.16-1.06.24-1.54.48,2.28,1.36,4.37,2.76,6.22Z"/>
    <path class="cls-2" d="m24.24,14.82c-.05-.41-.08-.82-.15-1.22-.23-1.23.07-2.26.94-3.21.98-1.07,1.8-2.28,3.08-3.02.31-.18.64-.34,1-.44-.59.49-1.24.93-1.76,1.48-.53.56-1,1.19-1.41,1.85-.42.66-.74,1.39-1.02,2.16,1.85-3.45,4.38-5.89,8.54-6.18-1.07.47-2.1.89-3.09,1.38-1.2.59-2.09,1.51-2.73,2.69-.71,1.32-1.47,2.59-2.67,3.54-.3.24-.49.63-.74.97Z"/>
    <path class="cls-2" d="m45.21,33.43c-.48-1.97-1.24-3.93-.57-5.93.44,1.1.93,2.24,1.36,3.39.08.21.02.49-.03.74-.12.63-.26,1.26-.39,1.89-.13.64-.25,1.29-.5,1.95-.35-1.91-1.66-3.32-2.36-5-.28-.68-.33-1.46-.43-2.2-.08-.57-.14-1.16-.12-1.74.02-.58.15-1.16.3-1.73.22,1.77,1.73,6.83,2.74,8.64Z"/>
    <path class="cls-2" d="m48.58,38.17c-.13-1.22-.26-2.44-.38-3.66.08,0,.15-.02.23-.03.07.54.15,1.08.23,1.73.28-.36.51-.66.78-1.01.05,1.92.29,3.79-.46,5.6-.88-2.14-2.53-3.98-2.77-6.44-.11-1.12-.02-2.84.79-3.46.94,2.33.43,4.98,1.58,7.27Z"/>
    <path class="cls-2" d="m28.17,15.1c-.99-3.75.11-6.12,3.28-7.38-2,2.15-2.4,2.78-2.41,3.87.72-1.51,1.69-2.83,3.19-3.63.73-.39,1.55-.62,2.33-.92.02.05.04.11.07.16-.27.12-.55.23-.82.36-1.39.68-2.32,1.79-2.84,3.23-.34.94-.82,1.75-1.68,2.31-.69.46-1.01,1.16-1.1,2Z"/>
    <path class="cls-2" d="m38.66,20.34c-.74-.52-1.51-1.03-2.25-1.58-1.23-.92-2.09-2.17-2.88-3.47-.15-.25-.16-.63-.15-.95.04-1.3.46-2.47,1.02-3.35-.11.78-.34,1.77-.38,2.76-.05,1.11.49,2.04,1.24,2.84.75.79,1.51,1.58,2.26,2.36.06-.05.12-.1.18-.16-.2-.29-.39-.59-.61-.86-.52-.63-1.08-1.24-1.59-1.88-.75-.93-1.05-2.01-.95-3.18.28.9.56,1.8.83,2.71.08,0,.15-.02.23-.03.1-.32.2-.64.27-.86.66.92,1.34,1.89,2.04,2.86.63.86.79,1.83.74,2.78Z"/>
    <path class="cls-2" d="m32.17,26.01c1.32,1.1,2.32,2.36,2.56,4.12.08,0,.15-.01.23-.02.15-.49.3-.98.48-1.55.76,1.38,1.75,2.49,2.96,3.41,1.2.91,2.53,1.57,4,1.97-3.11,1.02-9.51-3.92-10.23-7.92Z"/>
    <path class="cls-2" d="m44.35,38.76c.58-.13.98-.22,1.37-.32.12-.03.22-.12.33-.31-.24-.03-.48-.06-.72-.1-.95-.16-1.32-.53-1.37-1.49-.04-.86,0-1.73,0-2.7.62.8.7,1.65.86,2.6.3-.34.59-.69.95-1.09.23,1.39,1.32,2.45,1.32,3.96,0,1.18.18,2.36.29,3.68-.91-1.36-1.14-2.84-1.48-4.28-.08.01-.16.03-.23.04.08.76.16,1.53.24,2.29-.04.03-.08.06-.13.09-.46-.77-.92-1.53-1.42-2.37Z"/>
    <path class="cls-2" d="m37.68,7.86c-3.34,1.1-4.66,3.61-4.84,6.89-1.17-1.45-1.59-3.33-1-4.54.77-1.59,2.63-2.7,4.56-2.64-2.08.6-3.56,1.67-3.86,3.89.89-2.4,2.77-3.35,5.14-3.6Z"/>
    <path class="cls-2" d="m49.03,34.86c-.74-1.68-1.71-3.28-1.44-5.22.06-.43.23-.85.48-1.2.31,1.21.63,2.42.94,3.64.06,0,.11-.01.17-.02-.15-1.39-.3-2.79-.45-4.18.06,0,.12-.01.18-.02,1.92,2.97,1.47,5.18.11,7.01Z"/>
    <path class="cls-2" d="m51.02,29.41c-.33-1.29-.48-2.57-.05-4.03.39.66.87,1.03.72,1.87-.16.86,0,1.8.08,2.69.07.84.14,1.67-.35,2.66-.04-1.61-.81-2.73-1.45-3.91-.5-.93-.74-1.92-.7-2.99.04-1.18,1.08-1.96,2.37-1.65-1.08.4-1.27,1.28-1.36,2.19-.11,1.13.05,2.22.74,3.18Z"/>
    <path class="cls-2" d="m33.58,21.03c2.24,1.42,2.7,3.78,3.45,5.97.08-.03.16-.05.24-.08-.26-1.12-.51-2.25-.81-3.54.33.61.59,1.08.92,1.67.12-.37.22-.65.36-1.08.72,1.68.1,3.29.33,4.89-.69-.67-1.4-1.33-2.07-2.03-.21-.22-.42-.55-.45-.85-.19-1.81-.9-3.4-1.98-4.94Z"/>
    <path class="cls-2" d="m38.52,27.94c1.11,1.44,2.26,2.76,2.04,4.65-1.76-.45-4.74-3.55-5-5.29,1.03.86,2.04,1.7,3.05,2.55.05-.03.09-.06.14-.09-.07-.58-.15-1.16-.23-1.81Z"/>
    <path class="cls-2" d="m38.65,25.58c1.23,1.19,1.22,1.2,1.8,2.68.18.45.43.86.75,1.26-.41-1.74-.83-3.46-.62-5.23.36.71.84,1.41,1.05,2.18.2.75.16,1.58.16,2.37,0,.62-.09,1.25-.15,2-1.42-1.54-3.21-2.75-2.98-5.25Z"/>
    <path class="cls-2" d="m47.25,17.7c.16-1.26.59-1.66,1.91-1.6,1.71.09,2.98.89,3.8,2.39-.71-.41-1.39-.87-2.13-1.2-.76-.33-1.57-.3-2.37,0,1.42.18,2.78.46,3.74,1.4-.74,0-1.56.03-2.38-.01-.37-.02-.75-.16-1.1-.3-.49-.2-.96-.45-1.47-.69Z"/>
    <path class="cls-2" d="m46.1,22.9c.19-.37.39-.74.58-1.12.39-.77.55-.84,1.36-.54.22.08.44.14.56.18-.43.59-.92,1.14-1.25,1.78-.4.74-1.14.68-1.76.98-.2-1.5-.04-2.87.78-4.14.48-.75,1.24-1.07,2.42-.89-.4.55-.68,1.16-1.32,1.37-1.17.38-1.23,1.4-1.53,2.29.05.03.11.06.16.1Z"/>
    <path class="cls-2" d="m45.76,24.76c.23,1.28.45,2.53.67,3.77.05,0,.09,0,.14,0,.01-.14.04-.28.03-.42-.07-1.05-.15-2.11-.23-3.16-.03-.4.12-.62.54-.6.36,2.08.98,4.18-.38,6.12-1.32-1.96-2-4.61-.78-5.72Z"/>
    <path class="cls-2" d="m46.98,16.79c-.33.3-.62.66-.99.89-.85.52-1.43,1.2-1.65,2.2.92-1.05,1.7-2.4,3.57-1.36-1.38.18-1.92,1.15-2.46,2.17-.18.33-.64.52-.99.75-.23.15-.51.23-.95.42.19-.82.34-1.53.53-2.24.11-.41.31-.81.45-1.21.41-1.17,1.08-1.67,2.49-1.6Z"/>
    <path class="cls-2" d="m43.99,15.38c-1.01,1.11-1.9,2.16-1.83,3.74.39-.76.7-1.46,1.09-2.11.45-.74,1.05-.85,1.71-.5-.31.58-.72,1.12-.91,1.73-.29.93-.69,1.66-1.68,1.96-.2.06-.36.21-.56.32-.43-2.69-.24-4.33,2.17-5.15Z"/>
    <path class="cls-2" d="m49.54,14.53c-1.26-.49-2.47-.54-3.59.33,1.57-.43,3-.23,4.48.85-1.29-.31-2.37-.22-3.41.22-.7.29-1.37.33-2.06,0-.21-.1-.45-.13-.68-.18.4-1.92,1.86-2.08,3.74-1.91.53.05,1.04.34,1.56.51-.01.06-.02.12-.03.17Z"/>
    <path class="cls-2" d="m41,13.73c.22-2.04,3.89-2.93,6.35-1.31-.76-.07-1.59-.21-2.42-.22-.83-.01-1.67.03-2.42.5,1.76-.23,3.5-.26,5.24.45-1.74.08-3.37.75-5.11.27-.48-.13-1.1.19-1.65.3Z"/>
    <path class="cls-2" d="m53.7,21.18c-.88-.93-1.84-1.62-3.22-1.4,1.73.25,2.72,1.34,3.32,2.89-1.4-2.06-3.67-1.5-5.65-1.83.9-1.34,1.73-1.82,2.96-1.74,1.05.07,2.09.88,2.6,2.07Z"/>
    <path class="cls-2" d="m42.38,9.51c-2.51.31-3.81,1.19-3.74,2.51,1.35-2.38,4.72-2.31,6.25-1.28-1.35-.3-2.6-.33-3.8.2-1.21.54-2.02,1.45-2.49,2.8-.23-.53-.54-1.04-.67-1.6-.17-.68-.01-1.38.76-1.82,1.15-.65,2.35-.97,3.7-.82Z"/>
    <path class="cls-2" d="m39.18,19.34c.75,1.2.88,2.44.68,6.64-1.81-1.4-2.03-3.41-2.09-5.51.32.62.68,1.22.93,1.86.27.67.45,1.37.73,2.05.14-1.69-.9-3.32-.25-5.04Z"/>
    <path class="cls-2" d="m36.56,12.82c.06,1.79,1.15,2.87,2.58,3.73-1.2-1.19-2.22-2.44-1.95-4.22.6.92,1.2,1.88,1.83,2.81.61.89,1.01,1.85,1.06,2.94-2.85-1.57-4.1-3.43-3.52-5.27Z"/>
    <path class="cls-2" d="m41.59,23.87c.15-1.31-.47-2.98,1.53-3.44.51,1.98-.96,3.42-1.4,5.31-.81-1.98-1.25-3.83-.62-5.8h.23v3.91l.27.03Z"/>
    <path class="cls-2" d="m43.83,28.39c-.76-1.89-1.19-3.79-.25-5.75.14-.28.44-.49.75-.67-.62,1.37-.68,2.78-.57,4.21.45-1.3.35-2.75,1.26-4.08-.07,1.18.27,2.2-.16,3.24-.41.97-.68,1.99-1.03,3.05Z"/>
    <path class="cls-2" d="m35.55,12.48c.83-2.41,2.52-3.54,5-3.59-2.86.73-4.42,2.68-5.06,5.51-1.26-3.59,1.26-6.25,3.75-6.04-.77.44-1.69.84-2.46,1.43-.83.64-1.08,1.65-1.23,2.7Z"/>
    <path class="cls-2" d="m48.03,27.82c-.13-.72-.25-1.45-.38-2.17-.2-1.09-.03-2.11.64-3.02.51-.69,1.24-.98,2.23-1.05-.57.45-1.01.83-1.48,1.18-.98.73-1.25,1.54-.83,2.94.06-.43.1-.7.15-.96.03-.19.05-.39.11-.57.29-.92.59-1.01,1.45-.47-.92.58-1.33,1.42-1.38,2.5-.03.56-.21,1.11-.32,1.67-.06-.01-.12-.03-.17-.04Z"/>
    <path class="cls-2" d="m53.42,27.85c.47.48.58,1.01.39,1.65-.37,1.26-.7,2.53-1.03,3.73-.48-.69-.9-4.98-.52-6.03.54.19.59.67.58,1.09-.01.82-.12,1.64-.18,2.45-.02.3-.04.59-.06.89l.22.03c.2-1.25.39-2.5.6-3.82Z"/>
    <path class="cls-2" d="m29.29,31.67c-1.76-2.06-3.08-4.38-3.96-6.95,1.36,2.29,3.53,4.12,3.96,6.95Z"/>
    <path class="cls-2" d="m52.73,25.4c1.05.88,1.25,1.22,1.28,2.15-1.26-.49-2.15-1.41-2.82-2.64.4-.41.97-.56,1.54-.44.76.15,1.08.77,1.29,1.47-.41-.25-.81-.49-1.2-.72l-.08.19Z"/>
    <path class="cls-2" d="m40.94,30.87c.38.33.75.64,1.21,1.03v-1.31c.36,1.01,1.35,1.75,1.26,2.95-1.68.17-2.33-.54-2.46-2.67Z"/>
    <path class="cls-2" d="m26.97,38.92c-1.44-1.78-2.4-3.8-2.97-6.01,1.13,1.94,2.88,3.56,2.97,6.01Z"/>
    <path class="cls-2" d="m49.46,23.03c1.87-1.6,3.38-1.38,4.14.52-.85-.63-1.67-1.17-2.76-.9.96.27,1.93.52,2.46,1.19-1.15-.24-2.43-.51-3.84-.81Z"/>
    <path class="cls-2" d="m40.22,16.63c.29-.75.46-1.58.91-2.22.51-.72,1.38-.56,2.12-.38-.7.31-1.43.62-2.16.94.02.06.05.12.07.17.81-.18,1.61-.36,2.48-.55-.9,1.06-2.61.72-3.21,2.13-.07-.03-.15-.07-.22-.1Z"/>
    <path class="cls-2" d="m41.52,11.9c-.78.63-1.01,1.46-1.02,2.43,0,.44-.28.88-.45,1.37-1.12-1.29-1.16-1.77-.39-2.81-.05.52-.12,1.15-.18,1.78.06,0,.11,0,.17,0,.17-.56.26-1.16.54-1.66.27-.48.73-.85,1.11-1.27.07.06.14.11.22.17Z"/>
    <path class="cls-2" d="m40.44,18.99c.07-.57.06-1.09.2-1.57.13-.44.42-.83.64-1.24.07.03.14.07.2.1-.34,1.43-.68,2.86-1.06,4.45-.42-.94-.76-1.7-1.17-2.63.44.33.77.57,1.19.89Z"/>
    <path class="cls-2" d="m43.33,36.71c-.78-.48-1.23-1.19-1.3-2.09.42-.08.83-.16,1.3-.26v2.34Z"/>
    <path class="cls-2" d="m41.62,35.37c-.06-.02-.13-.03-.17-.07-.37-.25-.74-.5-1.13-.77q1.14-.01,1.3.84Z"/>
    <path class="cls-2" d="m44.07,39.35c-.39-.3-.7-.55-1.05-.82q.88,0,1.05.82Z"/>
  </g>
  <g>
    <path class="cls-1" d="m7.87,62.64c0-2.73-1.24-4.15-3.16-4.15-1.12,0-2.42.5-3.72,1.49l-.62-.81c2.6-2.91,5.89-4.83,9.05-4.83,2.73,0,4.9,1.61,4.9,5.64v2.29l11.15-9.42c3.47,1.92,13.57,4.46,13.88,19.83,0,16.17-12.52,20.57-19.33,25.1-1.3-1.98-3.35-3.35-5.64-3.78v5.33c0,1.36.12,2.85,1.05,4.58l-.31.43c-3.04,1.43-5.45,3.47-7.56,6.51l-.68-.19c.74-2.67.99-5.76.99-8.86v-8.49c-2.04,0-4.28,1.3-5.45,3.78l-.56-.43c.5-3.35,2.79-6.2,6.01-7.44v-8.74c-.62-1.3-1.98-1.98-3.28-1.98-.68,0-1.36.12-1.92.5l-.43-.5c.68-1.67,2.6-2.91,4.28-2.91.5,0,.99.12,1.36.37v-1.43c-.5-1.12-1.67-1.61-3.04-1.61-1.55,0-3.28.68-4.4,1.86l-.43-.5c1.05-3.22,3.72-5.14,6.32-5.14.56,0,1.05.06,1.55.19v-6.69Zm6.51,1.12v25.1c1.05,0,2.04.12,3.1.37v-28.19l-3.1,2.73Zm4.09,10.6c2.97-2.48,9.05-5.27,13.26-6.82-2.48-6.88-8.12-8.43-11.34-8.8l-1.92,1.67v13.94Zm13.57-5.82c-4.21,1.49-10.66,4.52-13.57,6.88v5.08c3.9-2.42,10.29-4.71,14.44-5.76-.06-2.42-.37-4.46-.87-6.2Zm.87,7.37c-4.21.93-10.6,3.22-14.44,5.7v7.81c2.35.56,3.97,1.86,6.13,3.9,5.52-3.66,8.18-9.48,8.3-17.41Z"/>
    <path class="cls-1" d="m60.66,75.9l-10.91,9.11v5.7c1.3.56,3.35,1.3,5.02,2.67l3.9-2.48.68.81-7.99,5.76c-2.85-1.67-6.57-3.1-9.79-4.15v-.87c1.61-.62,2.23-2.6,2.23-3.97v-11.77c0-1.67-1.12-2.66-2.42-2.85v-1.12c4.71-1.8,8.24-3.97,11.65-6.26l7.62,9.42Zm-10.91,7.87l5.58-4.77-6.13-8.37-.87.43c.87,1.61,1.43,3.35,1.43,5.33v7.37Z"/>
    <path class="cls-1" d="m64.44,71.44h-3.47v-.99c2.54-.99,6.51-4.71,8.92-8.61l1.61-2.6.81.5-.43.81c-1.18,2.23-1.61,3.84-1.61,6.51v.68h5.64l-1.3,3.72h-4.21v19.83c1.36.68,2.23,1.05,3.28,1.86l1.43-.99.5.93-5.64,4.4c-3.22-1.92-5.64-2.97-7.56-3.41v-1.05c1.42-.43,2.04-2.35,2.04-3.66v-17.91Z"/>
    <path class="cls-1" d="m96.48,75.9l-10.91,9.11v5.7c1.3.56,3.35,1.3,5.02,2.67l3.9-2.48.68.81-7.99,5.76c-2.85-1.67-6.57-3.1-9.79-4.15v-.87c1.61-.62,2.23-2.6,2.23-3.97v-11.77c0-1.67-1.12-2.66-2.42-2.85v-1.12c4.71-1.8,8.24-3.97,11.65-6.26l7.62,9.42Zm-10.91,7.87l5.58-4.77-6.13-8.37-.87.43c.87,1.61,1.43,3.35,1.43,5.33v7.37Z"/>
    <path class="cls-1" d="m111.72,79.25c.87,0,1.92-.06,2.6-.25.43-.12.99-.31,1.3-.56l.25-.19.5.5-2.42,3.9c-.19.31-.56.62-.87.74-.31.12-1.24.19-1.55.19h-7.13c-.62,0-2.48.06-2.91.12-.68.06-1.18.25-1.67.5l-.37.19-.43-.56,2.23-3.22c.25-.37.81-.93,1.24-1.12.5-.25,1.36-.25,1.8-.25h7.44Z"/>
    <path class="cls-1" d="m123.43,90.71v-15.99c0-1.92-1.12-3.78-3.1-2.85l-.37-.81,4.71-4.65c3.35.87,4.71,4.34,4.71,7.56l7.44-7.5c1.92,2.35,3.9,3.78,5.82,3.35l.31.81c-.93.37-1.86,1.55-1.86,2.85v18.84c-3.47,1.24-5.76,3.41-7.93,5.45-1.18-1.24-2.48-2.29-3.78-3.16v5.02c0,2.66.93,4.83,2.66,5.58l-.87.81c-1.8-.62-3.1-1.55-4.28-3.28-.87,2.29-3.16,4.65-5.14,5.27l-.43-.62c1.55-1.92,2.11-3.96,2.11-7.75v-6.82c-1.61.12-3.1.81-4.28,2.17l-.43-.5c.87-1.67,2.6-3.04,4.71-3.78Zm11.71-17.1l-2.11-1.67-3.66,3.59v14.69c1.98.31,3.97,1.18,5.76,2.66v-19.27Z"/>
    <path class="cls-1" d="m148.59,90.71v-15.99c0-1.92-1.12-3.78-3.1-2.85l-.37-.81,4.71-4.65c3.35.87,4.71,4.34,4.71,7.56l7.44-7.5c1.92,2.35,3.9,3.78,5.83,3.35l.31.81c-.93.37-1.86,1.55-1.86,2.85v18.84c-3.47,1.24-5.76,3.41-7.93,5.45-1.18-1.24-2.48-2.29-3.78-3.16v5.02c0,2.66.93,4.83,2.67,5.58l-.87.81c-1.8-.62-3.1-1.55-4.28-3.28-.87,2.29-3.16,4.65-5.14,5.27l-.43-.62c1.55-1.92,2.11-3.96,2.11-7.75v-6.82c-1.61.12-3.1.81-4.28,2.17l-.43-.5c.87-1.67,2.6-3.04,4.71-3.78Zm11.71-17.1l-2.11-1.67-3.66,3.59v14.69c1.98.31,3.97,1.18,5.76,2.66v-19.27Z"/>
    <path class="cls-1" d="m189.24,75.9l-10.91,9.11v5.7c1.3.56,3.35,1.3,5.02,2.67l3.9-2.48.68.81-7.99,5.76c-2.85-1.67-6.57-3.1-9.79-4.15v-.87c1.61-.62,2.23-2.6,2.23-3.97v-11.77c0-1.67-1.12-2.66-2.42-2.85v-1.12c4.71-1.8,8.24-3.97,11.65-6.26l7.62,9.42Zm-10.91,7.87l5.58-4.77-6.13-8.37-.87.43c.87,1.61,1.42,3.35,1.42,5.33v7.37Z"/>
    <path class="cls-1" d="m199.53,91.89c.56.25.99.43,2.04,1.24l1.42-.99.5.93-5.64,4.4c-3.22-1.92-4.4-2.97-6.32-3.41v-1.05c1.43-.43,2.04-2.35,2.04-3.66v-14.62c0-1.92-1.12-3.78-3.1-2.85l-.37-.81,4.71-4.65c3.35.87,4.28,3.16,4.59,5.45l5.08-5.39c1.92,2.35,2.66,3.78,4.59,3.35l.31.81-3.1,4.15c-1.98-.06-3.97-1.05-5.14-3.16l-1.61,1.73v18.53Z"/>
    <path class="cls-1" d="m221.03,66.18c3.28,1.86,6.88,3.84,11.15,4.52v.93c-1.05.5-1.55,1.3-1.55,3.9v17.54l-9.05,4.71c-2.91-2.23-7.31-3.9-10.78-4.46v-.93c1.18-.5,1.49-1.3,1.49-3.59v-17.41l8.74-5.21Zm-2.79,24.41c2.54.81,4.52,1.86,6.44,3.47v-20.7c-2.35-.43-4.46-1.42-6.44-3.16v20.39Z"/>
    <path class="cls-1" d="m255.42,88.55c0,3.35.68,4.83,2.97,4.03l.19.93-6.2,4.03c-2.79-2.29-2.91-5.27-2.91-8.61v-15.31l-2.11-1.61-3.66,3.53v16.05l2.17,1.86-4.71,4.34-5.33-4.09,1.92-2.04v-16.92c0-1.92-1.12-3.78-3.1-2.85l-.37-.81,4.71-4.65c3.35.87,4.71,4.34,4.71,7.56l7.44-7.5c1.92,2.35,3.9,3.78,5.83,3.35l.31.81c-.93.37-1.86,1.55-1.86,2.85v15.06Z"/>
    <path class="cls-1" d="m260.93,71.13l4.83-4.65,5.39,4.59-2.11,2.48v17.72c.62.43,1.67,1.12,2.35,1.86l1.43-.99.5.93-5.64,4.4c-3.22-1.92-4.71-2.97-6.63-3.41v-1.05c1.42-.43,2.04-2.35,2.04-3.66v-16.05l-2.17-2.17Z"/>
    <rect class="cls-1" x="264.3" y="59.7" width="5.65" height="5.56" transform="translate(106.26 -159.75) rotate(40.94)"/>
  </g>
</svg>