<?xml version="1.0" encoding="UTF-8"?>
<svg id="Capa_1" data-name="Capa 1" xmlns="http://www.w3.org/2000/svg" viewBox="0 0 343.81 78.15">
  <path d="m20.71.96h17.89l20.71,38.6h-16.94l-3.04-6.6h-19.33l-3.04,6.6H0L20.71.96Zm3.65,22.57h10.6l-5.28-11.4-5.31,11.4Z"/>
  <path d="m76.47,26.34v13.18l-16.02-.03V.9l16.02.03v13.18l5.61-.03L96.23.9h19.76l-20.02,19.3,20.02,19.3h-19.76l-14.16-13.18-5.61.03Z"/>
  <path d="m133.99.91v38.6h-15.05V.91h15.05Z"/>
  <path d="m214.73.96h17.89l20.71,38.6h-16.94l-3.04-6.6h-19.33l-3.04,6.6h-16.94L214.73.96Zm3.65,22.57h10.6l-5.28-11.4-5.31,11.4Z"/>
  <path d="m232.61,78.09h-17.89l-20.71-38.6h16.94l3.04,6.6h19.33l3.04-6.6h16.94l-20.71,38.6Zm-3.65-22.57h-10.6l5.28,11.4,5.31-11.4Z"/>
  <path d="m118.94,78.11v-38.6h15.05v38.6h-15.05Z"/>
  <path d="m75.03,78.12c-7.95.09-14.7-6.61-14.59-14.59,0-2.9.78-5.54,2.33-7.9,1.52-2.33,3.56-4.11,6.09-5.28l-8.41-10.83h16.02l7.26,9.42,12.47-.03v-9.42l19.78.03v38.6h-40.96Zm21.18-11.31v-6.58l-17.39.03c-.92,0-1.69.32-2.33.95-.66.66-.98,1.44-.98,2.33,0,1.84,1.46,3.3,3.3,3.3l17.39-.03Z"/>
  <path d="m176.47,51.78v-13.18l16.02.03v38.6l-16.02-.03v-13.18l-5.61.03-14.16,13.18h-19.76l20.02-19.3-20.02-19.3h19.76l14.16,13.18,5.61-.03Z"/>
  <path d="m177.9,0c7.95-.09,14.7,6.61,14.59,14.59,0,2.9-.78,5.54-2.33,7.9-1.52,2.33-3.56,4.11-6.09,5.28l8.41,10.83h-16.02l-7.26-9.42-12.47.03v9.42l-19.78-.03V0h40.96Zm-21.18,11.31v6.58l17.39-.03c.92,0,1.69-.32,2.33-.95.66-.66.98-1.44.98-2.33,0-1.84-1.46-3.3-3.3-3.3l-17.39.03Z"/>
  <path d="m38.6,78.09h-17.89L0,39.49h16.94l3.04,6.6h19.33l3.04-6.6h16.94l-20.71,38.6Zm-3.65-22.57h-10.6l5.28,11.4,5.31-11.4Z"/>
</svg>