<?xml version="1.0" encoding="UTF-8"?>
<svg id="Capa_1" data-name="Capa 1" xmlns="http://www.w3.org/2000/svg" viewBox="0 0 342.67 31.82">
  <path d="m41.37,18.51c-.74,10.25-9.73,13.31-20.65,13.31C9.34,31.8-.04,28.5,0,17.02v-2.21C-.04,3.34,9.34.04,20.72,0c10.92.02,19.9,3.09,20.65,13.31h-12.12c-1.11-2.98-4.47-3.68-8.53-3.68-4.83.07-8.94.93-8.87,5.91v.75c-.07,4.94,4.04,5.84,8.87,5.91,4.06,0,7.45-.72,8.53-3.7h12.12Z"/>
  <path d="m85.69,14.8v2.21c.04,11.46-9.3,14.78-20.69,14.8-11.42-.02-20.76-3.34-20.72-14.8v-2.21C44.24,3.32,53.58.02,65,0c11.42,0,20.69,3.34,20.69,14.8Zm-11.83.72c.07-4.94-4.04-5.85-8.87-5.91-4.85.07-8.96.97-8.89,5.91v.74c-.07,4.96,4.04,5.87,8.89,5.94,4.83-.07,8.94-.97,8.87-5.94v-.74Z"/>
  <path d="m118.78.74h11.85v30.33h-13.31l-16.29-18.53v18.53h-11.83V.74h16.27l13.31,16.07V.74Z"/>
  <path d="m154.1,21.85L163.36.79h13.31l-15.55,30.33h-14.06L131.54.79h13.31l9.25,21.06Z"/>
  <path d="m177.58.79h35.5v7.76h-23.67v3.88h23.67v7.02h-23.67v3.88h23.67v7.79h-35.5V.79Z"/>
  <path d="m248.58.77c6.25-.07,11.55,5.19,11.46,11.46,0,2.28-.61,4.36-1.83,6.21-1.2,1.83-2.8,3.23-4.78,4.15l6.61,8.51h-12.59l-5.71-7.4h-10.56v7.4h-11.83V.77h29.22Zm-17.4,8.87v5.17h14.42c.72,0,1.33-.25,1.83-.74.52-.52.77-1.13.77-1.83,0-1.44-1.15-2.6-2.59-2.6h-14.42Z"/>
  <path d="m283.67,12.48c8.46.43,20.36,1.02,20.33,8.62,0,8.67-9.93,10.72-20.58,10.72-10.63-.02-19.45-1.31-20.58-10.72h12.39c1.35,2.35,4.49,2.96,8.19,2.96s8.19-.61,8.19-2.96c0-1.33-3.68-1.53-8.44-1.76-8.46-.43-20.36-1.02-20.33-8.6,0-8.67,9.93-10.74,20.58-10.74,10.63.07,19.45,1.26,20.58,10.74h-12.39c-1.35-2.39-4.49-2.96-8.19-2.96s-8.19.54-8.19,2.96c0,1.33,3.68,1.51,8.44,1.74Z"/>
  <path d="m307.17.79h35.5v7.76h-23.67v3.88h23.67v7.02h-23.67v3.88h23.67v7.79h-35.5V.79Z"/>
</svg>