<?xml version="1.0" encoding="UTF-8"?>
<svg id="Capa_1" data-name="Capa 1" xmlns="http://www.w3.org/2000/svg" viewBox="0 0 343.81 87.47">
  <defs>
    <style>
      .cls-1 {
        fill: #fff;
      }
    </style>
  </defs>
  <path class="cls-1" d="m140.96,0c.17.22.31.46.5.66,12.7,13.99,25.39,27.97,38.09,41.96.33.36.66.73,1.03,1.14-.21.24-.39.46-.58.66-10.96,12.12-21.92,24.23-32.89,36.35-1.87,2.07-3.75,4.13-5.6,6.2-.31.34-.62.5-1.09.5-10.04-.01-20.07,0-30.11-.01-.2,0-.4-.03-.76-.05,12.46-14.63,24.83-29.16,37.22-43.71-.5-.6-.97-1.16-1.45-1.71-11.81-13.89-23.62-27.77-35.43-41.66-.09-.11-.17-.22-.26-.34,10.44,0,20.88,0,31.32,0Z"/>
  <path class="cls-1" d="m107.27,49.74v18.1c-.05.01-.08.02-.1.02-.02,0-.04,0-.06-.02-.04-.03-.07-.06-.1-.1-3.65-4.72-7.3-9.45-10.95-14.17-.01-.02-.04-.02-.16-.08-5.62,1.86-11.32,3.75-16.97,5.62-.08-.06-.11-.07-.11-.09,0-.02,0-.05,0-.07.04-.08.08-.17.13-.25,3.19-4.93,6.38-9.86,9.57-14.8.01-.02.01-.05.03-.13-3.33-5.01-6.69-10.05-10.04-15.09l.08-.13c5.78,1.78,11.56,3.56,17.38,5.35,3.54-4.81,7.06-9.59,10.57-14.35.08.02.1.02.12.03.02.01.04.03.05.05.02.04.03.09.03.14.12,5.85.24,11.7.37,17.63,5.83,1.91,11.67,3.82,17.5,5.74,0,.05,0,.1,0,.16-5.77,2.14-11.55,4.28-17.36,6.44Z"/>
</svg>